<ttFont>
    <TTGlyph name="" xMin="-749" yMin="1450" xMax="-249" yMax="2155">
      <contour>
        <pt x="-511" y="1708" on="0"/>
        <pt x="-535" y="1689" on="0"/>
        <pt x="-549" y="1654" on="0"/>
        <pt x="-549" y="1635" on="1"/>
        <pt x="-549" y="1615" on="0"/>
        <pt x="-535" y="1580" on="0"/>
        <pt x="-511" y="1561" on="0"/>
        <pt x="-499" y="1561" on="1"/>
        <pt x="-486" y="1561" on="0"/>
        <pt x="-462" y="1580" on="0"/>
        <pt x="-449" y="1615" on="0"/>
        <pt x="-449" y="1635" on="1"/>
        <pt x="-449" y="1654" on="0"/>
        <pt x="-462" y="1689" on="0"/>
        <pt x="-486" y="1708" on="0"/>
        <pt x="-499" y="1708" on="1"/>
      </contour>
      <contour>
        <pt x="-499" y="1819" on="1"/>
        <pt x="-435" y="1819" on="0"/>
        <pt x="-316" y="1771" on="0"/>
        <pt x="-249" y="1682" on="0"/>
        <pt x="-249" y="1635" on="1"/>
        <pt x="-249" y="1587" on="0"/>
        <pt x="-314" y="1499" on="0"/>
        <pt x="-434" y="1450" on="0"/>
        <pt x="-499" y="1450" on="1"/>
        <pt x="-563" y="1450" on="0"/>
        <pt x="-683" y="1499" on="0"/>
        <pt x="-749" y="1587" on="0"/>
        <pt x="-749" y="1635" on="1"/>
        <pt x="-749" y="1682" on="0"/>
        <pt x="-681" y="1771" on="0"/>
        <pt x="-561" y="1819" on="0"/>
      </contour>
      <contour>
        <pt x="-629" y="2155" on="1"/>
        <pt x="-385" y="2155" on="1"/>
        <pt x="-385" y="1850" on="1"/>
        <pt x="-629" y="1850" on="1"/>
      </contour>
    </TTGlyph>
    <TTGlyph name="#1" xMin="-757" yMin="1450" xMax="-249" yMax="2145">
      <contour>
        <pt x="-511" y="1708" on="0"/>
        <pt x="-535" y="1689" on="0"/>
        <pt x="-549" y="1654" on="0"/>
        <pt x="-549" y="1635" on="1"/>
        <pt x="-549" y="1615" on="0"/>
        <pt x="-535" y="1580" on="0"/>
        <pt x="-511" y="1561" on="0"/>
        <pt x="-499" y="1561" on="1"/>
        <pt x="-486" y="1561" on="0"/>
        <pt x="-462" y="1580" on="0"/>
        <pt x="-449" y="1615" on="0"/>
        <pt x="-449" y="1635" on="1"/>
        <pt x="-449" y="1654" on="0"/>
        <pt x="-462" y="1689" on="0"/>
        <pt x="-486" y="1708" on="0"/>
        <pt x="-499" y="1708" on="1"/>
      </contour>
      <contour>
        <pt x="-499" y="1819" on="1"/>
        <pt x="-435" y="1819" on="0"/>
        <pt x="-316" y="1771" on="0"/>
        <pt x="-249" y="1682" on="0"/>
        <pt x="-249" y="1635" on="1"/>
        <pt x="-249" y="1587" on="0"/>
        <pt x="-314" y="1499" on="0"/>
        <pt x="-434" y="1450" on="0"/>
        <pt x="-499" y="1450" on="1"/>
        <pt x="-563" y="1450" on="0"/>
        <pt x="-683" y="1499" on="0"/>
        <pt x="-749" y="1587" on="0"/>
        <pt x="-749" y="1635" on="1"/>
        <pt x="-749" y="1682" on="0"/>
        <pt x="-681" y="1771" on="0"/>
        <pt x="-561" y="1819" on="0"/>
      </contour>
      <contour>
        <pt x="-623" y="1840" on="1"/>
        <pt x="-623" y="1944" on="1"/>
        <pt x="-757" y="1944" on="1"/>
        <pt x="-757" y="2041" on="1"/>
        <pt x="-623" y="2041" on="1"/>
        <pt x="-623" y="2145" on="1"/>
        <pt x="-390" y="2145" on="1"/>
        <pt x="-390" y="2041" on="1"/>
        <pt x="-257" y="2041" on="1"/>
        <pt x="-257" y="1944" on="1"/>
        <pt x="-390" y="1944" on="1"/>
        <pt x="-390" y="1840" on="1"/>
      </contour>
    </TTGlyph>
    <TTGlyph name="#10" xMin="-449" yMin="1433" xMax="449" yMax="1772">
      <contour>
        <pt x="-448" y="1553" on="1"/>
        <pt x="-449" y="1560" on="0"/>
        <pt x="-449" y="1568" on="1"/>
        <pt x="-449" y="1733" on="0"/>
        <pt x="-72" y="1768" on="1"/>
        <pt x="-25" y="1772" on="0"/>
        <pt x="18" y="1772" on="1"/>
        <pt x="351" y="1772" on="0"/>
        <pt x="449" y="1511" on="1"/>
        <pt x="173" y="1485" on="1"/>
        <pt x="134" y="1693" on="0"/>
        <pt x="-37" y="1693" on="1"/>
        <pt x="-50" y="1693" on="0"/>
        <pt x="-65" y="1692" on="1"/>
        <pt x="-121" y="1687" on="0"/>
        <pt x="-151" y="1641" on="1"/>
        <pt x="-151" y="1640" on="0"/>
        <pt x="-150" y="1638" on="1"/>
        <pt x="-128" y="1618" on="0"/>
        <pt x="-124" y="1583" on="1"/>
        <pt x="-124" y="1573" on="1"/>
        <pt x="-124" y="1543" on="0"/>
        <pt x="-139" y="1515" on="1"/>
        <pt x="-157" y="1481" on="0"/>
        <pt x="-238" y="1438" on="0"/>
        <pt x="-278" y="1434" on="1"/>
        <pt x="-287" y="1433" on="0"/>
        <pt x="-296" y="1433" on="1"/>
        <pt x="-327" y="1433" on="0"/>
        <pt x="-357" y="1444" on="1"/>
        <pt x="-396" y="1458" on="0"/>
        <pt x="-445" y="1518" on="0"/>
      </contour>
      <contour>
        <pt x="-265" y="1514" on="1"/>
        <pt x="-253" y="1515" on="0"/>
        <pt x="-233" y="1532" on="0"/>
        <pt x="-228" y="1546" on="1"/>
        <pt x="-225" y="1557" on="0"/>
        <pt x="-225" y="1569" on="1"/>
        <pt x="-225" y="1574" on="1"/>
        <pt x="-226" y="1588" on="0"/>
        <pt x="-240" y="1613" on="0"/>
        <pt x="-251" y="1620" on="1"/>
        <pt x="-261" y="1625" on="0"/>
        <pt x="-272" y="1625" on="1"/>
        <pt x="-275" y="1625" on="1"/>
        <pt x="-286" y="1624" on="0"/>
        <pt x="-306" y="1607" on="0"/>
        <pt x="-311" y="1593" on="1"/>
        <pt x="-315" y="1581" on="0"/>
        <pt x="-315" y="1570" on="1"/>
        <pt x="-315" y="1565" on="1"/>
        <pt x="-313" y="1551" on="0"/>
        <pt x="-298" y="1526" on="0"/>
        <pt x="-287" y="1520" on="1"/>
        <pt x="-277" y="1514" on="0"/>
        <pt x="-268" y="1514" on="1"/>
      </contour>
    </TTGlyph>
    <TTGlyph name="#11" xMin="32" yMin="-600" xMax="792" yMax="1300">
      <contour>
        <pt x="198" y="1040" on="1"/>
        <pt x="198" y="966" on="0"/>
        <pt x="273" y="966" on="1"/>
        <pt x="349" y="966" on="0"/>
        <pt x="349" y="1041" on="1"/>
        <pt x="349" y="1117" on="0"/>
        <pt x="273" y="1117" on="1"/>
        <pt x="198" y="1117" on="0"/>
      </contour>
      <contour>
        <pt x="504" y="920" on="1"/>
        <pt x="504" y="1137" on="0"/>
        <pt x="413" y="1163" on="1"/>
        <pt x="464" y="1117" on="0"/>
        <pt x="464" y="1040" on="1"/>
        <pt x="464" y="850" on="0"/>
        <pt x="272" y="850" on="1"/>
        <pt x="82" y="850" on="0"/>
        <pt x="82" y="1040" on="1"/>
        <pt x="82" y="1300" on="0"/>
        <pt x="437" y="1300" on="1"/>
        <pt x="792" y="1300" on="0"/>
        <pt x="792" y="920" on="1"/>
        <pt x="792" y="180" on="1"/>
        <pt x="792" y="-10" on="0"/>
        <pt x="599" y="-220" on="0"/>
        <pt x="420" y="-220" on="1"/>
        <pt x="191" y="-220" on="0"/>
        <pt x="32" y="-16" on="1"/>
        <pt x="191" y="-116" on="0"/>
        <pt x="330" y="-116" on="1"/>
        <pt x="413" y="-116" on="0"/>
        <pt x="504" y="68" on="0"/>
        <pt x="504" y="180" on="1"/>
      </contour>
      <contour>
        <pt x="438" y="-321" on="0"/>
        <pt x="425" y="-330" on="0"/>
        <pt x="417" y="-346" on="0"/>
        <pt x="417" y="-356" on="1"/>
        <pt x="417" y="-365" on="0"/>
        <pt x="425" y="-381" on="0"/>
        <pt x="437" y="-391" on="0"/>
        <pt x="444" y="-391" on="1"/>
        <pt x="451" y="-391" on="0"/>
        <pt x="464" y="-381" on="0"/>
        <pt x="470" y="-365" on="0"/>
        <pt x="470" y="-356" on="1"/>
        <pt x="470" y="-346" on="0"/>
        <pt x="464" y="-330" on="0"/>
        <pt x="451" y="-321" on="0"/>
        <pt x="444" y="-321" on="1"/>
      </contour>
      <contour>
        <pt x="439" y="-469" on="1"/>
        <pt x="415" y="-466" on="0"/>
        <pt x="393" y="-455" on="1"/>
        <pt x="362" y="-440" on="0"/>
        <pt x="329" y="-386" on="0"/>
        <pt x="329" y="-356" on="1"/>
        <pt x="329" y="-325" on="0"/>
        <pt x="364" y="-270" on="0"/>
        <pt x="424" y="-241" on="0"/>
        <pt x="456" y="-241" on="1"/>
        <pt x="538" y="-241" on="0"/>
        <pt x="598" y="-270" on="0"/>
        <pt x="632" y="-325" on="0"/>
        <pt x="632" y="-356" on="1"/>
        <pt x="632" y="-550" on="0"/>
        <pt x="447" y="-600" on="1"/>
        <pt x="342" y="-530" on="1"/>
        <pt x="409" y="-520" on="0"/>
      </contour>
    </TTGlyph>
    <TTGlyph name="#12" xMin="32" yMin="-602" xMax="792" yMax="1300">
      <contour>
        <pt x="198" y="1040" on="1"/>
        <pt x="198" y="966" on="0"/>
        <pt x="273" y="966" on="1"/>
        <pt x="349" y="966" on="0"/>
        <pt x="349" y="1041" on="1"/>
        <pt x="349" y="1117" on="0"/>
        <pt x="273" y="1117" on="1"/>
        <pt x="198" y="1117" on="0"/>
      </contour>
      <contour>
        <pt x="504" y="920" on="1"/>
        <pt x="504" y="1137" on="0"/>
        <pt x="413" y="1163" on="1"/>
        <pt x="464" y="1117" on="0"/>
        <pt x="464" y="1040" on="1"/>
        <pt x="464" y="850" on="0"/>
        <pt x="272" y="850" on="1"/>
        <pt x="82" y="850" on="0"/>
        <pt x="82" y="1040" on="1"/>
        <pt x="82" y="1300" on="0"/>
        <pt x="437" y="1300" on="1"/>
        <pt x="792" y="1300" on="0"/>
        <pt x="792" y="920" on="1"/>
        <pt x="792" y="180" on="1"/>
        <pt x="792" y="-10" on="0"/>
        <pt x="599" y="-220" on="0"/>
        <pt x="420" y="-220" on="1"/>
        <pt x="191" y="-220" on="0"/>
        <pt x="32" y="-16" on="1"/>
        <pt x="191" y="-116" on="0"/>
        <pt x="330" y="-116" on="1"/>
        <pt x="413" y="-116" on="0"/>
        <pt x="504" y="68" on="0"/>
        <pt x="504" y="180" on="1"/>
      </contour>
      <contour>
        <pt x="301" y="-324" on="0"/>
        <pt x="291" y="-341" on="0"/>
        <pt x="291" y="-351" on="1"/>
        <pt x="291" y="-361" on="0"/>
        <pt x="301" y="-377" on="0"/>
        <pt x="318" y="-387" on="0"/>
        <pt x="348" y="-389" on="1"/>
        <pt x="363" y="-368" on="0"/>
        <pt x="363" y="-351" on="1"/>
        <pt x="363" y="-341" on="0"/>
        <pt x="353" y="-324" on="0"/>
        <pt x="336" y="-314" on="0"/>
        <pt x="327" y="-314" on="1"/>
        <pt x="319" y="-314" on="0"/>
      </contour>
      <contour>
        <pt x="475" y="-416" on="1"/>
        <pt x="464" y="-446" on="0"/>
        <pt x="464" y="-474" on="1"/>
        <pt x="464" y="-486" on="0"/>
        <pt x="466" y="-498" on="1"/>
        <pt x="473" y="-518" on="0"/>
        <pt x="510" y="-518" on="1"/>
        <pt x="557" y="-518" on="0"/>
        <pt x="557" y="-403" on="1"/>
        <pt x="557" y="-243" on="1"/>
        <pt x="769" y="-243" on="1"/>
        <pt x="769" y="-408" on="1"/>
        <pt x="769" y="-602" on="0"/>
        <pt x="510" y="-602" on="1"/>
        <pt x="354" y="-602" on="0"/>
        <pt x="328" y="-550" on="1"/>
        <pt x="312" y="-520" on="0"/>
        <pt x="312" y="-493" on="1"/>
        <pt x="312" y="-472" on="0"/>
        <pt x="321" y="-453" on="1"/>
        <pt x="293" y="-453" on="0"/>
        <pt x="267" y="-439" on="1"/>
        <pt x="239" y="-425" on="0"/>
        <pt x="212" y="-375" on="0"/>
        <pt x="212" y="-348" on="1"/>
        <pt x="212" y="-320" on="0"/>
        <pt x="239" y="-269" on="0"/>
        <pt x="295" y="-243" on="0"/>
        <pt x="354" y="-243" on="1"/>
        <pt x="404" y="-243" on="0"/>
        <pt x="459" y="-269" on="0"/>
        <pt x="490" y="-320" on="0"/>
        <pt x="490" y="-348" on="1"/>
        <pt x="490" y="-373" on="0"/>
      </contour>
    </TTGlyph>
    <TTGlyph name="#13" xMin="-978" yMin="-600" xMax="-156" yMax="-61">
      <contour>
        <pt x="-827" y="-186" on="1"/>
        <pt x="-827" y="-191" on="1"/>
        <pt x="-827" y="-205" on="0"/>
        <pt x="-818" y="-211" on="1"/>
        <pt x="-807" y="-219" on="0"/>
        <pt x="-788" y="-220" on="1"/>
        <pt x="-770" y="-220" on="0"/>
        <pt x="-758" y="-212" on="1"/>
        <pt x="-748" y="-205" on="0"/>
        <pt x="-748" y="-194" on="1"/>
        <pt x="-748" y="-190" on="0"/>
        <pt x="-749" y="-187" on="1"/>
        <pt x="-751" y="-171" on="0"/>
        <pt x="-777" y="-151" on="1"/>
        <pt x="-802" y="-154" on="0"/>
        <pt x="-824" y="-170" on="0"/>
      </contour>
      <contour>
        <pt x="-675" y="-155" on="1"/>
        <pt x="-659" y="-183" on="0"/>
        <pt x="-659" y="-208" on="1"/>
        <pt x="-659" y="-219" on="0"/>
        <pt x="-662" y="-229" on="1"/>
        <pt x="-673" y="-262" on="0"/>
        <pt x="-735" y="-301" on="0"/>
        <pt x="-785" y="-301" on="1"/>
        <pt x="-895" y="-301" on="0"/>
        <pt x="-938" y="-269" on="1"/>
        <pt x="-978" y="-237" on="0"/>
        <pt x="-978" y="-179" on="1"/>
        <pt x="-978" y="-120" on="0"/>
        <pt x="-872" y="-61" on="0"/>
        <pt x="-740" y="-61" on="1"/>
        <pt x="-658" y="-61" on="0"/>
        <pt x="-539" y="-116" on="0"/>
        <pt x="-481" y="-183" on="0"/>
        <pt x="-446" y="-183" on="1"/>
        <pt x="-412" y="-183" on="0"/>
        <pt x="-395" y="-69" on="1"/>
        <pt x="-156" y="-69" on="1"/>
        <pt x="-194" y="-279" on="0"/>
        <pt x="-440" y="-279" on="1"/>
        <pt x="-547" y="-279" on="0"/>
        <pt x="-624" y="-161" on="0"/>
      </contour>
      <contour>
        <pt x="-612" y="-368" on="0"/>
        <pt x="-625" y="-375" on="0"/>
        <pt x="-633" y="-388" on="0"/>
        <pt x="-633" y="-397" on="1"/>
        <pt x="-633" y="-404" on="0"/>
        <pt x="-625" y="-418" on="0"/>
        <pt x="-613" y="-426" on="0"/>
        <pt x="-606" y="-426" on="1"/>
        <pt x="-599" y="-426" on="0"/>
        <pt x="-586" y="-418" on="0"/>
        <pt x="-580" y="-404" on="0"/>
        <pt x="-580" y="-397" on="1"/>
        <pt x="-580" y="-388" on="0"/>
        <pt x="-586" y="-375" on="0"/>
        <pt x="-599" y="-368" on="0"/>
        <pt x="-606" y="-368" on="1"/>
      </contour>
      <contour>
        <pt x="-611" y="-491" on="1"/>
        <pt x="-635" y="-488" on="0"/>
        <pt x="-657" y="-479" on="1"/>
        <pt x="-688" y="-467" on="0"/>
        <pt x="-721" y="-422" on="0"/>
        <pt x="-721" y="-397" on="1"/>
        <pt x="-721" y="-371" on="0"/>
        <pt x="-686" y="-325" on="0"/>
        <pt x="-626" y="-301" on="0"/>
        <pt x="-594" y="-301" on="1"/>
        <pt x="-512" y="-301" on="0"/>
        <pt x="-452" y="-325" on="0"/>
        <pt x="-418" y="-371" on="0"/>
        <pt x="-418" y="-397" on="1"/>
        <pt x="-418" y="-558" on="0"/>
        <pt x="-603" y="-600" on="1"/>
        <pt x="-708" y="-542" on="1"/>
        <pt x="-641" y="-533" on="0"/>
      </contour>
    </TTGlyph>
    <TTGlyph name="#14" xMin="-978" yMin="-602" xMax="-156" yMax="-61">
      <contour>
        <pt x="-827" y="-186" on="1"/>
        <pt x="-827" y="-191" on="1"/>
        <pt x="-827" y="-205" on="0"/>
        <pt x="-818" y="-211" on="1"/>
        <pt x="-807" y="-219" on="0"/>
        <pt x="-788" y="-220" on="1"/>
        <pt x="-770" y="-220" on="0"/>
        <pt x="-758" y="-212" on="1"/>
        <pt x="-748" y="-205" on="0"/>
        <pt x="-748" y="-194" on="1"/>
        <pt x="-748" y="-190" on="0"/>
        <pt x="-749" y="-187" on="1"/>
        <pt x="-751" y="-171" on="0"/>
        <pt x="-777" y="-151" on="1"/>
        <pt x="-802" y="-154" on="0"/>
        <pt x="-824" y="-170" on="0"/>
      </contour>
      <contour>
        <pt x="-675" y="-155" on="1"/>
        <pt x="-659" y="-183" on="0"/>
        <pt x="-659" y="-208" on="1"/>
        <pt x="-659" y="-219" on="0"/>
        <pt x="-662" y="-229" on="1"/>
        <pt x="-673" y="-262" on="0"/>
        <pt x="-735" y="-301" on="0"/>
        <pt x="-785" y="-301" on="1"/>
        <pt x="-895" y="-301" on="0"/>
        <pt x="-938" y="-269" on="1"/>
        <pt x="-978" y="-237" on="0"/>
        <pt x="-978" y="-179" on="1"/>
        <pt x="-978" y="-120" on="0"/>
        <pt x="-872" y="-61" on="0"/>
        <pt x="-740" y="-61" on="1"/>
        <pt x="-658" y="-61" on="0"/>
        <pt x="-539" y="-116" on="0"/>
        <pt x="-481" y="-183" on="0"/>
        <pt x="-446" y="-183" on="1"/>
        <pt x="-412" y="-183" on="0"/>
        <pt x="-395" y="-69" on="1"/>
        <pt x="-156" y="-69" on="1"/>
        <pt x="-194" y="-279" on="0"/>
        <pt x="-440" y="-279" on="1"/>
        <pt x="-547" y="-279" on="0"/>
        <pt x="-624" y="-161" on="0"/>
      </contour>
      <contour>
        <pt x="-749" y="-375" on="0"/>
        <pt x="-759" y="-389" on="0"/>
        <pt x="-759" y="-397" on="1"/>
        <pt x="-759" y="-405" on="0"/>
        <pt x="-749" y="-418" on="0"/>
        <pt x="-732" y="-427" on="0"/>
        <pt x="-702" y="-428" on="1"/>
        <pt x="-687" y="-411" on="0"/>
        <pt x="-687" y="-397" on="1"/>
        <pt x="-687" y="-389" on="0"/>
        <pt x="-697" y="-375" on="0"/>
        <pt x="-714" y="-367" on="0"/>
        <pt x="-723" y="-367" on="1"/>
        <pt x="-731" y="-367" on="0"/>
      </contour>
      <contour>
        <pt x="-575" y="-450" on="1"/>
        <pt x="-586" y="-475" on="0"/>
        <pt x="-586" y="-498" on="1"/>
        <pt x="-586" y="-507" on="0"/>
        <pt x="-584" y="-517" on="1"/>
        <pt x="-577" y="-533" on="0"/>
        <pt x="-540" y="-533" on="1"/>
        <pt x="-493" y="-533" on="0"/>
        <pt x="-493" y="-440" on="1"/>
        <pt x="-493" y="-309" on="1"/>
        <pt x="-281" y="-309" on="1"/>
        <pt x="-281" y="-444" on="1"/>
        <pt x="-281" y="-602" on="0"/>
        <pt x="-540" y="-602" on="1"/>
        <pt x="-696" y="-602" on="0"/>
        <pt x="-722" y="-560" on="1"/>
        <pt x="-738" y="-535" on="0"/>
        <pt x="-738" y="-513" on="1"/>
        <pt x="-738" y="-496" on="0"/>
        <pt x="-729" y="-480" on="1"/>
        <pt x="-757" y="-480" on="0"/>
        <pt x="-783" y="-469" on="1"/>
        <pt x="-811" y="-458" on="0"/>
        <pt x="-838" y="-417" on="0"/>
        <pt x="-838" y="-395" on="1"/>
        <pt x="-838" y="-372" on="0"/>
        <pt x="-811" y="-330" on="0"/>
        <pt x="-755" y="-309" on="0"/>
        <pt x="-696" y="-309" on="1"/>
        <pt x="-646" y="-309" on="0"/>
        <pt x="-591" y="-330" on="0"/>
        <pt x="-560" y="-372" on="0"/>
        <pt x="-560" y="-395" on="1"/>
        <pt x="-560" y="-415" on="0"/>
      </contour>
    </TTGlyph>
    <TTGlyph name="#15" xMin="-129" yMin="1610" xMax="115" yMax="1910">
      <contour>
        <pt x="-129" y="1910" on="1"/>
        <pt x="115" y="1910" on="1"/>
        <pt x="115" y="1610" on="1"/>
        <pt x="-129" y="1610" on="1"/>
      </contour>
    </TTGlyph>
    <TTGlyph name="#16" xMin="-400" yMin="1600" xMax="319" yMax="1890">
      <contour>
        <pt x="-157" y="1780" on="1"/>
        <pt x="-150" y="1793" on="0"/>
        <pt x="-150" y="1802" on="1"/>
        <pt x="-150" y="1808" on="0"/>
        <pt x="-153" y="1813" on="1"/>
        <pt x="-165" y="1831" on="0"/>
        <pt x="-187" y="1831" on="1"/>
        <pt x="-196" y="1831" on="1"/>
        <pt x="-215" y="1826" on="0"/>
        <pt x="-216" y="1805" on="1"/>
        <pt x="-217" y="1804" on="0"/>
        <pt x="-217" y="1803" on="1"/>
        <pt x="-217" y="1784" on="0"/>
        <pt x="-201" y="1781" on="1"/>
        <pt x="-187" y="1779" on="0"/>
        <pt x="-172" y="1779" on="1"/>
        <pt x="-165" y="1779" on="0"/>
      </contour>
      <contour>
        <pt x="-312" y="1734" on="0"/>
        <pt x="-342" y="1752" on="1"/>
        <pt x="-374" y="1772" on="0"/>
        <pt x="-374" y="1805" on="1"/>
        <pt x="-374" y="1812" on="1"/>
        <pt x="-370" y="1850" on="0"/>
        <pt x="-326" y="1873" on="1"/>
        <pt x="-290" y="1890" on="0"/>
        <pt x="-193" y="1890" on="1"/>
        <pt x="-183" y="1890" on="0"/>
        <pt x="-172" y="1889" on="1"/>
        <pt x="-51" y="1884" on="0"/>
        <pt x="-29" y="1855" on="1"/>
        <pt x="-9" y="1828" on="0"/>
        <pt x="-9" y="1789" on="1"/>
        <pt x="-9" y="1782" on="1"/>
        <pt x="-11" y="1738" on="0"/>
        <pt x="-88" y="1677" on="1"/>
        <pt x="-10" y="1685" on="0"/>
        <pt x="98" y="1783" on="0"/>
        <pt x="139" y="1865" on="1"/>
        <pt x="319" y="1822" on="1"/>
        <pt x="258" y="1734" on="0"/>
        <pt x="136" y="1653" on="0"/>
        <pt x="-46" y="1600" on="0"/>
        <pt x="-186" y="1600" on="1"/>
        <pt x="-400" y="1600" on="1"/>
        <pt x="-400" y="1665" on="1"/>
        <pt x="-264" y="1685" on="0"/>
        <pt x="-210" y="1729" on="1"/>
      </contour>
    </TTGlyph>
    <TTGlyph name="#17" xMin="-403" yMin="1590" xMax="550" yMax="1890">
      <contour>
        <pt x="-215" y="1592" on="0"/>
        <pt x="-223" y="1590" on="1"/>
        <pt x="-319" y="1618" on="0"/>
        <pt x="-403" y="1693" on="0"/>
        <pt x="-403" y="1740" on="1"/>
        <pt x="-403" y="1775" on="0"/>
        <pt x="-354" y="1829" on="0"/>
        <pt x="-301" y="1868" on="0"/>
        <pt x="-229" y="1890" on="0"/>
        <pt x="-177" y="1890" on="1"/>
        <pt x="-150" y="1890" on="0"/>
        <pt x="-92" y="1874" on="0"/>
        <pt x="-18" y="1826" on="0"/>
        <pt x="-3" y="1815" on="1"/>
        <pt x="35" y="1836" on="0"/>
        <pt x="113" y="1883" on="0"/>
        <pt x="172" y="1890" on="1"/>
        <pt x="219" y="1890" on="0"/>
        <pt x="302" y="1864" on="0"/>
        <pt x="349" y="1826" on="0"/>
        <pt x="362" y="1807" on="1"/>
        <pt x="373" y="1790" on="0"/>
        <pt x="373" y="1766" on="1"/>
        <pt x="373" y="1760" on="1"/>
        <pt x="408" y="1794" on="0"/>
        <pt x="428" y="1837" on="0"/>
        <pt x="445" y="1880" on="1"/>
        <pt x="486" y="1879" on="0"/>
        <pt x="532" y="1859" on="0"/>
        <pt x="549" y="1839" on="1"/>
        <pt x="550" y="1835" on="0"/>
        <pt x="550" y="1831" on="1"/>
        <pt x="550" y="1788" on="0"/>
        <pt x="522" y="1753" on="1"/>
        <pt x="491" y="1713" on="0"/>
        <pt x="402" y="1659" on="0"/>
        <pt x="287" y="1606" on="0"/>
        <pt x="222" y="1596" on="1"/>
        <pt x="216" y="1597" on="0"/>
        <pt x="211" y="1598" on="1"/>
        <pt x="153" y="1653" on="1"/>
        <pt x="188" y="1668" on="0"/>
        <pt x="223" y="1715" on="0"/>
        <pt x="224" y="1737" on="1"/>
        <pt x="214" y="1761" on="0"/>
        <pt x="189" y="1806" on="0"/>
        <pt x="167" y="1806" on="1"/>
        <pt x="164" y="1806" on="1"/>
        <pt x="133" y="1804" on="0"/>
        <pt x="20" y="1699" on="0"/>
        <pt x="-6" y="1699" on="1"/>
        <pt x="-30" y="1699" on="0"/>
        <pt x="-143" y="1802" on="0"/>
        <pt x="-180" y="1803" on="1"/>
        <pt x="-202" y="1803" on="0"/>
        <pt x="-229" y="1754" on="0"/>
        <pt x="-229" y="1727" on="1"/>
        <pt x="-229" y="1706" on="0"/>
        <pt x="-189" y="1665" on="0"/>
        <pt x="-161" y="1654" on="1"/>
        <pt x="-207" y="1594" on="1"/>
      </contour>
    </TTGlyph>
    <TTGlyph name="#18" xMin="-247" yMin="1590" xMax="253" yMax="1895">
      <contour>
        <pt x="-113" y="1590" on="1"/>
        <pt x="-113" y="1694" on="1"/>
        <pt x="-247" y="1694" on="1"/>
        <pt x="-247" y="1791" on="1"/>
        <pt x="-113" y="1791" on="1"/>
        <pt x="-113" y="1895" on="1"/>
        <pt x="120" y="1895" on="1"/>
        <pt x="120" y="1791" on="1"/>
        <pt x="253" y="1791" on="1"/>
        <pt x="253" y="1694" on="1"/>
        <pt x="120" y="1694" on="1"/>
        <pt x="120" y="1590" on="1"/>
      </contour>
    </TTGlyph>
    <TTGlyph name="#19" xMin="-769" yMin="1450" xMax="-525" yMax="1750">
      <contour>
        <pt x="-769" y="1750" on="1"/>
        <pt x="-525" y="1750" on="1"/>
        <pt x="-525" y="1450" on="1"/>
        <pt x="-769" y="1450" on="1"/>
      </contour>
    </TTGlyph>
    <TTGlyph name="#2" xMin="-824" yMin="1450" xMax="10" yMax="2150">
      <contour>
        <pt x="-511" y="1708" on="0"/>
        <pt x="-535" y="1689" on="0"/>
        <pt x="-549" y="1654" on="0"/>
        <pt x="-549" y="1635" on="1"/>
        <pt x="-549" y="1615" on="0"/>
        <pt x="-535" y="1580" on="0"/>
        <pt x="-511" y="1561" on="0"/>
        <pt x="-499" y="1561" on="1"/>
        <pt x="-486" y="1561" on="0"/>
        <pt x="-462" y="1580" on="0"/>
        <pt x="-449" y="1615" on="0"/>
        <pt x="-449" y="1635" on="1"/>
        <pt x="-449" y="1654" on="0"/>
        <pt x="-462" y="1689" on="0"/>
        <pt x="-486" y="1708" on="0"/>
        <pt x="-499" y="1708" on="1"/>
      </contour>
      <contour>
        <pt x="-499" y="1819" on="1"/>
        <pt x="-435" y="1819" on="0"/>
        <pt x="-316" y="1771" on="0"/>
        <pt x="-249" y="1682" on="0"/>
        <pt x="-249" y="1635" on="1"/>
        <pt x="-249" y="1587" on="0"/>
        <pt x="-314" y="1499" on="0"/>
        <pt x="-434" y="1450" on="0"/>
        <pt x="-499" y="1450" on="1"/>
        <pt x="-563" y="1450" on="0"/>
        <pt x="-683" y="1499" on="0"/>
        <pt x="-749" y="1587" on="0"/>
        <pt x="-749" y="1635" on="1"/>
        <pt x="-749" y="1682" on="0"/>
        <pt x="-681" y="1771" on="0"/>
        <pt x="-561" y="1819" on="0"/>
      </contour>
      <contour>
        <pt x="-659" y="1852" on="0"/>
        <pt x="-666" y="1850" on="1"/>
        <pt x="-750" y="1878" on="0"/>
        <pt x="-824" y="1953" on="0"/>
        <pt x="-824" y="2000" on="1"/>
        <pt x="-824" y="2035" on="0"/>
        <pt x="-781" y="2089" on="0"/>
        <pt x="-735" y="2128" on="0"/>
        <pt x="-672" y="2150" on="0"/>
        <pt x="-626" y="2150" on="1"/>
        <pt x="-603" y="2150" on="0"/>
        <pt x="-552" y="2134" on="0"/>
        <pt x="-487" y="2086" on="0"/>
        <pt x="-474" y="2075" on="1"/>
        <pt x="-441" y="2096" on="0"/>
        <pt x="-372" y="2143" on="0"/>
        <pt x="-321" y="2150" on="1"/>
        <pt x="-280" y="2150" on="0"/>
        <pt x="-207" y="2124" on="0"/>
        <pt x="-166" y="2086" on="0"/>
        <pt x="-155" y="2067" on="1"/>
        <pt x="-145" y="2050" on="0"/>
        <pt x="-145" y="2026" on="1"/>
        <pt x="-145" y="2020" on="1"/>
        <pt x="-114" y="2054" on="0"/>
        <pt x="-97" y="2097" on="0"/>
        <pt x="-82" y="2140" on="1"/>
        <pt x="-46" y="2139" on="0"/>
        <pt x="-6" y="2119" on="0"/>
        <pt x="9" y="2099" on="1"/>
        <pt x="10" y="2095" on="0"/>
        <pt x="10" y="2091" on="1"/>
        <pt x="10" y="2048" on="0"/>
        <pt x="-15" y="2013" on="1"/>
        <pt x="-42" y="1973" on="0"/>
        <pt x="-120" y="1919" on="0"/>
        <pt x="-220" y="1866" on="0"/>
        <pt x="-277" y="1856" on="1"/>
        <pt x="-282" y="1857" on="0"/>
        <pt x="-287" y="1858" on="1"/>
        <pt x="-337" y="1913" on="1"/>
        <pt x="-307" y="1928" on="0"/>
        <pt x="-276" y="1975" on="0"/>
        <pt x="-275" y="1997" on="1"/>
        <pt x="-284" y="2021" on="0"/>
        <pt x="-306" y="2066" on="0"/>
        <pt x="-325" y="2066" on="1"/>
        <pt x="-328" y="2066" on="1"/>
        <pt x="-355" y="2064" on="0"/>
        <pt x="-454" y="1959" on="0"/>
        <pt x="-477" y="1959" on="1"/>
        <pt x="-498" y="1959" on="0"/>
        <pt x="-596" y="2062" on="0"/>
        <pt x="-629" y="2063" on="1"/>
        <pt x="-648" y="2063" on="0"/>
        <pt x="-672" y="2014" on="0"/>
        <pt x="-672" y="1987" on="1"/>
        <pt x="-672" y="1966" on="0"/>
        <pt x="-637" y="1925" on="0"/>
        <pt x="-612" y="1914" on="1"/>
        <pt x="-652" y="1854" on="1"/>
      </contour>
    </TTGlyph>
    <TTGlyph name="#20" xMin="-910" yMin="1450" xMax="-191" yMax="1740">
      <contour>
        <pt x="-667" y="1630" on="1"/>
        <pt x="-660" y="1643" on="0"/>
        <pt x="-660" y="1652" on="1"/>
        <pt x="-660" y="1658" on="0"/>
        <pt x="-663" y="1663" on="1"/>
        <pt x="-675" y="1681" on="0"/>
        <pt x="-697" y="1681" on="1"/>
        <pt x="-706" y="1681" on="1"/>
        <pt x="-725" y="1676" on="0"/>
        <pt x="-726" y="1655" on="1"/>
        <pt x="-727" y="1654" on="0"/>
        <pt x="-727" y="1653" on="1"/>
        <pt x="-727" y="1634" on="0"/>
        <pt x="-711" y="1631" on="1"/>
        <pt x="-697" y="1629" on="0"/>
        <pt x="-682" y="1629" on="1"/>
        <pt x="-675" y="1629" on="0"/>
      </contour>
      <contour>
        <pt x="-822" y="1584" on="0"/>
        <pt x="-852" y="1602" on="1"/>
        <pt x="-884" y="1622" on="0"/>
        <pt x="-884" y="1655" on="1"/>
        <pt x="-884" y="1662" on="1"/>
        <pt x="-880" y="1700" on="0"/>
        <pt x="-836" y="1723" on="1"/>
        <pt x="-800" y="1740" on="0"/>
        <pt x="-703" y="1740" on="1"/>
        <pt x="-693" y="1740" on="0"/>
        <pt x="-682" y="1739" on="1"/>
        <pt x="-561" y="1734" on="0"/>
        <pt x="-539" y="1705" on="1"/>
        <pt x="-519" y="1678" on="0"/>
        <pt x="-519" y="1639" on="1"/>
        <pt x="-519" y="1632" on="1"/>
        <pt x="-521" y="1588" on="0"/>
        <pt x="-598" y="1527" on="1"/>
        <pt x="-520" y="1535" on="0"/>
        <pt x="-412" y="1633" on="0"/>
        <pt x="-371" y="1715" on="1"/>
        <pt x="-191" y="1672" on="1"/>
        <pt x="-252" y="1584" on="0"/>
        <pt x="-374" y="1503" on="0"/>
        <pt x="-556" y="1450" on="0"/>
        <pt x="-696" y="1450" on="1"/>
        <pt x="-910" y="1450" on="1"/>
        <pt x="-910" y="1515" on="1"/>
        <pt x="-774" y="1535" on="0"/>
        <pt x="-720" y="1579" on="1"/>
      </contour>
    </TTGlyph>
    <TTGlyph name="#21" xMin="-943" yMin="1450" xMax="10" yMax="1750">
      <contour>
        <pt x="-755" y="1452" on="0"/>
        <pt x="-763" y="1450" on="1"/>
        <pt x="-859" y="1478" on="0"/>
        <pt x="-943" y="1553" on="0"/>
        <pt x="-943" y="1600" on="1"/>
        <pt x="-943" y="1635" on="0"/>
        <pt x="-894" y="1689" on="0"/>
        <pt x="-841" y="1728" on="0"/>
        <pt x="-769" y="1750" on="0"/>
        <pt x="-717" y="1750" on="1"/>
        <pt x="-690" y="1750" on="0"/>
        <pt x="-632" y="1734" on="0"/>
        <pt x="-558" y="1686" on="0"/>
        <pt x="-543" y="1675" on="1"/>
        <pt x="-505" y="1696" on="0"/>
        <pt x="-427" y="1743" on="0"/>
        <pt x="-368" y="1750" on="1"/>
        <pt x="-321" y="1750" on="0"/>
        <pt x="-238" y="1724" on="0"/>
        <pt x="-191" y="1686" on="0"/>
        <pt x="-178" y="1667" on="1"/>
        <pt x="-167" y="1650" on="0"/>
        <pt x="-167" y="1626" on="1"/>
        <pt x="-167" y="1620" on="1"/>
        <pt x="-132" y="1654" on="0"/>
        <pt x="-112" y="1697" on="0"/>
        <pt x="-95" y="1740" on="1"/>
        <pt x="-54" y="1739" on="0"/>
        <pt x="-8" y="1719" on="0"/>
        <pt x="9" y="1699" on="1"/>
        <pt x="10" y="1695" on="0"/>
        <pt x="10" y="1691" on="1"/>
        <pt x="10" y="1648" on="0"/>
        <pt x="-18" y="1613" on="1"/>
        <pt x="-49" y="1573" on="0"/>
        <pt x="-138" y="1519" on="0"/>
        <pt x="-253" y="1466" on="0"/>
        <pt x="-318" y="1456" on="1"/>
        <pt x="-324" y="1457" on="0"/>
        <pt x="-329" y="1458" on="1"/>
        <pt x="-387" y="1513" on="1"/>
        <pt x="-352" y="1528" on="0"/>
        <pt x="-317" y="1575" on="0"/>
        <pt x="-316" y="1597" on="1"/>
        <pt x="-326" y="1621" on="0"/>
        <pt x="-351" y="1666" on="0"/>
        <pt x="-373" y="1666" on="1"/>
        <pt x="-376" y="1666" on="1"/>
        <pt x="-407" y="1664" on="0"/>
        <pt x="-520" y="1559" on="0"/>
        <pt x="-546" y="1559" on="1"/>
        <pt x="-570" y="1559" on="0"/>
        <pt x="-683" y="1662" on="0"/>
        <pt x="-720" y="1663" on="1"/>
        <pt x="-742" y="1663" on="0"/>
        <pt x="-769" y="1614" on="0"/>
        <pt x="-769" y="1587" on="1"/>
        <pt x="-769" y="1566" on="0"/>
        <pt x="-729" y="1525" on="0"/>
        <pt x="-701" y="1514" on="1"/>
        <pt x="-747" y="1454" on="1"/>
      </contour>
    </TTGlyph>
    <TTGlyph name="#22" xMin="-757" yMin="1450" xMax="-257" yMax="1755">
      <contour>
        <pt x="-623" y="1450" on="1"/>
        <pt x="-623" y="1554" on="1"/>
        <pt x="-757" y="1554" on="1"/>
        <pt x="-757" y="1651" on="1"/>
        <pt x="-623" y="1651" on="1"/>
        <pt x="-623" y="1755" on="1"/>
        <pt x="-390" y="1755" on="1"/>
        <pt x="-390" y="1651" on="1"/>
        <pt x="-257" y="1651" on="1"/>
        <pt x="-257" y="1554" on="1"/>
        <pt x="-390" y="1554" on="1"/>
        <pt x="-390" y="1450" on="1"/>
      </contour>
    </TTGlyph>
    <TTGlyph name="#23" xMin="-558" yMin="-600" xMax="264" yMax="-61">
      <contour>
        <pt x="-407" y="-186" on="1"/>
        <pt x="-407" y="-191" on="1"/>
        <pt x="-407" y="-205" on="0"/>
        <pt x="-398" y="-211" on="1"/>
        <pt x="-387" y="-219" on="0"/>
        <pt x="-368" y="-220" on="1"/>
        <pt x="-350" y="-220" on="0"/>
        <pt x="-338" y="-212" on="1"/>
        <pt x="-328" y="-205" on="0"/>
        <pt x="-328" y="-194" on="1"/>
        <pt x="-328" y="-190" on="0"/>
        <pt x="-329" y="-187" on="1"/>
        <pt x="-331" y="-171" on="0"/>
        <pt x="-357" y="-151" on="1"/>
        <pt x="-382" y="-154" on="0"/>
        <pt x="-404" y="-170" on="0"/>
      </contour>
      <contour>
        <pt x="-255" y="-155" on="1"/>
        <pt x="-239" y="-183" on="0"/>
        <pt x="-239" y="-208" on="1"/>
        <pt x="-239" y="-219" on="0"/>
        <pt x="-242" y="-229" on="1"/>
        <pt x="-253" y="-262" on="0"/>
        <pt x="-315" y="-301" on="0"/>
        <pt x="-365" y="-301" on="1"/>
        <pt x="-475" y="-301" on="0"/>
        <pt x="-518" y="-269" on="1"/>
        <pt x="-558" y="-237" on="0"/>
        <pt x="-558" y="-179" on="1"/>
        <pt x="-558" y="-120" on="0"/>
        <pt x="-452" y="-61" on="0"/>
        <pt x="-320" y="-61" on="1"/>
        <pt x="-238" y="-61" on="0"/>
        <pt x="-119" y="-116" on="0"/>
        <pt x="-61" y="-183" on="0"/>
        <pt x="-26" y="-183" on="1"/>
        <pt x="8" y="-183" on="0"/>
        <pt x="25" y="-69" on="1"/>
        <pt x="264" y="-69" on="1"/>
        <pt x="226" y="-279" on="0"/>
        <pt x="-20" y="-279" on="1"/>
        <pt x="-127" y="-279" on="0"/>
        <pt x="-204" y="-161" on="0"/>
      </contour>
      <contour>
        <pt x="-192" y="-368" on="0"/>
        <pt x="-205" y="-375" on="0"/>
        <pt x="-213" y="-388" on="0"/>
        <pt x="-213" y="-397" on="1"/>
        <pt x="-213" y="-404" on="0"/>
        <pt x="-205" y="-418" on="0"/>
        <pt x="-193" y="-426" on="0"/>
        <pt x="-186" y="-426" on="1"/>
        <pt x="-179" y="-426" on="0"/>
        <pt x="-166" y="-418" on="0"/>
        <pt x="-160" y="-404" on="0"/>
        <pt x="-160" y="-397" on="1"/>
        <pt x="-160" y="-388" on="0"/>
        <pt x="-166" y="-375" on="0"/>
        <pt x="-179" y="-368" on="0"/>
        <pt x="-186" y="-368" on="1"/>
      </contour>
      <contour>
        <pt x="-191" y="-491" on="1"/>
        <pt x="-215" y="-488" on="0"/>
        <pt x="-237" y="-479" on="1"/>
        <pt x="-268" y="-467" on="0"/>
        <pt x="-301" y="-422" on="0"/>
        <pt x="-301" y="-397" on="1"/>
        <pt x="-301" y="-371" on="0"/>
        <pt x="-266" y="-325" on="0"/>
        <pt x="-206" y="-301" on="0"/>
        <pt x="-174" y="-301" on="1"/>
        <pt x="-92" y="-301" on="0"/>
        <pt x="-32" y="-325" on="0"/>
        <pt x="2" y="-371" on="0"/>
        <pt x="2" y="-397" on="1"/>
        <pt x="2" y="-558" on="0"/>
        <pt x="-183" y="-600" on="1"/>
        <pt x="-288" y="-542" on="1"/>
        <pt x="-221" y="-533" on="0"/>
      </contour>
    </TTGlyph>
    <TTGlyph name="#24" xMin="-508" yMin="-602" xMax="314" yMax="-61">
      <contour>
        <pt x="-357" y="-186" on="1"/>
        <pt x="-357" y="-191" on="1"/>
        <pt x="-357" y="-205" on="0"/>
        <pt x="-348" y="-211" on="1"/>
        <pt x="-337" y="-219" on="0"/>
        <pt x="-318" y="-220" on="1"/>
        <pt x="-300" y="-220" on="0"/>
        <pt x="-288" y="-212" on="1"/>
        <pt x="-278" y="-205" on="0"/>
        <pt x="-278" y="-194" on="1"/>
        <pt x="-278" y="-190" on="0"/>
        <pt x="-279" y="-187" on="1"/>
        <pt x="-281" y="-171" on="0"/>
        <pt x="-307" y="-151" on="1"/>
        <pt x="-332" y="-154" on="0"/>
        <pt x="-354" y="-170" on="0"/>
      </contour>
      <contour>
        <pt x="-205" y="-155" on="1"/>
        <pt x="-189" y="-183" on="0"/>
        <pt x="-189" y="-208" on="1"/>
        <pt x="-189" y="-219" on="0"/>
        <pt x="-192" y="-229" on="1"/>
        <pt x="-203" y="-262" on="0"/>
        <pt x="-265" y="-301" on="0"/>
        <pt x="-315" y="-301" on="1"/>
        <pt x="-425" y="-301" on="0"/>
        <pt x="-468" y="-269" on="1"/>
        <pt x="-508" y="-237" on="0"/>
        <pt x="-508" y="-179" on="1"/>
        <pt x="-508" y="-120" on="0"/>
        <pt x="-402" y="-61" on="0"/>
        <pt x="-270" y="-61" on="1"/>
        <pt x="-188" y="-61" on="0"/>
        <pt x="-69" y="-116" on="0"/>
        <pt x="-11" y="-183" on="0"/>
        <pt x="24" y="-183" on="1"/>
        <pt x="58" y="-183" on="0"/>
        <pt x="75" y="-69" on="1"/>
        <pt x="314" y="-69" on="1"/>
        <pt x="276" y="-279" on="0"/>
        <pt x="30" y="-279" on="1"/>
        <pt x="-77" y="-279" on="0"/>
        <pt x="-154" y="-161" on="0"/>
      </contour>
      <contour>
        <pt x="-279" y="-375" on="0"/>
        <pt x="-289" y="-389" on="0"/>
        <pt x="-289" y="-397" on="1"/>
        <pt x="-289" y="-405" on="0"/>
        <pt x="-279" y="-418" on="0"/>
        <pt x="-262" y="-427" on="0"/>
        <pt x="-232" y="-428" on="1"/>
        <pt x="-217" y="-411" on="0"/>
        <pt x="-217" y="-397" on="1"/>
        <pt x="-217" y="-389" on="0"/>
        <pt x="-227" y="-375" on="0"/>
        <pt x="-244" y="-367" on="0"/>
        <pt x="-253" y="-367" on="1"/>
        <pt x="-261" y="-367" on="0"/>
      </contour>
      <contour>
        <pt x="-105" y="-450" on="1"/>
        <pt x="-116" y="-475" on="0"/>
        <pt x="-116" y="-498" on="1"/>
        <pt x="-116" y="-507" on="0"/>
        <pt x="-114" y="-517" on="1"/>
        <pt x="-107" y="-533" on="0"/>
        <pt x="-70" y="-533" on="1"/>
        <pt x="-23" y="-533" on="0"/>
        <pt x="-23" y="-440" on="1"/>
        <pt x="-23" y="-309" on="1"/>
        <pt x="189" y="-309" on="1"/>
        <pt x="189" y="-444" on="1"/>
        <pt x="189" y="-602" on="0"/>
        <pt x="-70" y="-602" on="1"/>
        <pt x="-226" y="-602" on="0"/>
        <pt x="-252" y="-560" on="1"/>
        <pt x="-268" y="-535" on="0"/>
        <pt x="-268" y="-513" on="1"/>
        <pt x="-268" y="-496" on="0"/>
        <pt x="-259" y="-480" on="1"/>
        <pt x="-287" y="-480" on="0"/>
        <pt x="-313" y="-469" on="1"/>
        <pt x="-341" y="-458" on="0"/>
        <pt x="-368" y="-417" on="0"/>
        <pt x="-368" y="-395" on="1"/>
        <pt x="-368" y="-372" on="0"/>
        <pt x="-341" y="-330" on="0"/>
        <pt x="-285" y="-309" on="0"/>
        <pt x="-226" y="-309" on="1"/>
        <pt x="-176" y="-309" on="0"/>
        <pt x="-121" y="-330" on="0"/>
        <pt x="-90" y="-372" on="0"/>
        <pt x="-90" y="-395" on="1"/>
        <pt x="-90" y="-415" on="0"/>
      </contour>
    </TTGlyph>
    <TTGlyph name="#25" xMin="82" yMin="0" xMax="1576" yMax="1300">
      <contour>
        <pt x="198" y="191" on="1"/>
        <pt x="198" y="116" on="0"/>
        <pt x="273" y="116" on="1"/>
        <pt x="349" y="116" on="0"/>
        <pt x="349" y="191" on="1"/>
        <pt x="349" y="267" on="0"/>
        <pt x="273" y="267" on="1"/>
        <pt x="198" y="267" on="0"/>
      </contour>
      <contour>
        <pt x="833" y="651" on="0"/>
        <pt x="821" y="624" on="0"/>
        <pt x="821" y="610" on="1"/>
        <pt x="821" y="596" on="0"/>
        <pt x="833" y="569" on="0"/>
        <pt x="855" y="554" on="0"/>
        <pt x="866" y="554" on="1"/>
        <pt x="878" y="554" on="0"/>
        <pt x="899" y="569" on="0"/>
        <pt x="911" y="596" on="0"/>
        <pt x="911" y="610" on="1"/>
        <pt x="911" y="624" on="0"/>
        <pt x="899" y="651" on="0"/>
        <pt x="878" y="666" on="0"/>
        <pt x="866" y="666" on="1"/>
        <pt x="855" y="666" on="0"/>
      </contour>
      <contour>
        <pt x="290" y="1045" on="1"/>
        <pt x="290" y="1068" on="1"/>
        <pt x="290" y="1186" on="0"/>
        <pt x="244" y="1186" on="1"/>
        <pt x="198" y="1186" on="0"/>
        <pt x="198" y="1115" on="1"/>
        <pt x="198" y="1044" on="0"/>
        <pt x="261" y="1044" on="1"/>
        <pt x="276" y="1044" on="0"/>
      </contour>
      <contour>
        <pt x="1040" y="514" on="1"/>
        <pt x="1040" y="950" on="1"/>
        <pt x="1040" y="1039" on="0"/>
        <pt x="968" y="1190" on="0"/>
        <pt x="846" y="1190" on="1"/>
        <pt x="708" y="1190" on="0"/>
        <pt x="611" y="1033" on="1"/>
        <pt x="578" y="985" on="1"/>
        <pt x="578" y="260" on="1"/>
        <pt x="578" y="123" on="0"/>
        <pt x="507" y="58" on="1"/>
        <pt x="444" y="0" on="0"/>
        <pt x="273" y="0" on="1"/>
        <pt x="171" y="0" on="0"/>
        <pt x="124" y="54" on="1"/>
        <pt x="82" y="102" on="0"/>
        <pt x="82" y="191" on="1"/>
        <pt x="82" y="281" on="0"/>
        <pt x="124" y="328" on="1"/>
        <pt x="172" y="382" on="0"/>
        <pt x="223" y="382" on="1"/>
        <pt x="260" y="382" on="0"/>
        <pt x="290" y="375" on="1"/>
        <pt x="290" y="930" on="1"/>
        <pt x="263" y="930" on="1"/>
        <pt x="189" y="930" on="0"/>
        <pt x="132" y="983" on="1"/>
        <pt x="82" y="1029" on="0"/>
        <pt x="82" y="1115" on="1"/>
        <pt x="82" y="1209" on="0"/>
        <pt x="131" y="1255" on="1"/>
        <pt x="179" y="1300" on="0"/>
        <pt x="273" y="1300" on="1"/>
        <pt x="525" y="1300" on="0"/>
        <pt x="567" y="1159" on="1"/>
        <pt x="678" y="1300" on="0"/>
        <pt x="896" y="1300" on="1"/>
        <pt x="1113" y="1300" on="0"/>
        <pt x="1328" y="1124" on="0"/>
        <pt x="1328" y="950" on="1"/>
        <pt x="1328" y="735" on="1"/>
        <pt x="1576" y="735" on="1"/>
        <pt x="1522" y="537" on="0"/>
        <pt x="1328" y="468" on="1"/>
        <pt x="1328" y="200" on="1"/>
        <pt x="1328" y="105" on="0"/>
        <pt x="1278" y="0" on="1"/>
        <pt x="990" y="0" on="1"/>
        <pt x="1040" y="75" on="0"/>
        <pt x="1040" y="200" on="1"/>
        <pt x="1040" y="432" on="1"/>
        <pt x="687" y="441" on="0"/>
        <pt x="687" y="610" on="1"/>
        <pt x="687" y="645" on="0"/>
        <pt x="730" y="709" on="0"/>
        <pt x="805" y="744" on="0"/>
        <pt x="845" y="744" on="1"/>
        <pt x="885" y="744" on="0"/>
        <pt x="970" y="709" on="0"/>
        <pt x="1012" y="645" on="0"/>
        <pt x="1012" y="610" on="1"/>
        <pt x="1012" y="575" on="0"/>
        <pt x="992" y="553" on="1"/>
        <pt x="991" y="551" on="0"/>
        <pt x="991" y="550" on="1"/>
        <pt x="1011" y="524" on="0"/>
      </contour>
    </TTGlyph>
    <TTGlyph name="#26" xMin="97" yMin="0" xMax="1492" yMax="1300">
      <contour>
        <pt x="457" y="1184" on="1"/>
        <pt x="426" y="1184" on="0"/>
        <pt x="408" y="1172" on="1"/>
        <pt x="381" y="1154" on="0"/>
        <pt x="381" y="1109" on="1"/>
        <pt x="381" y="1033" on="0"/>
        <pt x="457" y="1033" on="1"/>
        <pt x="496" y="1033" on="0"/>
        <pt x="515" y="1054" on="1"/>
        <pt x="532" y="1073" on="0"/>
        <pt x="532" y="1109" on="1"/>
        <pt x="532" y="1150" on="0"/>
        <pt x="510" y="1169" on="1"/>
        <pt x="491" y="1184" on="0"/>
      </contour>
      <contour>
        <pt x="749" y="701" on="0"/>
        <pt x="737" y="674" on="0"/>
        <pt x="737" y="660" on="1"/>
        <pt x="737" y="646" on="0"/>
        <pt x="749" y="619" on="0"/>
        <pt x="771" y="604" on="0"/>
        <pt x="782" y="604" on="1"/>
        <pt x="794" y="604" on="0"/>
        <pt x="815" y="619" on="0"/>
        <pt x="827" y="646" on="0"/>
        <pt x="827" y="660" on="1"/>
        <pt x="827" y="674" on="0"/>
        <pt x="815" y="701" on="0"/>
        <pt x="794" y="716" on="0"/>
        <pt x="782" y="716" on="1"/>
        <pt x="771" y="716" on="0"/>
      </contour>
      <contour>
        <pt x="1247" y="519" on="1"/>
        <pt x="1247" y="380" on="1"/>
        <pt x="1247" y="187" on="0"/>
        <pt x="1117" y="92" on="1"/>
        <pt x="993" y="0" on="0"/>
        <pt x="668" y="0" on="1"/>
        <pt x="342" y="0" on="0"/>
        <pt x="217" y="83" on="1"/>
        <pt x="97" y="163" on="0"/>
        <pt x="97" y="350" on="1"/>
        <pt x="97" y="574" on="0"/>
        <pt x="310" y="640" on="1"/>
        <pt x="97" y="713" on="0"/>
        <pt x="97" y="870" on="1"/>
        <pt x="97" y="1005" on="1"/>
        <pt x="97" y="1177" on="0"/>
        <pt x="202" y="1248" on="1"/>
        <pt x="277" y="1300" on="0"/>
        <pt x="457" y="1300" on="1"/>
        <pt x="552" y="1300" on="0"/>
        <pt x="599" y="1253" on="1"/>
        <pt x="647" y="1205" on="0"/>
        <pt x="647" y="1110" on="1"/>
        <pt x="647" y="1014" on="0"/>
        <pt x="600" y="966" on="1"/>
        <pt x="552" y="918" on="0"/>
        <pt x="477" y="918" on="1"/>
        <pt x="431" y="918" on="0"/>
        <pt x="385" y="948" on="1"/>
        <pt x="385" y="870" on="1"/>
        <pt x="385" y="704" on="0"/>
        <pt x="547" y="704" on="1"/>
        <pt x="612" y="704" on="1"/>
        <pt x="617" y="716" on="0"/>
        <pt x="625" y="727" on="1"/>
        <pt x="646" y="759" on="0"/>
        <pt x="721" y="794" on="0"/>
        <pt x="761" y="794" on="1"/>
        <pt x="801" y="794" on="0"/>
        <pt x="886" y="759" on="0"/>
        <pt x="928" y="695" on="0"/>
        <pt x="928" y="660" on="1"/>
        <pt x="928" y="625" on="0"/>
        <pt x="908" y="603" on="1"/>
        <pt x="907" y="601" on="0"/>
        <pt x="907" y="600" on="1"/>
        <pt x="929" y="573" on="0"/>
        <pt x="959" y="563" on="1"/>
        <pt x="959" y="1100" on="1"/>
        <pt x="959" y="1195" on="0"/>
        <pt x="1009" y="1300" on="1"/>
        <pt x="1297" y="1300" on="1"/>
        <pt x="1247" y="1225" on="0"/>
        <pt x="1247" y="1100" on="1"/>
        <pt x="1247" y="785" on="1"/>
        <pt x="1492" y="785" on="1"/>
        <pt x="1438" y="588" on="0"/>
      </contour>
      <contour>
        <pt x="627" y="583" on="1"/>
        <pt x="627" y="570" on="1"/>
        <pt x="547" y="570" on="1"/>
        <pt x="385" y="570" on="0"/>
        <pt x="385" y="350" on="1"/>
        <pt x="385" y="229" on="0"/>
        <pt x="508" y="110" on="0"/>
        <pt x="668" y="110" on="1"/>
        <pt x="848" y="110" on="0"/>
        <pt x="959" y="253" on="0"/>
        <pt x="959" y="380" on="1"/>
        <pt x="959" y="481" on="1"/>
        <pt x="695" y="488" on="0"/>
      </contour>
    </TTGlyph>
    <TTGlyph name="#3" xMin="-151" yMin="-511" xMax="152" yMax="-61">
      <contour>
        <pt x="-42" y="-161" on="0"/>
        <pt x="-55" y="-173" on="0"/>
        <pt x="-63" y="-193" on="0"/>
        <pt x="-63" y="-205" on="1"/>
        <pt x="-63" y="-216" on="0"/>
        <pt x="-55" y="-236" on="0"/>
        <pt x="-43" y="-249" on="0"/>
        <pt x="-36" y="-249" on="1"/>
        <pt x="-29" y="-249" on="0"/>
        <pt x="-16" y="-236" on="0"/>
        <pt x="-10" y="-216" on="0"/>
        <pt x="-10" y="-205" on="1"/>
        <pt x="-10" y="-193" on="0"/>
        <pt x="-16" y="-173" on="0"/>
        <pt x="-29" y="-161" on="0"/>
        <pt x="-36" y="-161" on="1"/>
      </contour>
      <contour>
        <pt x="-41" y="-347" on="1"/>
        <pt x="-65" y="-343" on="0"/>
        <pt x="-87" y="-329" on="1"/>
        <pt x="-118" y="-310" on="0"/>
        <pt x="-151" y="-243" on="0"/>
        <pt x="-151" y="-205" on="1"/>
        <pt x="-151" y="-166" on="0"/>
        <pt x="-116" y="-97" on="0"/>
        <pt x="-56" y="-61" on="0"/>
        <pt x="-24" y="-61" on="1"/>
        <pt x="58" y="-61" on="0"/>
        <pt x="118" y="-97" on="0"/>
        <pt x="152" y="-166" on="0"/>
        <pt x="152" y="-205" on="1"/>
        <pt x="152" y="-448" on="0"/>
        <pt x="-33" y="-511" on="1"/>
        <pt x="-138" y="-423" on="1"/>
        <pt x="-71" y="-411" on="0"/>
      </contour>
    </TTGlyph>
    <TTGlyph name="#4" xMin="-308" yMin="-511" xMax="249" yMax="-61">
      <contour>
        <pt x="-219" y="-163" on="0"/>
        <pt x="-229" y="-184" on="0"/>
        <pt x="-229" y="-196" on="1"/>
        <pt x="-229" y="-209" on="0"/>
        <pt x="-219" y="-229" on="0"/>
        <pt x="-202" y="-242" on="0"/>
        <pt x="-172" y="-244" on="1"/>
        <pt x="-157" y="-218" on="0"/>
        <pt x="-157" y="-196" on="1"/>
        <pt x="-157" y="-184" on="0"/>
        <pt x="-167" y="-163" on="0"/>
        <pt x="-184" y="-150" on="0"/>
        <pt x="-193" y="-150" on="1"/>
        <pt x="-201" y="-150" on="0"/>
      </contour>
      <contour>
        <pt x="-45" y="-278" on="1"/>
        <pt x="-56" y="-315" on="0"/>
        <pt x="-56" y="-351" on="1"/>
        <pt x="-56" y="-366" on="0"/>
        <pt x="-54" y="-381" on="1"/>
        <pt x="-47" y="-406" on="0"/>
        <pt x="-10" y="-406" on="1"/>
        <pt x="37" y="-406" on="0"/>
        <pt x="37" y="-262" on="1"/>
        <pt x="37" y="-61" on="1"/>
        <pt x="249" y="-61" on="1"/>
        <pt x="249" y="-268" on="1"/>
        <pt x="249" y="-511" on="0"/>
        <pt x="-10" y="-511" on="1"/>
        <pt x="-166" y="-511" on="0"/>
        <pt x="-192" y="-446" on="1"/>
        <pt x="-208" y="-408" on="0"/>
        <pt x="-208" y="-374" on="1"/>
        <pt x="-208" y="-348" on="0"/>
        <pt x="-199" y="-324" on="1"/>
        <pt x="-227" y="-324" on="0"/>
        <pt x="-253" y="-307" on="1"/>
        <pt x="-281" y="-289" on="0"/>
        <pt x="-308" y="-226" on="0"/>
        <pt x="-308" y="-193" on="1"/>
        <pt x="-308" y="-158" on="0"/>
        <pt x="-281" y="-94" on="0"/>
        <pt x="-225" y="-61" on="0"/>
        <pt x="-166" y="-61" on="1"/>
        <pt x="-116" y="-61" on="0"/>
        <pt x="-61" y="-94" on="0"/>
        <pt x="-30" y="-158" on="0"/>
        <pt x="-30" y="-193" on="1"/>
        <pt x="-30" y="-224" on="0"/>
      </contour>
    </TTGlyph>
    <TTGlyph name="#5" xMin="-501" yMin="1450" xMax="501" yMax="1797">
      <contour>
        <pt x="0" y="1797" on="1"/>
        <pt x="160" y="1797" on="0"/>
        <pt x="394" y="1760" on="0"/>
        <pt x="501" y="1667" on="0"/>
        <pt x="501" y="1628" on="1"/>
        <pt x="495" y="1594" on="0"/>
        <pt x="471" y="1558" on="0"/>
        <pt x="398" y="1507" on="0"/>
        <pt x="324" y="1472" on="0"/>
        <pt x="220" y="1451" on="1"/>
        <pt x="212" y="1451" on="0"/>
        <pt x="206" y="1450" on="1"/>
        <pt x="146" y="1530" on="1"/>
        <pt x="229" y="1574" on="0"/>
        <pt x="229" y="1624" on="1"/>
        <pt x="229" y="1673" on="0"/>
        <pt x="153" y="1705" on="0"/>
        <pt x="0" y="1705" on="1"/>
        <pt x="-153" y="1705" on="0"/>
        <pt x="-229" y="1673" on="0"/>
        <pt x="-229" y="1624" on="1"/>
        <pt x="-229" y="1574" on="0"/>
        <pt x="-146" y="1530" on="1"/>
        <pt x="-206" y="1450" on="1"/>
        <pt x="-212" y="1451" on="0"/>
        <pt x="-220" y="1451" on="1"/>
        <pt x="-324" y="1472" on="0"/>
        <pt x="-398" y="1507" on="0"/>
        <pt x="-471" y="1558" on="0"/>
        <pt x="-495" y="1594" on="0"/>
        <pt x="-501" y="1628" on="1"/>
        <pt x="-501" y="1667" on="0"/>
        <pt x="-394" y="1760" on="0"/>
        <pt x="-160" y="1797" on="0"/>
      </contour>
    </TTGlyph>
    <TTGlyph name="#6" xMin="-490" yMin="1450" xMax="590" yMax="1795">
      <contour>
        <pt x="128" y="1532" on="1"/>
        <pt x="131" y="1534" on="0"/>
        <pt x="145" y="1536" on="1"/>
        <pt x="211" y="1577" on="0"/>
        <pt x="211" y="1624" on="1"/>
        <pt x="211" y="1673" on="0"/>
        <pt x="138" y="1704" on="0"/>
        <pt x="-3" y="1704" on="1"/>
        <pt x="-145" y="1704" on="0"/>
        <pt x="-218" y="1673" on="0"/>
        <pt x="-218" y="1624" on="1"/>
        <pt x="-218" y="1574" on="0"/>
        <pt x="-135" y="1530" on="1"/>
        <pt x="-195" y="1450" on="1"/>
        <pt x="-201" y="1451" on="0"/>
        <pt x="-209" y="1451" on="1"/>
        <pt x="-313" y="1472" on="0"/>
        <pt x="-387" y="1507" on="0"/>
        <pt x="-460" y="1558" on="0"/>
        <pt x="-484" y="1594" on="0"/>
        <pt x="-490" y="1628" on="1"/>
        <pt x="-490" y="1667" on="0"/>
        <pt x="-383" y="1760" on="0"/>
        <pt x="-291" y="1779" on="1"/>
        <pt x="-208" y="1795" on="0"/>
        <pt x="-3" y="1795" on="1"/>
        <pt x="201" y="1795" on="0"/>
        <pt x="284" y="1779" on="1"/>
        <pt x="376" y="1760" on="0"/>
        <pt x="483" y="1667" on="0"/>
        <pt x="483" y="1628" on="1"/>
        <pt x="477" y="1594" on="0"/>
        <pt x="465" y="1576" on="1"/>
        <pt x="457" y="1563" on="0"/>
        <pt x="436" y="1547" on="1"/>
        <pt x="590" y="1547" on="1"/>
        <pt x="590" y="1450" on="1"/>
        <pt x="128" y="1450" on="1"/>
      </contour>
    </TTGlyph>
    <TTGlyph name="#7" xMin="-501" yMin="1450" xMax="501" yMax="1797">
      <contour>
        <pt x="-1" y="1658" on="1"/>
        <pt x="24" y="1658" on="0"/>
        <pt x="68" y="1644" on="0"/>
        <pt x="93" y="1617" on="0"/>
        <pt x="93" y="1603" on="1"/>
        <pt x="93" y="1589" on="0"/>
        <pt x="69" y="1562" on="0"/>
        <pt x="25" y="1548" on="0"/>
        <pt x="-1" y="1548" on="1"/>
        <pt x="-25" y="1548" on="0"/>
        <pt x="-69" y="1562" on="0"/>
        <pt x="-94" y="1589" on="0"/>
        <pt x="-94" y="1603" on="1"/>
        <pt x="-94" y="1617" on="0"/>
        <pt x="-69" y="1644" on="0"/>
        <pt x="-24" y="1658" on="0"/>
      </contour>
      <contour>
        <pt x="0" y="1797" on="1"/>
        <pt x="160" y="1797" on="0"/>
        <pt x="394" y="1760" on="0"/>
        <pt x="501" y="1667" on="0"/>
        <pt x="501" y="1628" on="1"/>
        <pt x="495" y="1594" on="0"/>
        <pt x="471" y="1558" on="0"/>
        <pt x="398" y="1507" on="0"/>
        <pt x="324" y="1472" on="0"/>
        <pt x="220" y="1451" on="1"/>
        <pt x="212" y="1451" on="0"/>
        <pt x="206" y="1450" on="1"/>
        <pt x="146" y="1530" on="1"/>
        <pt x="229" y="1574" on="0"/>
        <pt x="229" y="1624" on="1"/>
        <pt x="229" y="1673" on="0"/>
        <pt x="153" y="1705" on="0"/>
        <pt x="0" y="1705" on="1"/>
        <pt x="-153" y="1705" on="0"/>
        <pt x="-229" y="1673" on="0"/>
        <pt x="-229" y="1624" on="1"/>
        <pt x="-229" y="1574" on="0"/>
        <pt x="-146" y="1530" on="1"/>
        <pt x="-206" y="1450" on="1"/>
        <pt x="-212" y="1451" on="0"/>
        <pt x="-220" y="1451" on="1"/>
        <pt x="-324" y="1472" on="0"/>
        <pt x="-398" y="1507" on="0"/>
        <pt x="-471" y="1558" on="0"/>
        <pt x="-495" y="1594" on="0"/>
        <pt x="-501" y="1628" on="1"/>
        <pt x="-501" y="1667" on="0"/>
        <pt x="-394" y="1760" on="0"/>
        <pt x="-160" y="1797" on="0"/>
      </contour>
    </TTGlyph>
    <TTGlyph name="#8" xMin="-490" yMin="1450" xMax="590" yMax="1795">
      <contour>
        <pt x="0" y="1658" on="1"/>
        <pt x="21" y="1658" on="0"/>
        <pt x="60" y="1644" on="0"/>
        <pt x="83" y="1618" on="0"/>
        <pt x="83" y="1605" on="1"/>
        <pt x="83" y="1592" on="0"/>
        <pt x="61" y="1565" on="0"/>
        <pt x="22" y="1551" on="0"/>
        <pt x="0" y="1551" on="1"/>
        <pt x="-22" y="1551" on="0"/>
        <pt x="-61" y="1565" on="0"/>
        <pt x="-83" y="1592" on="0"/>
        <pt x="-83" y="1605" on="1"/>
        <pt x="-83" y="1618" on="0"/>
        <pt x="-61" y="1644" on="0"/>
        <pt x="-21" y="1658" on="0"/>
      </contour>
      <contour>
        <pt x="128" y="1532" on="1"/>
        <pt x="131" y="1534" on="0"/>
        <pt x="145" y="1536" on="1"/>
        <pt x="211" y="1577" on="0"/>
        <pt x="211" y="1624" on="1"/>
        <pt x="211" y="1673" on="0"/>
        <pt x="138" y="1704" on="0"/>
        <pt x="-3" y="1704" on="1"/>
        <pt x="-145" y="1704" on="0"/>
        <pt x="-218" y="1673" on="0"/>
        <pt x="-218" y="1624" on="1"/>
        <pt x="-218" y="1574" on="0"/>
        <pt x="-135" y="1530" on="1"/>
        <pt x="-195" y="1450" on="1"/>
        <pt x="-201" y="1451" on="0"/>
        <pt x="-209" y="1451" on="1"/>
        <pt x="-313" y="1472" on="0"/>
        <pt x="-387" y="1507" on="0"/>
        <pt x="-460" y="1558" on="0"/>
        <pt x="-484" y="1594" on="0"/>
        <pt x="-490" y="1628" on="1"/>
        <pt x="-490" y="1667" on="0"/>
        <pt x="-383" y="1760" on="0"/>
        <pt x="-291" y="1779" on="1"/>
        <pt x="-208" y="1795" on="0"/>
        <pt x="-3" y="1795" on="1"/>
        <pt x="201" y="1795" on="0"/>
        <pt x="284" y="1779" on="1"/>
        <pt x="376" y="1760" on="0"/>
        <pt x="483" y="1667" on="0"/>
        <pt x="483" y="1628" on="1"/>
        <pt x="477" y="1594" on="0"/>
        <pt x="465" y="1576" on="1"/>
        <pt x="457" y="1563" on="0"/>
        <pt x="436" y="1547" on="1"/>
        <pt x="590" y="1547" on="1"/>
        <pt x="590" y="1450" on="1"/>
        <pt x="128" y="1450" on="1"/>
      </contour>
    </TTGlyph>
    <TTGlyph name="#9" xMin="-444" yMin="1450" xMax="445" yMax="1763">
      <contour>
        <pt x="-444" y="1629" on="1"/>
        <pt x="-444" y="1664" on="0"/>
        <pt x="-401" y="1728" on="0"/>
        <pt x="-326" y="1763" on="0"/>
        <pt x="-286" y="1763" on="1"/>
        <pt x="-246" y="1763" on="0"/>
        <pt x="-161" y="1728" on="0"/>
        <pt x="-119" y="1664" on="0"/>
        <pt x="-119" y="1629" on="1"/>
        <pt x="-119" y="1594" on="0"/>
        <pt x="-139" y="1572" on="1"/>
        <pt x="-140" y="1570" on="0"/>
        <pt x="-140" y="1569" on="1"/>
        <pt x="-106" y="1526" on="0"/>
        <pt x="-50" y="1526" on="1"/>
        <pt x="147" y="1526" on="0"/>
        <pt x="168" y="1754" on="1"/>
        <pt x="445" y="1754" on="1"/>
        <pt x="362" y="1450" on="0"/>
        <pt x="-50" y="1450" on="1"/>
        <pt x="-444" y="1450" on="0"/>
      </contour>
      <contour>
        <pt x="-276" y="1685" on="0"/>
        <pt x="-298" y="1670" on="0"/>
        <pt x="-310" y="1643" on="0"/>
        <pt x="-310" y="1629" on="1"/>
        <pt x="-310" y="1615" on="0"/>
        <pt x="-298" y="1588" on="0"/>
        <pt x="-276" y="1573" on="0"/>
        <pt x="-265" y="1573" on="1"/>
        <pt x="-253" y="1573" on="0"/>
        <pt x="-232" y="1588" on="0"/>
        <pt x="-220" y="1615" on="0"/>
        <pt x="-220" y="1629" on="1"/>
        <pt x="-220" y="1643" on="0"/>
        <pt x="-232" y="1670" on="0"/>
        <pt x="-253" y="1685" on="0"/>
        <pt x="-265" y="1685" on="1"/>
      </contour>
    </TTGlyph>
    <TTGlyph name="ampersand" xMin="137" yMin="899" xMax="457" yMax="1462">
      <contour>
        <pt x="137" y="1462" on="1"/>
        <pt x="457" y="1462" on="1"/>
        <pt x="365" y="899" on="1"/>
        <pt x="229" y="899" on="1"/>
      </contour>
    </TTGlyph>
    <TTGlyph name="asterisk" xMin="133" yMin="293" xMax="1012" yMax="1171">
      <contour>
        <pt x="645" y="659" on="1"/>
        <pt x="645" y="293" on="1"/>
        <pt x="498" y="293" on="1"/>
        <pt x="498" y="659" on="1"/>
        <pt x="133" y="659" on="1"/>
        <pt x="133" y="805" on="1"/>
        <pt x="498" y="805" on="1"/>
        <pt x="498" y="1171" on="1"/>
        <pt x="645" y="1171" on="1"/>
        <pt x="645" y="805" on="1"/>
        <pt x="1012" y="805" on="1"/>
        <pt x="1012" y="659" on="1"/>
      </contour>
    </TTGlyph>
    <TTGlyph name="at" xMin="104" yMin="-291" xMax="1806" yMax="1462">
      <contour>
        <pt x="1806" y="803" on="1"/>
        <pt x="1806" y="650" on="0"/>
        <pt x="1732" y="410" on="0"/>
        <pt x="1612" y="245" on="0"/>
        <pt x="1461" y="158" on="0"/>
        <pt x="1384" y="158" on="1"/>
        <pt x="1293" y="158" on="0"/>
        <pt x="1167" y="247" on="0"/>
        <pt x="1133" y="350" on="1"/>
        <pt x="1120" y="350" on="1"/>
        <pt x="1099" y="310" on="0"/>
        <pt x="1045" y="240" on="0"/>
        <pt x="977" y="188" on="0"/>
        <pt x="892" y="158" on="0"/>
        <pt x="838" y="158" on="1"/>
        <pt x="774" y="158" on="0"/>
        <pt x="657" y="200" on="0"/>
        <pt x="568" y="286" on="0"/>
        <pt x="516" y="418" on="0"/>
        <pt x="516" y="508" on="1"/>
        <pt x="516" y="563" on="0"/>
        <pt x="542" y="691" on="0"/>
        <pt x="599" y="818" on="0"/>
        <pt x="686" y="937" on="0"/>
        <pt x="809" y="1028" on="0"/>
        <pt x="968" y="1083" on="0"/>
        <pt x="1067" y="1083" on="1"/>
        <pt x="1138" y="1083" on="0"/>
        <pt x="1240" y="1047" on="0"/>
        <pt x="1272" y="1022" on="1"/>
        <pt x="1358" y="1065" on="1"/>
        <pt x="1407" y="1065" on="1"/>
        <pt x="1321" y="553" on="1"/>
        <pt x="1319" y="541" on="0"/>
        <pt x="1314" y="503" on="0"/>
        <pt x="1310" y="463" on="0"/>
        <pt x="1307" y="426" on="0"/>
        <pt x="1307" y="414" on="1"/>
        <pt x="1307" y="372" on="0"/>
        <pt x="1325" y="318" on="0"/>
        <pt x="1353" y="287" on="0"/>
        <pt x="1388" y="276" on="0"/>
        <pt x="1405" y="276" on="1"/>
        <pt x="1446" y="276" on="0"/>
        <pt x="1529" y="344" on="0"/>
        <pt x="1597" y="475" on="0"/>
        <pt x="1640" y="669" on="0"/>
        <pt x="1640" y="795" on="1"/>
        <pt x="1640" y="935" on="0"/>
        <pt x="1555" y="1146" on="0"/>
        <pt x="1404" y="1287" on="0"/>
        <pt x="1195" y="1358" on="0"/>
        <pt x="1071" y="1358" on="1"/>
        <pt x="974" y="1358" on="0"/>
        <pt x="785" y="1304" on="0"/>
        <pt x="614" y="1200" on="0"/>
        <pt x="470" y="1049" on="0"/>
        <pt x="364" y="856" on="0"/>
        <pt x="305" y="622" on="0"/>
        <pt x="305" y="487" on="1"/>
        <pt x="305" y="306" on="0"/>
        <pt x="413" y="50" on="0"/>
        <pt x="598" y="-112" on="0"/>
        <pt x="845" y="-186" on="0"/>
        <pt x="983" y="-186" on="1"/>
        <pt x="1066" y="-186" on="0"/>
        <pt x="1224" y="-156" on="0"/>
        <pt x="1366" y="-108" on="0"/>
        <pt x="1488" y="-46" on="0"/>
        <pt x="1536" y="-14" on="1"/>
        <pt x="1585" y="-92" on="1"/>
        <pt x="1531" y="-133" on="0"/>
        <pt x="1394" y="-205" on="0"/>
        <pt x="1233" y="-259" on="0"/>
        <pt x="1052" y="-291" on="0"/>
        <pt x="954" y="-291" on="1"/>
        <pt x="837" y="-291" on="0"/>
        <pt x="621" y="-248" on="0"/>
        <pt x="432" y="-160" on="0"/>
        <pt x="276" y="-29" on="0"/>
        <pt x="165" y="147" on="0"/>
        <pt x="104" y="367" on="0"/>
        <pt x="104" y="500" on="1"/>
        <pt x="104" y="637" on="0"/>
        <pt x="171" y="887" on="0"/>
        <pt x="294" y="1100" on="0"/>
        <pt x="470" y="1273" on="0"/>
        <pt x="688" y="1396" on="0"/>
        <pt x="943" y="1462" on="0"/>
        <pt x="1085" y="1462" on="1"/>
        <pt x="1263" y="1462" on="0"/>
        <pt x="1533" y="1360" on="0"/>
        <pt x="1714" y="1183" on="0"/>
        <pt x="1806" y="942" on="0"/>
      </contour>
      <contour>
        <pt x="768" y="487" on="1"/>
        <pt x="768" y="385" on="0"/>
        <pt x="840" y="276" on="0"/>
        <pt x="899" y="276" on="1"/>
        <pt x="943" y="276" on="0"/>
        <pt x="1006" y="318" on="0"/>
        <pt x="1049" y="387" on="0"/>
        <pt x="1077" y="473" on="0"/>
        <pt x="1085" y="518" on="1"/>
        <pt x="1167" y="936" on="1"/>
        <pt x="1161" y="950" on="0"/>
        <pt x="1138" y="971" on="0"/>
        <pt x="1108" y="986" on="0"/>
        <pt x="1075" y="993" on="0"/>
        <pt x="1059" y="993" on="1"/>
        <pt x="1007" y="993" on="0"/>
        <pt x="924" y="941" on="0"/>
        <pt x="859" y="856" on="0"/>
        <pt x="813" y="747" on="0"/>
        <pt x="782" y="635" on="0"/>
        <pt x="768" y="528" on="0"/>
      </contour>
    </TTGlyph>
    <TTGlyph name="colon" xMin="92" yMin="-315" xMax="479" yMax="1116">
      <contour>
        <pt x="459" y="86" on="1"/>
        <pt x="459" y="21" on="0"/>
        <pt x="419" y="-101" on="0"/>
        <pt x="331" y="-205" on="0"/>
        <pt x="192" y="-288" on="0"/>
        <pt x="92" y="-315" on="1"/>
        <pt x="92" y="-209" on="1"/>
        <pt x="137" y="-193" on="0"/>
        <pt x="204" y="-161" on="0"/>
        <pt x="249" y="-124" on="0"/>
        <pt x="272" y="-79" on="0"/>
        <pt x="272" y="-49" on="1"/>
        <pt x="272" y="-30" on="0"/>
        <pt x="250" y="-5" on="0"/>
        <pt x="217" y="17" on="0"/>
        <pt x="178" y="40" on="0"/>
        <pt x="145" y="76" on="0"/>
        <pt x="123" y="129" on="0"/>
        <pt x="123" y="170" on="1"/>
        <pt x="123" y="239" on="0"/>
        <pt x="207" y="311" on="0"/>
        <pt x="270" y="311" on="1"/>
        <pt x="357" y="311" on="0"/>
        <pt x="459" y="191" on="0"/>
      </contour>
      <contour>
        <pt x="143" y="952" on="1"/>
        <pt x="143" y="999" on="0"/>
        <pt x="169" y="1062" on="0"/>
        <pt x="214" y="1100" on="0"/>
        <pt x="276" y="1116" on="0"/>
        <pt x="311" y="1116" on="1"/>
        <pt x="345" y="1116" on="0"/>
        <pt x="406" y="1100" on="0"/>
        <pt x="452" y="1062" on="0"/>
        <pt x="479" y="999" on="0"/>
        <pt x="479" y="952" on="1"/>
        <pt x="479" y="906" on="0"/>
        <pt x="452" y="843" on="0"/>
        <pt x="406" y="805" on="0"/>
        <pt x="345" y="788" on="0"/>
        <pt x="311" y="788" on="1"/>
        <pt x="276" y="788" on="0"/>
        <pt x="214" y="805" on="0"/>
        <pt x="169" y="843" on="0"/>
        <pt x="143" y="906" on="0"/>
      </contour>
    </TTGlyph>
    <TTGlyph name="comma" xMin="51" yMin="451" xMax="584" yMax="666">
      <contour>
        <pt x="51" y="451" on="1"/>
        <pt x="51" y="666" on="1"/>
        <pt x="584" y="666" on="1"/>
        <pt x="584" y="451" on="1"/>
      </contour>
    </TTGlyph>
    <TTGlyph name="dollar" xMin="70" yMin="-20" xMax="1786" yMax="1483">
      <contour>
        <pt x="807" y="1030" on="1"/>
        <pt x="807" y="927" on="0"/>
        <pt x="761" y="759" on="0"/>
        <pt x="670" y="639" on="0"/>
        <pt x="531" y="573" on="0"/>
        <pt x="438" y="573" on="1"/>
        <pt x="341" y="573" on="0"/>
        <pt x="201" y="639" on="0"/>
        <pt x="112" y="759" on="0"/>
        <pt x="70" y="927" on="0"/>
        <pt x="70" y="1030" on="1"/>
        <pt x="70" y="1133" on="0"/>
        <pt x="112" y="1300" on="0"/>
        <pt x="202" y="1419" on="0"/>
        <pt x="342" y="1483" on="0"/>
        <pt x="440" y="1483" on="1"/>
        <pt x="532" y="1483" on="0"/>
        <pt x="670" y="1419" on="0"/>
        <pt x="762" y="1300" on="0"/>
        <pt x="807" y="1133" on="0"/>
      </contour>
      <contour>
        <pt x="301" y="1030" on="1"/>
        <pt x="301" y="946" on="0"/>
        <pt x="316" y="815" on="0"/>
        <pt x="348" y="724" on="0"/>
        <pt x="401" y="676" on="0"/>
        <pt x="438" y="676" on="1"/>
        <pt x="477" y="676" on="0"/>
        <pt x="528" y="724" on="0"/>
        <pt x="560" y="815" on="0"/>
        <pt x="573" y="946" on="0"/>
        <pt x="573" y="1030" on="1"/>
        <pt x="573" y="1112" on="0"/>
        <pt x="560" y="1241" on="0"/>
        <pt x="529" y="1331" on="0"/>
        <pt x="478" y="1378" on="0"/>
        <pt x="440" y="1378" on="1"/>
        <pt x="402" y="1378" on="0"/>
        <pt x="349" y="1331" on="0"/>
        <pt x="316" y="1241" on="0"/>
        <pt x="301" y="1112" on="0"/>
      </contour>
      <contour>
        <pt x="651" y="0" on="1"/>
        <pt x="492" y="0" on="1"/>
        <pt x="1198" y="1462" on="1"/>
        <pt x="1356" y="1462" on="1"/>
      </contour>
      <contour>
        <pt x="1786" y="436" on="1"/>
        <pt x="1786" y="333" on="0"/>
        <pt x="1740" y="165" on="0"/>
        <pt x="1649" y="45" on="0"/>
        <pt x="1510" y="-20" on="0"/>
        <pt x="1417" y="-20" on="1"/>
        <pt x="1320" y="-20" on="0"/>
        <pt x="1180" y="45" on="0"/>
        <pt x="1091" y="165" on="0"/>
        <pt x="1049" y="333" on="0"/>
        <pt x="1049" y="436" on="1"/>
        <pt x="1049" y="539" on="0"/>
        <pt x="1091" y="706" on="0"/>
        <pt x="1181" y="825" on="0"/>
        <pt x="1321" y="889" on="0"/>
        <pt x="1419" y="889" on="1"/>
        <pt x="1511" y="889" on="0"/>
        <pt x="1649" y="825" on="0"/>
        <pt x="1741" y="706" on="0"/>
        <pt x="1786" y="539" on="0"/>
      </contour>
      <contour>
        <pt x="1280" y="436" on="1"/>
        <pt x="1280" y="352" on="0"/>
        <pt x="1295" y="221" on="0"/>
        <pt x="1327" y="130" on="0"/>
        <pt x="1380" y="82" on="0"/>
        <pt x="1417" y="82" on="1"/>
        <pt x="1456" y="82" on="0"/>
        <pt x="1507" y="130" on="0"/>
        <pt x="1539" y="221" on="0"/>
        <pt x="1552" y="352" on="0"/>
        <pt x="1552" y="436" on="1"/>
        <pt x="1552" y="518" on="0"/>
        <pt x="1539" y="647" on="0"/>
        <pt x="1508" y="737" on="0"/>
        <pt x="1457" y="784" on="0"/>
        <pt x="1419" y="784" on="1"/>
        <pt x="1381" y="784" on="0"/>
        <pt x="1328" y="737" on="0"/>
        <pt x="1295" y="647" on="0"/>
        <pt x="1280" y="518" on="0"/>
      </contour>
    </TTGlyph>
    <TTGlyph name="eight" xMin="72" yMin="-20" xMax="1053" yMax="1483">
      <contour>
        <pt x="465" y="-20" on="1"/>
        <pt x="372" y="-20" on="0"/>
        <pt x="244" y="19" on="0"/>
        <pt x="164" y="84" on="0"/>
        <pt x="129" y="167" on="0"/>
        <pt x="129" y="211" on="1"/>
        <pt x="129" y="256" on="0"/>
        <pt x="177" y="317" on="0"/>
        <pt x="229" y="328" on="1"/>
        <pt x="244" y="282" on="0"/>
        <pt x="286" y="202" on="0"/>
        <pt x="345" y="143" on="0"/>
        <pt x="424" y="109" on="0"/>
        <pt x="475" y="109" on="1"/>
        <pt x="613" y="109" on="0"/>
        <pt x="762" y="407" on="0"/>
        <pt x="772" y="702" on="1"/>
        <pt x="748" y="672" on="0"/>
        <pt x="689" y="622" on="0"/>
        <pt x="615" y="584" on="0"/>
        <pt x="526" y="563" on="0"/>
        <pt x="473" y="563" on="1"/>
        <pt x="385" y="563" on="0"/>
        <pt x="238" y="618" on="0"/>
        <pt x="131" y="725" on="0"/>
        <pt x="72" y="884" on="0"/>
        <pt x="72" y="987" on="1"/>
        <pt x="72" y="1098" on="0"/>
        <pt x="136" y="1280" on="0"/>
        <pt x="257" y="1411" on="0"/>
        <pt x="431" y="1483" on="0"/>
        <pt x="541" y="1483" on="1"/>
        <pt x="652" y="1483" on="0"/>
        <pt x="840" y="1403" on="0"/>
        <pt x="977" y="1235" on="0"/>
        <pt x="1053" y="975" on="0"/>
        <pt x="1053" y="795" on="1"/>
        <pt x="1053" y="626" on="0"/>
        <pt x="987" y="329" on="0"/>
        <pt x="846" y="108" on="0"/>
        <pt x="623" y="-20" on="0"/>
      </contour>
      <contour>
        <pt x="561" y="711" on="1"/>
        <pt x="635" y="711" on="0"/>
        <pt x="741" y="786" on="0"/>
        <pt x="772" y="848" on="1"/>
        <pt x="771" y="979" on="0"/>
        <pt x="738" y="1167" on="0"/>
        <pt x="681" y="1288" on="0"/>
        <pt x="601" y="1346" on="0"/>
        <pt x="553" y="1346" on="1"/>
        <pt x="465" y="1346" on="0"/>
        <pt x="369" y="1173" on="0"/>
        <pt x="369" y="999" on="1"/>
        <pt x="369" y="857" on="0"/>
        <pt x="465" y="711" on="0"/>
      </contour>
    </TTGlyph>
    <TTGlyph name="equal" xMin="129" yMin="461" xMax="1016" yMax="1001">
      <contour>
        <pt x="1016" y="604" on="1"/>
        <pt x="1016" y="461" on="1"/>
        <pt x="129" y="461" on="1"/>
        <pt x="129" y="604" on="1"/>
      </contour>
      <contour>
        <pt x="1016" y="1001" on="1"/>
        <pt x="1016" y="858" on="1"/>
        <pt x="129" y="858" on="1"/>
        <pt x="129" y="1001" on="1"/>
      </contour>
    </TTGlyph>
    <TTGlyph name="exclam" xMin="137" yMin="899" xMax="903" yMax="1462">
      <contour>
        <pt x="584" y="1462" on="1"/>
        <pt x="903" y="1462" on="1"/>
        <pt x="831" y="899" on="1"/>
        <pt x="696" y="899" on="1"/>
      </contour>
      <contour>
        <pt x="137" y="1462" on="1"/>
        <pt x="457" y="1462" on="1"/>
        <pt x="365" y="899" on="1"/>
        <pt x="229" y="899" on="1"/>
      </contour>
    </TTGlyph>
    <TTGlyph name="five" xMin="92" yMin="-20" xMax="1073" yMax="1483">
      <contour>
        <pt x="657" y="1362" on="1"/>
        <pt x="597" y="1362" on="0"/>
        <pt x="500" y="1290" on="0"/>
        <pt x="429" y="1152" on="0"/>
        <pt x="387" y="951" on="0"/>
        <pt x="381" y="821" on="1"/>
        <pt x="402" y="835" on="0"/>
        <pt x="456" y="862" on="0"/>
        <pt x="525" y="884" on="0"/>
        <pt x="612" y="897" on="0"/>
        <pt x="664" y="897" on="1"/>
        <pt x="757" y="897" on="0"/>
        <pt x="908" y="839" on="0"/>
        <pt x="1015" y="730" on="0"/>
        <pt x="1073" y="573" on="0"/>
        <pt x="1073" y="473" on="1"/>
        <pt x="1073" y="363" on="0"/>
        <pt x="1013" y="182" on="0"/>
        <pt x="894" y="52" on="0"/>
        <pt x="717" y="-20" on="0"/>
        <pt x="600" y="-20" on="1"/>
        <pt x="486" y="-20" on="0"/>
        <pt x="299" y="63" on="0"/>
        <pt x="166" y="235" on="0"/>
        <pt x="92" y="497" on="0"/>
        <pt x="92" y="676" on="1"/>
        <pt x="92" y="845" on="0"/>
        <pt x="163" y="1139" on="0"/>
        <pt x="308" y="1357" on="0"/>
        <pt x="528" y="1483" on="0"/>
        <pt x="676" y="1483" on="1"/>
        <pt x="775" y="1483" on="0"/>
        <pt x="913" y="1445" on="0"/>
        <pt x="999" y="1382" on="0"/>
        <pt x="1038" y="1301" on="0"/>
        <pt x="1038" y="1257" on="1"/>
        <pt x="1038" y="1226" on="0"/>
        <pt x="1012" y="1168" on="0"/>
        <pt x="954" y="1124" on="0"/>
        <pt x="861" y="1098" on="0"/>
        <pt x="793" y="1098" on="1"/>
        <pt x="793" y="1144" on="0"/>
        <pt x="781" y="1238" on="0"/>
        <pt x="751" y="1314" on="0"/>
        <pt x="698" y="1362" on="0"/>
      </contour>
      <contour>
        <pt x="588" y="772" on="1"/>
        <pt x="560" y="772" on="0"/>
        <pt x="498" y="755" on="0"/>
        <pt x="441" y="727" on="0"/>
        <pt x="394" y="692" on="0"/>
        <pt x="381" y="674" on="1"/>
        <pt x="382" y="527" on="0"/>
        <pt x="417" y="315" on="0"/>
        <pt x="478" y="179" on="0"/>
        <pt x="559" y="115" on="0"/>
        <pt x="606" y="115" on="1"/>
        <pt x="685" y="115" on="0"/>
        <pt x="776" y="276" on="0"/>
        <pt x="776" y="453" on="1"/>
        <pt x="776" y="619" on="0"/>
        <pt x="676" y="772" on="0"/>
      </contour>
    </TTGlyph>
    <TTGlyph name="four" xMin="82" yMin="-20" xMax="1036" yMax="1462">
      <contour>
        <pt x="471" y="123" on="1"/>
        <pt x="522" y="123" on="0"/>
        <pt x="613" y="155" on="0"/>
        <pt x="682" y="230" on="0"/>
        <pt x="723" y="357" on="0"/>
        <pt x="723" y="451" on="1"/>
        <pt x="723" y="604" on="0"/>
        <pt x="577" y="754" on="0"/>
        <pt x="444" y="754" on="1"/>
        <pt x="405" y="754" on="0"/>
        <pt x="342" y="748" on="0"/>
        <pt x="288" y="737" on="0"/>
        <pt x="240" y="724" on="0"/>
        <pt x="217" y="717" on="1"/>
        <pt x="123" y="754" on="1"/>
        <pt x="188" y="1462" on="1"/>
        <pt x="963" y="1462" on="1"/>
        <pt x="973" y="1090" on="1"/>
        <pt x="856" y="1090" on="1"/>
        <pt x="840" y="1159" on="1"/>
        <pt x="835" y="1177" on="0"/>
        <pt x="823" y="1206" on="0"/>
        <pt x="802" y="1226" on="0"/>
        <pt x="770" y="1237" on="0"/>
        <pt x="745" y="1237" on="1"/>
        <pt x="319" y="1237" on="1"/>
        <pt x="319" y="1236" on="0"/>
        <pt x="316" y="1203" on="0"/>
        <pt x="312" y="1149" on="0"/>
        <pt x="306" y="1081" on="0"/>
        <pt x="303" y="1046" on="1"/>
        <pt x="287" y="858" on="1"/>
        <pt x="303" y="864" on="0"/>
        <pt x="354" y="875" on="0"/>
        <pt x="414" y="884" on="0"/>
        <pt x="481" y="889" on="0"/>
        <pt x="512" y="889" on="1"/>
        <pt x="631" y="889" on="0"/>
        <pt x="824" y="834" on="0"/>
        <pt x="961" y="725" on="0"/>
        <pt x="1036" y="561" on="0"/>
        <pt x="1036" y="451" on="1"/>
        <pt x="1036" y="318" on="0"/>
        <pt x="939" y="137" on="0"/>
        <pt x="785" y="27" on="0"/>
        <pt x="595" y="-20" on="0"/>
        <pt x="502" y="-20" on="1"/>
        <pt x="387" y="-20" on="0"/>
        <pt x="227" y="21" on="0"/>
        <pt x="127" y="90" on="0"/>
        <pt x="82" y="179" on="0"/>
        <pt x="82" y="227" on="1"/>
        <pt x="82" y="299" on="0"/>
        <pt x="171" y="369" on="0"/>
        <pt x="246" y="369" on="1"/>
        <pt x="246" y="325" on="0"/>
        <pt x="269" y="237" on="0"/>
        <pt x="322" y="167" on="0"/>
        <pt x="408" y="123" on="0"/>
      </contour>
    </TTGlyph>
    <TTGlyph name="greater" xMin="133" yMin="213" xMax="1012" yMax="1253">
      <contour>
        <pt x="133" y="213" on="1"/>
        <pt x="133" y="375" on="1"/>
        <pt x="793" y="731" on="1"/>
        <pt x="133" y="1092" on="1"/>
        <pt x="133" y="1253" on="1"/>
        <pt x="1012" y="774" on="1"/>
        <pt x="1012" y="690" on="1"/>
      </contour>
    </TTGlyph>
    <TTGlyph name="hyphen" xMin="143" yMin="-16" xMax="479" yMax="311">
      <contour>
        <pt x="143" y="147" on="1"/>
        <pt x="143" y="194" on="0"/>
        <pt x="169" y="257" on="0"/>
        <pt x="214" y="295" on="0"/>
        <pt x="276" y="311" on="0"/>
        <pt x="311" y="311" on="1"/>
        <pt x="345" y="311" on="0"/>
        <pt x="406" y="295" on="0"/>
        <pt x="452" y="257" on="0"/>
        <pt x="479" y="194" on="0"/>
        <pt x="479" y="147" on="1"/>
        <pt x="479" y="101" on="0"/>
        <pt x="452" y="39" on="0"/>
        <pt x="406" y="1" on="0"/>
        <pt x="345" y="-16" on="0"/>
        <pt x="311" y="-16" on="1"/>
        <pt x="276" y="-16" on="0"/>
        <pt x="214" y="1" on="0"/>
        <pt x="169" y="39" on="0"/>
        <pt x="143" y="101" on="0"/>
      </contour>
    </TTGlyph>
    <TTGlyph name="less" xMin="133" yMin="213" xMax="1012" yMax="1253">
      <contour>
        <pt x="133" y="690" on="1"/>
        <pt x="133" y="774" on="1"/>
        <pt x="1012" y="1253" on="1"/>
        <pt x="1012" y="1092" on="1"/>
        <pt x="352" y="731" on="1"/>
        <pt x="1012" y="375" on="1"/>
        <pt x="1012" y="213" on="1"/>
      </contour>
    </TTGlyph>
    <TTGlyph name="nine" xMin="143" yMin="-16" xMax="479" yMax="1116">
      <contour>
        <pt x="143" y="147" on="1"/>
        <pt x="143" y="194" on="0"/>
        <pt x="169" y="257" on="0"/>
        <pt x="214" y="295" on="0"/>
        <pt x="276" y="311" on="0"/>
        <pt x="311" y="311" on="1"/>
        <pt x="345" y="311" on="0"/>
        <pt x="406" y="295" on="0"/>
        <pt x="452" y="257" on="0"/>
        <pt x="479" y="194" on="0"/>
        <pt x="479" y="147" on="1"/>
        <pt x="479" y="101" on="0"/>
        <pt x="452" y="39" on="0"/>
        <pt x="406" y="1" on="0"/>
        <pt x="345" y="-16" on="0"/>
        <pt x="311" y="-16" on="1"/>
        <pt x="276" y="-16" on="0"/>
        <pt x="214" y="1" on="0"/>
        <pt x="169" y="39" on="0"/>
        <pt x="143" y="101" on="0"/>
      </contour>
      <contour>
        <pt x="143" y="952" on="1"/>
        <pt x="143" y="999" on="0"/>
        <pt x="169" y="1062" on="0"/>
        <pt x="214" y="1100" on="0"/>
        <pt x="276" y="1116" on="0"/>
        <pt x="311" y="1116" on="1"/>
        <pt x="345" y="1116" on="0"/>
        <pt x="406" y="1100" on="0"/>
        <pt x="452" y="1062" on="0"/>
        <pt x="479" y="999" on="0"/>
        <pt x="479" y="952" on="1"/>
        <pt x="479" y="906" on="0"/>
        <pt x="452" y="843" on="0"/>
        <pt x="406" y="805" on="0"/>
        <pt x="345" y="788" on="0"/>
        <pt x="311" y="788" on="1"/>
        <pt x="276" y="788" on="0"/>
        <pt x="214" y="805" on="0"/>
        <pt x="169" y="843" on="0"/>
        <pt x="143" y="906" on="0"/>
      </contour>
    </TTGlyph>
    <TTGlyph name="numbersign" xMin="100" yMin="-162" xMax="1042" yMax="1556">
      <contour>
        <pt x="639" y="1556" on="1"/>
        <pt x="639" y="1401" on="1"/>
        <pt x="730" y="1398" on="0"/>
        <pt x="862" y="1364" on="0"/>
        <pt x="948" y="1309" on="0"/>
        <pt x="989" y="1237" on="0"/>
        <pt x="989" y="1196" on="1"/>
        <pt x="989" y="1131" on="0"/>
        <pt x="877" y="1047" on="0"/>
        <pt x="764" y="1047" on="1"/>
        <pt x="764" y="1077" on="0"/>
        <pt x="750" y="1147" on="0"/>
        <pt x="720" y="1212" on="0"/>
        <pt x="673" y="1265" on="0"/>
        <pt x="639" y="1280" on="1"/>
        <pt x="639" y="881" on="1"/>
        <pt x="645" y="878" on="0"/>
        <pt x="679" y="865" on="0"/>
        <pt x="690" y="860" on="1"/>
        <pt x="784" y="823" on="0"/>
        <pt x="918" y="745" on="0"/>
        <pt x="1003" y="653" on="0"/>
        <pt x="1042" y="546" on="0"/>
        <pt x="1042" y="481" on="1"/>
        <pt x="1042" y="403" on="0"/>
        <pt x="987" y="270" on="0"/>
        <pt x="884" y="168" on="0"/>
        <pt x="734" y="103" on="0"/>
        <pt x="639" y="92" on="1"/>
        <pt x="639" y="-162" on="1"/>
        <pt x="524" y="-162" on="1"/>
        <pt x="524" y="88" on="1"/>
        <pt x="407" y="91" on="0"/>
        <pt x="245" y="145" on="0"/>
        <pt x="144" y="227" on="0"/>
        <pt x="100" y="327" on="0"/>
        <pt x="100" y="375" on="1"/>
        <pt x="100" y="420" on="0"/>
        <pt x="133" y="482" on="0"/>
        <pt x="187" y="521" on="0"/>
        <pt x="256" y="539" on="0"/>
        <pt x="293" y="539" on="1"/>
        <pt x="293" y="462" on="0"/>
        <pt x="326" y="342" on="0"/>
        <pt x="387" y="257" on="0"/>
        <pt x="472" y="205" on="0"/>
        <pt x="524" y="197" on="1"/>
        <pt x="524" y="639" on="1"/>
        <pt x="489" y="653" on="1"/>
        <pt x="391" y="693" on="0"/>
        <pt x="260" y="775" on="0"/>
        <pt x="179" y="868" on="0"/>
        <pt x="145" y="976" on="0"/>
        <pt x="145" y="1042" on="1"/>
        <pt x="145" y="1116" on="0"/>
        <pt x="201" y="1239" on="0"/>
        <pt x="301" y="1331" on="0"/>
        <pt x="440" y="1390" on="0"/>
        <pt x="524" y="1399" on="1"/>
        <pt x="524" y="1556" on="1"/>
      </contour>
      <contour>
        <pt x="799" y="389" on="1"/>
        <pt x="799" y="454" on="0"/>
        <pt x="719" y="546" on="0"/>
        <pt x="639" y="588" on="1"/>
        <pt x="639" y="201" on="1"/>
        <pt x="716" y="218" on="0"/>
        <pt x="799" y="320" on="0"/>
      </contour>
      <contour>
        <pt x="385" y="1128" on="1"/>
        <pt x="385" y="1101" on="0"/>
        <pt x="397" y="1051" on="0"/>
        <pt x="429" y="1004" on="0"/>
        <pt x="483" y="959" on="0"/>
        <pt x="524" y="936" on="1"/>
        <pt x="524" y="1290" on="1"/>
        <pt x="464" y="1279" on="0"/>
        <pt x="385" y="1198" on="0"/>
      </contour>
    </TTGlyph>
    <TTGlyph name="one" xMin="72" yMin="0" xMax="1051" yMax="1483">
      <contour>
        <pt x="999" y="1143" on="1"/>
        <pt x="999" y="1095" on="0"/>
        <pt x="978" y="1005" on="0"/>
        <pt x="929" y="909" on="0"/>
        <pt x="849" y="802" on="0"/>
        <pt x="731" y="673" on="0"/>
        <pt x="574" y="517" on="0"/>
        <pt x="471" y="420" on="1"/>
        <pt x="266" y="225" on="1"/>
        <pt x="743" y="225" on="1"/>
        <pt x="806" y="225" on="0"/>
        <pt x="895" y="298" on="0"/>
        <pt x="913" y="367" on="1"/>
        <pt x="930" y="430" on="1"/>
        <pt x="1051" y="430" on="1"/>
        <pt x="1040" y="0" on="1"/>
        <pt x="72" y="0" on="1"/>
        <pt x="72" y="211" on="1"/>
        <pt x="375" y="520" on="1"/>
        <pt x="470" y="617" on="0"/>
        <pt x="592" y="773" on="0"/>
        <pt x="662" y="915" on="0"/>
        <pt x="690" y="1054" on="0"/>
        <pt x="690" y="1133" on="1"/>
        <pt x="690" y="1250" on="0"/>
        <pt x="605" y="1358" on="0"/>
        <pt x="530" y="1358" on="1"/>
        <pt x="426" y="1358" on="0"/>
        <pt x="342" y="1179" on="0"/>
        <pt x="342" y="1004" on="1"/>
        <pt x="284" y="1004" on="0"/>
        <pt x="187" y="1026" on="0"/>
        <pt x="118" y="1074" on="0"/>
        <pt x="80" y="1151" on="0"/>
        <pt x="80" y="1206" on="1"/>
        <pt x="80" y="1262" on="0"/>
        <pt x="137" y="1362" on="0"/>
        <pt x="249" y="1438" on="0"/>
        <pt x="418" y="1483" on="0"/>
        <pt x="530" y="1483" on="1"/>
        <pt x="645" y="1483" on="0"/>
        <pt x="820" y="1436" on="0"/>
        <pt x="939" y="1348" on="0"/>
        <pt x="999" y="1222" on="0"/>
      </contour>
    </TTGlyph>
    <TTGlyph name="parenleft" xMin="66" yMin="-285" xMax="702" yMax="1581">
      <contour>
        <pt x="373" y="651" on="1"/>
        <pt x="373" y="773" on="0"/>
        <pt x="348" y="1006" on="0"/>
        <pt x="281" y="1214" on="0"/>
        <pt x="161" y="1389" on="0"/>
        <pt x="66" y="1452" on="1"/>
        <pt x="66" y="1581" on="1"/>
        <pt x="237" y="1513" on="0"/>
        <pt x="479" y="1329" on="0"/>
        <pt x="632" y="1097" on="0"/>
        <pt x="702" y="816" on="0"/>
        <pt x="702" y="651" on="1"/>
        <pt x="702" y="485" on="0"/>
        <pt x="632" y="203" on="0"/>
        <pt x="479" y="-31" on="0"/>
        <pt x="237" y="-216" on="0"/>
        <pt x="66" y="-285" on="1"/>
        <pt x="66" y="-154" on="1"/>
        <pt x="161" y="-91" on="0"/>
        <pt x="281" y="85" on="0"/>
        <pt x="348" y="294" on="0"/>
        <pt x="373" y="529" on="0"/>
      </contour>
    </TTGlyph>
    <TTGlyph name="parenright" xMin="72" yMin="752" xMax="956" yMax="1556">
      <contour>
        <pt x="72" y="1237" on="1"/>
        <pt x="164" y="1444" on="1"/>
        <pt x="469" y="1223" on="1"/>
        <pt x="401" y="1556" on="1"/>
        <pt x="631" y="1556" on="1"/>
        <pt x="557" y="1227" on="1"/>
        <pt x="864" y="1440" on="1"/>
        <pt x="956" y="1235" on="1"/>
        <pt x="637" y="1155" on="1"/>
        <pt x="956" y="1073" on="1"/>
        <pt x="864" y="870" on="1"/>
        <pt x="557" y="1083" on="1"/>
        <pt x="629" y="752" on="1"/>
        <pt x="401" y="752" on="1"/>
        <pt x="467" y="1085" on="1"/>
        <pt x="164" y="868" on="1"/>
        <pt x="72" y="1071" on="1"/>
        <pt x="391" y="1155" on="1"/>
      </contour>
    </TTGlyph>
    <TTGlyph name="percent" xMin="96" yMin="-20" xMax="1614" yMax="1483">
      <contour>
        <pt x="1208" y="0" on="1"/>
        <pt x="1067" y="150" on="1"/>
        <pt x="1029" y="112" on="0"/>
        <pt x="936" y="50" on="0"/>
        <pt x="824" y="5" on="0"/>
        <pt x="693" y="-20" on="0"/>
        <pt x="616" y="-20" on="1"/>
        <pt x="490" y="-20" on="0"/>
        <pt x="296" y="39" on="0"/>
        <pt x="164" y="151" on="0"/>
        <pt x="96" y="313" on="0"/>
        <pt x="96" y="416" on="1"/>
        <pt x="96" y="506" on="0"/>
        <pt x="153" y="633" on="0"/>
        <pt x="249" y="726" on="0"/>
        <pt x="376" y="791" on="0"/>
        <pt x="446" y="819" on="1"/>
        <pt x="406" y="867" on="0"/>
        <pt x="347" y="954" on="0"/>
        <pt x="309" y="1040" on="0"/>
        <pt x="291" y="1130" on="0"/>
        <pt x="291" y="1182" on="1"/>
        <pt x="291" y="1250" on="0"/>
        <pt x="343" y="1360" on="0"/>
        <pt x="446" y="1440" on="0"/>
        <pt x="600" y="1483" on="0"/>
        <pt x="702" y="1483" on="1"/>
        <pt x="801" y="1483" on="0"/>
        <pt x="948" y="1437" on="0"/>
        <pt x="1045" y="1357" on="0"/>
        <pt x="1094" y="1251" on="0"/>
        <pt x="1094" y="1192" on="1"/>
        <pt x="1094" y="1130" on="0"/>
        <pt x="1056" y="1030" on="0"/>
        <pt x="979" y="945" on="0"/>
        <pt x="862" y="871" on="0"/>
        <pt x="782" y="834" on="1"/>
        <pt x="787" y="826" on="0"/>
        <pt x="797" y="819" on="1"/>
        <pt x="1087" y="514" on="1"/>
        <pt x="1100" y="585" on="0"/>
        <pt x="1108" y="724" on="0"/>
        <pt x="1108" y="782" on="1"/>
        <pt x="1108" y="872" on="1"/>
        <pt x="1556" y="872" on="1"/>
        <pt x="1556" y="764" on="1"/>
        <pt x="1524" y="764" on="1"/>
        <pt x="1490" y="764" on="0"/>
        <pt x="1425" y="756" on="0"/>
        <pt x="1369" y="727" on="0"/>
        <pt x="1326" y="672" on="0"/>
        <pt x="1313" y="625" on="1"/>
        <pt x="1297" y="568" on="0"/>
        <pt x="1254" y="439" on="0"/>
        <pt x="1223" y="373" on="1"/>
        <pt x="1427" y="160" on="1"/>
        <pt x="1456" y="129" on="0"/>
        <pt x="1540" y="109" on="0"/>
        <pt x="1595" y="109" on="1"/>
        <pt x="1614" y="109" on="1"/>
        <pt x="1614" y="0" on="1"/>
      </contour>
      <contour>
        <pt x="397" y="406" on="1"/>
        <pt x="397" y="345" on="0"/>
        <pt x="436" y="240" on="0"/>
        <pt x="506" y="162" on="0"/>
        <pt x="607" y="117" on="0"/>
        <pt x="668" y="117" on="1"/>
        <pt x="777" y="117" on="0"/>
        <pt x="927" y="188" on="0"/>
        <pt x="977" y="248" on="1"/>
        <pt x="539" y="715" on="1"/>
        <pt x="496" y="684" on="0"/>
        <pt x="441" y="615" on="0"/>
        <pt x="409" y="538" on="0"/>
        <pt x="397" y="453" on="0"/>
      </contour>
      <contour>
        <pt x="846" y="1190" on="1"/>
        <pt x="846" y="1226" on="0"/>
        <pt x="833" y="1288" on="0"/>
        <pt x="801" y="1334" on="0"/>
        <pt x="745" y="1360" on="0"/>
        <pt x="702" y="1360" on="1"/>
        <pt x="668" y="1360" on="0"/>
        <pt x="617" y="1334" on="0"/>
        <pt x="585" y="1288" on="0"/>
        <pt x="569" y="1225" on="0"/>
        <pt x="569" y="1188" on="1"/>
        <pt x="569" y="1153" on="0"/>
        <pt x="585" y="1089" on="0"/>
        <pt x="616" y="1026" on="0"/>
        <pt x="664" y="962" on="0"/>
        <pt x="696" y="926" on="1"/>
        <pt x="739" y="950" on="0"/>
        <pt x="797" y="1004" on="0"/>
        <pt x="831" y="1067" on="0"/>
        <pt x="846" y="1143" on="0"/>
      </contour>
    </TTGlyph>
    <TTGlyph name="period" xMin="0" yMin="-250" xMax="590" yMax="1556">
      <contour>
        <pt x="147" y="-250" on="1"/>
        <pt x="0" y="-248" on="1"/>
        <pt x="446" y="1556" on="1"/>
        <pt x="590" y="1556" on="1"/>
      </contour>
    </TTGlyph>
    <TTGlyph name="plus" xMin="92" yMin="-315" xMax="459" yMax="311">
      <contour>
        <pt x="459" y="86" on="1"/>
        <pt x="459" y="21" on="0"/>
        <pt x="419" y="-101" on="0"/>
        <pt x="331" y="-205" on="0"/>
        <pt x="192" y="-288" on="0"/>
        <pt x="92" y="-315" on="1"/>
        <pt x="92" y="-209" on="1"/>
        <pt x="137" y="-193" on="0"/>
        <pt x="204" y="-161" on="0"/>
        <pt x="249" y="-124" on="0"/>
        <pt x="272" y="-79" on="0"/>
        <pt x="272" y="-49" on="1"/>
        <pt x="272" y="-30" on="0"/>
        <pt x="250" y="-5" on="0"/>
        <pt x="217" y="17" on="0"/>
        <pt x="178" y="40" on="0"/>
        <pt x="145" y="76" on="0"/>
        <pt x="123" y="129" on="0"/>
        <pt x="123" y="170" on="1"/>
        <pt x="123" y="239" on="0"/>
        <pt x="207" y="311" on="0"/>
        <pt x="270" y="311" on="1"/>
        <pt x="357" y="311" on="0"/>
        <pt x="459" y="191" on="0"/>
      </contour>
    </TTGlyph>
    <TTGlyph name="question" xMin="76" yMin="-16" xMax="1014" yMax="1483">
      <contour>
        <pt x="1014" y="1106" on="1"/>
        <pt x="1014" y="1024" on="0"/>
        <pt x="963" y="894" on="0"/>
        <pt x="861" y="786" on="0"/>
        <pt x="708" y="695" on="0"/>
        <pt x="606" y="653" on="1"/>
        <pt x="565" y="467" on="1"/>
        <pt x="440" y="467" on="1"/>
        <pt x="399" y="719" on="1"/>
        <pt x="487" y="754" on="0"/>
        <pt x="599" y="849" on="0"/>
        <pt x="664" y="958" on="0"/>
        <pt x="688" y="1078" on="0"/>
        <pt x="688" y="1139" on="1"/>
        <pt x="688" y="1188" on="0"/>
        <pt x="670" y="1269" on="0"/>
        <pt x="631" y="1328" on="0"/>
        <pt x="570" y="1360" on="0"/>
        <pt x="528" y="1360" on="1"/>
        <pt x="482" y="1360" on="0"/>
        <pt x="420" y="1318" on="0"/>
        <pt x="382" y="1248" on="0"/>
        <pt x="365" y="1154" on="0"/>
        <pt x="365" y="1102" on="1"/>
        <pt x="302" y="1102" on="0"/>
        <pt x="196" y="1120" on="0"/>
        <pt x="119" y="1155" on="0"/>
        <pt x="76" y="1209" on="0"/>
        <pt x="76" y="1245" on="1"/>
        <pt x="76" y="1295" on="0"/>
        <pt x="128" y="1382" on="0"/>
        <pt x="235" y="1446" on="0"/>
        <pt x="399" y="1483" on="0"/>
        <pt x="512" y="1483" on="1"/>
        <pt x="620" y="1483" on="0"/>
        <pt x="804" y="1432" on="0"/>
        <pt x="938" y="1335" on="0"/>
        <pt x="1014" y="1195" on="0"/>
      </contour>
      <contour>
        <pt x="332" y="147" on="1"/>
        <pt x="332" y="194" on="0"/>
        <pt x="358" y="257" on="0"/>
        <pt x="403" y="295" on="0"/>
        <pt x="465" y="311" on="0"/>
        <pt x="500" y="311" on="1"/>
        <pt x="534" y="311" on="0"/>
        <pt x="595" y="295" on="0"/>
        <pt x="641" y="257" on="0"/>
        <pt x="668" y="194" on="0"/>
        <pt x="668" y="147" on="1"/>
        <pt x="668" y="101" on="0"/>
        <pt x="641" y="39" on="0"/>
        <pt x="595" y="1" on="0"/>
        <pt x="534" y="-16" on="0"/>
        <pt x="500" y="-16" on="1"/>
        <pt x="465" y="-16" on="0"/>
        <pt x="403" y="1" on="0"/>
        <pt x="358" y="39" on="0"/>
        <pt x="332" y="101" on="0"/>
      </contour>
    </TTGlyph>
    <TTGlyph name="quotedbl" xMin="57" yMin="0" xMax="1087" yMax="1462">
      <contour>
        <pt x="1022" y="551" on="1"/>
        <pt x="1022" y="410" on="1"/>
        <pt x="766" y="410" on="1"/>
        <pt x="690" y="0" on="1"/>
        <pt x="545" y="0" on="1"/>
        <pt x="621" y="410" on="1"/>
        <pt x="408" y="410" on="1"/>
        <pt x="330" y="0" on="1"/>
        <pt x="184" y="0" on="1"/>
        <pt x="262" y="410" on="1"/>
        <pt x="57" y="410" on="1"/>
        <pt x="57" y="551" on="1"/>
        <pt x="289" y="551" on="1"/>
        <pt x="360" y="922" on="1"/>
        <pt x="123" y="922" on="1"/>
        <pt x="123" y="1065" on="1"/>
        <pt x="387" y="1065" on="1"/>
        <pt x="459" y="1462" on="1"/>
        <pt x="606" y="1462" on="1"/>
        <pt x="532" y="1065" on="1"/>
        <pt x="745" y="1065" on="1"/>
        <pt x="821" y="1462" on="1"/>
        <pt x="967" y="1462" on="1"/>
        <pt x="891" y="1065" on="1"/>
        <pt x="1087" y="1065" on="1"/>
        <pt x="1087" y="922" on="1"/>
        <pt x="864" y="922" on="1"/>
        <pt x="795" y="551" on="1"/>
      </contour>
      <contour>
        <pt x="434" y="551" on="1"/>
        <pt x="649" y="551" on="1"/>
        <pt x="721" y="922" on="1"/>
        <pt x="506" y="922" on="1"/>
      </contour>
    </TTGlyph>
    <TTGlyph name="quotesingle" xMin="117" yMin="-285" xMax="754" yMax="1581">
      <contour>
        <pt x="446" y="651" on="1"/>
        <pt x="446" y="529" on="0"/>
        <pt x="471" y="294" on="0"/>
        <pt x="539" y="85" on="0"/>
        <pt x="659" y="-91" on="0"/>
        <pt x="754" y="-154" on="1"/>
        <pt x="754" y="-285" on="1"/>
        <pt x="583" y="-216" on="0"/>
        <pt x="341" y="-31" on="0"/>
        <pt x="188" y="203" on="0"/>
        <pt x="117" y="485" on="0"/>
        <pt x="117" y="651" on="1"/>
        <pt x="117" y="816" on="0"/>
        <pt x="188" y="1097" on="0"/>
        <pt x="341" y="1329" on="0"/>
        <pt x="583" y="1513" on="0"/>
        <pt x="754" y="1581" on="1"/>
        <pt x="754" y="1452" on="1"/>
        <pt x="659" y="1389" on="0"/>
        <pt x="539" y="1214" on="0"/>
        <pt x="471" y="1006" on="0"/>
        <pt x="446" y="773" on="0"/>
      </contour>
    </TTGlyph>
    <TTGlyph name="seven" xMin="61" yMin="-20" xMax="1083" yMax="1483">
      <contour>
        <pt x="61" y="373" on="1"/>
        <pt x="61" y="439" on="0"/>
        <pt x="104" y="545" on="0"/>
        <pt x="184" y="632" on="0"/>
        <pt x="295" y="705" on="0"/>
        <pt x="362" y="739" on="1"/>
        <pt x="240" y="810" on="0"/>
        <pt x="109" y="990" on="0"/>
        <pt x="109" y="1110" on="1"/>
        <pt x="109" y="1181" on="0"/>
        <pt x="158" y="1316" on="0"/>
        <pt x="270" y="1420" on="0"/>
        <pt x="452" y="1483" on="0"/>
        <pt x="584" y="1483" on="1"/>
        <pt x="692" y="1483" on="0"/>
        <pt x="855" y="1429" on="0"/>
        <pt x="965" y="1333" on="0"/>
        <pt x="1020" y="1202" on="0"/>
        <pt x="1020" y="1124" on="1"/>
        <pt x="1020" y="1063" on="0"/>
        <pt x="981" y="969" on="0"/>
        <pt x="909" y="892" on="0"/>
        <pt x="807" y="826" on="0"/>
        <pt x="743" y="793" on="1"/>
        <pt x="835" y="748" on="0"/>
        <pt x="965" y="657" on="0"/>
        <pt x="1046" y="558" on="0"/>
        <pt x="1083" y="449" on="0"/>
        <pt x="1083" y="387" on="1"/>
        <pt x="1083" y="290" on="0"/>
        <pt x="1012" y="139" on="0"/>
        <pt x="877" y="35" on="0"/>
        <pt x="683" y="-20" on="0"/>
        <pt x="559" y="-20" on="1"/>
        <pt x="431" y="-20" on="0"/>
        <pt x="243" y="42" on="0"/>
        <pt x="120" y="148" on="0"/>
        <pt x="61" y="292" on="0"/>
      </contour>
      <contour>
        <pt x="569" y="96" on="1"/>
        <pt x="622" y="96" on="0"/>
        <pt x="707" y="134" on="0"/>
        <pt x="767" y="202" on="0"/>
        <pt x="799" y="296" on="0"/>
        <pt x="799" y="352" on="1"/>
        <pt x="799" y="402" on="0"/>
        <pt x="765" y="483" on="0"/>
        <pt x="692" y="554" on="0"/>
        <pt x="579" y="621" on="0"/>
        <pt x="500" y="657" on="1"/>
        <pt x="466" y="635" on="0"/>
        <pt x="406" y="578" on="0"/>
        <pt x="363" y="507" on="0"/>
        <pt x="338" y="419" on="0"/>
        <pt x="338" y="365" on="1"/>
        <pt x="338" y="305" on="0"/>
        <pt x="371" y="206" on="0"/>
        <pt x="432" y="135" on="0"/>
        <pt x="517" y="96" on="0"/>
      </contour>
      <contour>
        <pt x="762" y="1128" on="1"/>
        <pt x="762" y="1172" on="0"/>
        <pt x="737" y="1257" on="0"/>
        <pt x="689" y="1323" on="0"/>
        <pt x="618" y="1364" on="0"/>
        <pt x="571" y="1364" on="1"/>
        <pt x="529" y="1364" on="0"/>
        <pt x="464" y="1329" on="0"/>
        <pt x="420" y="1268" on="0"/>
        <pt x="397" y="1184" on="0"/>
        <pt x="397" y="1135" on="1"/>
        <pt x="397" y="1082" on="0"/>
        <pt x="426" y="1002" on="0"/>
        <pt x="482" y="938" on="0"/>
        <pt x="564" y="887" on="0"/>
        <pt x="618" y="862" on="1"/>
        <pt x="656" y="884" on="0"/>
        <pt x="710" y="934" on="0"/>
        <pt x="745" y="998" on="0"/>
        <pt x="762" y="1077" on="0"/>
      </contour>
    </TTGlyph>
    <TTGlyph name="six" xMin="90" yMin="0" xMax="1077" yMax="1462">
      <contour>
        <pt x="338" y="0" on="1"/>
        <pt x="883" y="1239" on="1"/>
        <pt x="344" y="1239" on="1"/>
        <pt x="288" y="1239" on="0"/>
        <pt x="231" y="1186" on="0"/>
        <pt x="225" y="1135" on="1"/>
        <pt x="213" y="1032" on="1"/>
        <pt x="90" y="1032" on="1"/>
        <pt x="100" y="1462" on="1"/>
        <pt x="1077" y="1462" on="1"/>
        <pt x="1077" y="1362" on="1"/>
        <pt x="512" y="0" on="1"/>
      </contour>
    </TTGlyph>
    <TTGlyph name="slash" xMin="70" yMin="-20" xMax="1075" yMax="1483">
      <contour>
        <pt x="1075" y="733" on="1"/>
        <pt x="1075" y="564" on="0"/>
        <pt x="1019" y="286" on="0"/>
        <pt x="897" y="88" on="0"/>
        <pt x="707" y="-20" on="0"/>
        <pt x="573" y="-20" on="1"/>
        <pt x="433" y="-20" on="0"/>
        <pt x="241" y="88" on="0"/>
        <pt x="122" y="286" on="0"/>
        <pt x="70" y="565" on="0"/>
        <pt x="70" y="735" on="1"/>
        <pt x="70" y="905" on="0"/>
        <pt x="122" y="1181" on="0"/>
        <pt x="241" y="1377" on="0"/>
        <pt x="434" y="1483" on="0"/>
        <pt x="575" y="1483" on="1"/>
        <pt x="708" y="1483" on="0"/>
        <pt x="898" y="1377" on="0"/>
        <pt x="1019" y="1181" on="0"/>
        <pt x="1075" y="904" on="0"/>
      </contour>
      <contour>
        <pt x="387" y="733" on="1"/>
        <pt x="387" y="586" on="0"/>
        <pt x="403" y="356" on="0"/>
        <pt x="444" y="197" on="0"/>
        <pt x="516" y="113" on="0"/>
        <pt x="573" y="113" on="1"/>
        <pt x="630" y="113" on="0"/>
        <pt x="702" y="197" on="0"/>
        <pt x="743" y="356" on="0"/>
        <pt x="758" y="586" on="0"/>
        <pt x="758" y="733" on="1"/>
        <pt x="758" y="880" on="0"/>
        <pt x="743" y="1109" on="0"/>
        <pt x="703" y="1267" on="0"/>
        <pt x="631" y="1350" on="0"/>
        <pt x="575" y="1350" on="1"/>
        <pt x="518" y="1350" on="0"/>
        <pt x="445" y="1267" on="0"/>
        <pt x="403" y="1109" on="0"/>
        <pt x="387" y="880" on="0"/>
      </contour>
    </TTGlyph>
    <TTGlyph name="space" xMin="213" yMin="-16" xMax="569" yMax="1462">
      <contour>
        <pt x="213" y="1462" on="1"/>
        <pt x="569" y="1462" on="1"/>
        <pt x="449" y="467" on="1"/>
        <pt x="334" y="467" on="1"/>
      </contour>
      <contour>
        <pt x="225" y="147" on="1"/>
        <pt x="225" y="194" on="0"/>
        <pt x="251" y="257" on="0"/>
        <pt x="296" y="295" on="0"/>
        <pt x="358" y="311" on="0"/>
        <pt x="393" y="311" on="1"/>
        <pt x="427" y="311" on="0"/>
        <pt x="488" y="295" on="0"/>
        <pt x="534" y="257" on="0"/>
        <pt x="561" y="194" on="0"/>
        <pt x="561" y="147" on="1"/>
        <pt x="561" y="101" on="0"/>
        <pt x="534" y="39" on="0"/>
        <pt x="488" y="1" on="0"/>
        <pt x="427" y="-16" on="0"/>
        <pt x="393" y="-16" on="1"/>
        <pt x="358" y="-16" on="0"/>
        <pt x="296" y="1" on="0"/>
        <pt x="251" y="39" on="0"/>
        <pt x="225" y="101" on="0"/>
      </contour>
    </TTGlyph>
    <TTGlyph name="three" xMin="27" yMin="0" xMax="1106" yMax="1462">
      <contour>
        <pt x="893" y="381" on="1"/>
        <pt x="893" y="256" on="1"/>
        <pt x="893" y="208" on="0"/>
        <pt x="920" y="150" on="0"/>
        <pt x="965" y="119" on="0"/>
        <pt x="1027" y="109" on="0"/>
        <pt x="1061" y="109" on="1"/>
        <pt x="1087" y="109" on="1"/>
        <pt x="1087" y="0" on="1"/>
        <pt x="369" y="0" on="1"/>
        <pt x="369" y="109" on="1"/>
        <pt x="426" y="109" on="1"/>
        <pt x="461" y="109" on="0"/>
        <pt x="522" y="119" on="0"/>
        <pt x="567" y="150" on="0"/>
        <pt x="594" y="208" on="0"/>
        <pt x="594" y="256" on="1"/>
        <pt x="594" y="381" on="1"/>
        <pt x="27" y="381" on="1"/>
        <pt x="27" y="506" on="1"/>
        <pt x="608" y="1462" on="1"/>
        <pt x="893" y="1462" on="1"/>
        <pt x="893" y="516" on="1"/>
        <pt x="1106" y="516" on="1"/>
        <pt x="1106" y="381" on="1"/>
      </contour>
      <contour>
        <pt x="594" y="874" on="1"/>
        <pt x="594" y="964" on="0"/>
        <pt x="600" y="1172" on="0"/>
        <pt x="608" y="1268" on="1"/>
        <pt x="598" y="1244" on="0"/>
        <pt x="554" y="1160" on="0"/>
        <pt x="504" y="1071" on="0"/>
        <pt x="458" y="992" on="0"/>
        <pt x="446" y="973" on="1"/>
        <pt x="170" y="516" on="1"/>
        <pt x="594" y="516" on="1"/>
      </contour>
    </TTGlyph>
    <TTGlyph name="two" xMin="57" yMin="-20" xMax="1051" yMax="1483">
      <contour>
        <pt x="498" y="-20" on="1"/>
        <pt x="382" y="-20" on="0"/>
        <pt x="215" y="20" on="0"/>
        <pt x="108" y="88" on="0"/>
        <pt x="57" y="177" on="0"/>
        <pt x="57" y="225" on="1"/>
        <pt x="57" y="264" on="0"/>
        <pt x="85" y="324" on="0"/>
        <pt x="133" y="365" on="0"/>
        <pt x="196" y="385" on="0"/>
        <pt x="231" y="385" on="1"/>
        <pt x="231" y="320" on="0"/>
        <pt x="268" y="222" on="0"/>
        <pt x="334" y="156" on="0"/>
        <pt x="427" y="123" on="0"/>
        <pt x="483" y="123" on="1"/>
        <pt x="533" y="123" on="0"/>
        <pt x="624" y="151" on="0"/>
        <pt x="694" y="219" on="0"/>
        <pt x="735" y="336" on="0"/>
        <pt x="735" y="424" on="1"/>
        <pt x="735" y="483" on="0"/>
        <pt x="694" y="581" on="0"/>
        <pt x="613" y="652" on="0"/>
        <pt x="495" y="692" on="0"/>
        <pt x="418" y="692" on="1"/>
        <pt x="291" y="692" on="1"/>
        <pt x="291" y="819" on="1"/>
        <pt x="426" y="819" on="1"/>
        <pt x="492" y="819" on="0"/>
        <pt x="590" y="862" on="0"/>
        <pt x="654" y="942" on="0"/>
        <pt x="686" y="1053" on="0"/>
        <pt x="686" y="1120" on="1"/>
        <pt x="686" y="1232" on="0"/>
        <pt x="600" y="1358" on="0"/>
        <pt x="516" y="1358" on="1"/>
        <pt x="461" y="1358" on="0"/>
        <pt x="392" y="1304" on="0"/>
        <pt x="354" y="1214" on="0"/>
        <pt x="340" y="1100" on="0"/>
        <pt x="340" y="1040" on="1"/>
        <pt x="212" y="1040" on="0"/>
        <pt x="74" y="1129" on="0"/>
        <pt x="74" y="1223" on="1"/>
        <pt x="74" y="1277" on="0"/>
        <pt x="131" y="1372" on="0"/>
        <pt x="245" y="1443" on="0"/>
        <pt x="414" y="1483" on="0"/>
        <pt x="526" y="1483" on="1"/>
        <pt x="635" y="1483" on="0"/>
        <pt x="810" y="1439" on="0"/>
        <pt x="933" y="1353" on="0"/>
        <pt x="999" y="1229" on="0"/>
        <pt x="999" y="1149" on="1"/>
        <pt x="999" y="1080" on="0"/>
        <pt x="951" y="964" on="0"/>
        <pt x="867" y="872" on="0"/>
        <pt x="753" y="803" on="0"/>
        <pt x="686" y="780" on="1"/>
        <pt x="748" y="769" on="0"/>
        <pt x="877" y="720" on="0"/>
        <pt x="983" y="636" on="0"/>
        <pt x="1051" y="510" on="0"/>
        <pt x="1051" y="422" on="1"/>
        <pt x="1051" y="297" on="0"/>
        <pt x="958" y="127" on="0"/>
        <pt x="803" y="24" on="0"/>
        <pt x="604" y="-20" on="0"/>
      </contour>
    </TTGlyph>
    <TTGlyph name="uni0E81" xMin="82" yMin="0" xMax="1328" yMax="1300">
      <contour>
        <pt x="198" y="191" on="1"/>
        <pt x="198" y="116" on="0"/>
        <pt x="273" y="116" on="1"/>
        <pt x="349" y="116" on="0"/>
        <pt x="349" y="191" on="1"/>
        <pt x="349" y="267" on="0"/>
        <pt x="273" y="267" on="1"/>
        <pt x="198" y="267" on="0"/>
      </contour>
      <contour>
        <pt x="290" y="1045" on="1"/>
        <pt x="290" y="1068" on="1"/>
        <pt x="290" y="1186" on="0"/>
        <pt x="244" y="1186" on="1"/>
        <pt x="198" y="1186" on="0"/>
        <pt x="198" y="1115" on="1"/>
        <pt x="198" y="1044" on="0"/>
        <pt x="261" y="1044" on="1"/>
        <pt x="276" y="1044" on="0"/>
      </contour>
      <contour>
        <pt x="444" y="0" on="0"/>
        <pt x="273" y="0" on="1"/>
        <pt x="171" y="0" on="0"/>
        <pt x="124" y="54" on="1"/>
        <pt x="82" y="102" on="0"/>
        <pt x="82" y="191" on="1"/>
        <pt x="82" y="281" on="0"/>
        <pt x="124" y="328" on="1"/>
        <pt x="172" y="382" on="0"/>
        <pt x="223" y="382" on="1"/>
        <pt x="260" y="382" on="0"/>
        <pt x="290" y="375" on="1"/>
        <pt x="290" y="930" on="1"/>
        <pt x="263" y="930" on="1"/>
        <pt x="189" y="930" on="0"/>
        <pt x="132" y="983" on="1"/>
        <pt x="82" y="1029" on="0"/>
        <pt x="82" y="1115" on="1"/>
        <pt x="82" y="1209" on="0"/>
        <pt x="131" y="1255" on="1"/>
        <pt x="179" y="1300" on="0"/>
        <pt x="273" y="1300" on="1"/>
        <pt x="525" y="1300" on="0"/>
        <pt x="567" y="1159" on="1"/>
        <pt x="678" y="1300" on="0"/>
        <pt x="896" y="1300" on="1"/>
        <pt x="1113" y="1300" on="0"/>
        <pt x="1328" y="1124" on="0"/>
        <pt x="1328" y="950" on="1"/>
        <pt x="1328" y="200" on="1"/>
        <pt x="1328" y="105" on="0"/>
        <pt x="1278" y="0" on="1"/>
        <pt x="990" y="0" on="1"/>
        <pt x="1040" y="75" on="0"/>
        <pt x="1040" y="200" on="1"/>
        <pt x="1040" y="950" on="1"/>
        <pt x="1040" y="1039" on="0"/>
        <pt x="968" y="1190" on="0"/>
        <pt x="846" y="1190" on="1"/>
        <pt x="708" y="1190" on="0"/>
        <pt x="611" y="1033" on="1"/>
        <pt x="578" y="985" on="1"/>
        <pt x="578" y="260" on="1"/>
        <pt x="578" y="123" on="0"/>
        <pt x="507" y="58" on="1"/>
      </contour>
    </TTGlyph>
    <TTGlyph name="uni0E81.am" xMin="82" yMin="0" xMax="1328" yMax="1850">
      <contour>
        <pt x="198" y="191" on="1"/>
        <pt x="198" y="116" on="0"/>
        <pt x="273" y="116" on="1"/>
        <pt x="349" y="116" on="0"/>
        <pt x="349" y="191" on="1"/>
        <pt x="349" y="267" on="0"/>
        <pt x="273" y="267" on="1"/>
        <pt x="198" y="267" on="0"/>
      </contour>
      <contour>
        <pt x="290" y="1045" on="1"/>
        <pt x="290" y="1068" on="1"/>
        <pt x="290" y="1186" on="0"/>
        <pt x="244" y="1186" on="1"/>
        <pt x="198" y="1186" on="0"/>
        <pt x="198" y="1115" on="1"/>
        <pt x="198" y="1044" on="0"/>
        <pt x="261" y="1044" on="1"/>
        <pt x="276" y="1044" on="0"/>
      </contour>
      <contour>
        <pt x="444" y="0" on="0"/>
        <pt x="273" y="0" on="1"/>
        <pt x="171" y="0" on="0"/>
        <pt x="124" y="54" on="1"/>
        <pt x="82" y="102" on="0"/>
        <pt x="82" y="191" on="1"/>
        <pt x="82" y="281" on="0"/>
        <pt x="124" y="328" on="1"/>
        <pt x="172" y="382" on="0"/>
        <pt x="223" y="382" on="1"/>
        <pt x="260" y="382" on="0"/>
        <pt x="290" y="375" on="1"/>
        <pt x="290" y="930" on="1"/>
        <pt x="263" y="930" on="1"/>
        <pt x="189" y="930" on="0"/>
        <pt x="132" y="983" on="1"/>
        <pt x="82" y="1029" on="0"/>
        <pt x="82" y="1115" on="1"/>
        <pt x="82" y="1209" on="0"/>
        <pt x="131" y="1255" on="1"/>
        <pt x="179" y="1300" on="0"/>
        <pt x="273" y="1300" on="1"/>
        <pt x="525" y="1300" on="0"/>
        <pt x="567" y="1159" on="1"/>
        <pt x="678" y="1300" on="0"/>
        <pt x="896" y="1300" on="1"/>
        <pt x="1113" y="1300" on="0"/>
        <pt x="1328" y="1124" on="0"/>
        <pt x="1328" y="950" on="1"/>
        <pt x="1328" y="200" on="1"/>
        <pt x="1328" y="105" on="0"/>
        <pt x="1278" y="0" on="1"/>
        <pt x="990" y="0" on="1"/>
        <pt x="1040" y="75" on="0"/>
        <pt x="1040" y="200" on="1"/>
        <pt x="1040" y="950" on="1"/>
        <pt x="1040" y="1039" on="0"/>
        <pt x="968" y="1190" on="0"/>
        <pt x="846" y="1190" on="1"/>
        <pt x="708" y="1190" on="0"/>
        <pt x="611" y="1033" on="1"/>
        <pt x="578" y="985" on="1"/>
        <pt x="578" y="260" on="1"/>
        <pt x="578" y="123" on="0"/>
        <pt x="507" y="58" on="1"/>
      </contour>
      <contour>
        <pt x="859" y="1730" on="0"/>
        <pt x="835" y="1709" on="0"/>
        <pt x="821" y="1671" on="0"/>
        <pt x="821" y="1650" on="1"/>
        <pt x="821" y="1629" on="0"/>
        <pt x="835" y="1591" on="0"/>
        <pt x="859" y="1570" on="0"/>
        <pt x="871" y="1570" on="1"/>
        <pt x="884" y="1570" on="0"/>
        <pt x="908" y="1591" on="0"/>
        <pt x="921" y="1629" on="0"/>
        <pt x="921" y="1650" on="1"/>
        <pt x="921" y="1671" on="0"/>
        <pt x="908" y="1709" on="0"/>
        <pt x="884" y="1730" on="0"/>
        <pt x="871" y="1730" on="1"/>
      </contour>
      <contour>
        <pt x="871" y="1850" on="1"/>
        <pt x="935" y="1850" on="0"/>
        <pt x="1054" y="1798" on="0"/>
        <pt x="1121" y="1702" on="0"/>
        <pt x="1121" y="1650" on="1"/>
        <pt x="1121" y="1598" on="0"/>
        <pt x="1056" y="1503" on="0"/>
        <pt x="936" y="1450" on="0"/>
        <pt x="871" y="1450" on="1"/>
        <pt x="807" y="1450" on="0"/>
        <pt x="687" y="1503" on="0"/>
        <pt x="621" y="1598" on="0"/>
        <pt x="621" y="1650" on="1"/>
        <pt x="621" y="1702" on="0"/>
        <pt x="689" y="1798" on="0"/>
        <pt x="809" y="1850" on="0"/>
      </contour>
    </TTGlyph>
    <TTGlyph name="uni0E82" xMin="97" yMin="-10" xMax="1297" yMax="1300">
      <contour>
        <pt x="417" y="700" on="1"/>
        <pt x="97" y="700" on="0"/>
        <pt x="97" y="961" on="1"/>
        <pt x="97" y="1300" on="0"/>
        <pt x="677" y="1300" on="1"/>
        <pt x="987" y="1300" on="0"/>
        <pt x="1257" y="1136" on="0"/>
        <pt x="1257" y="921" on="1"/>
        <pt x="1257" y="750" on="0"/>
        <pt x="912" y="572" on="0"/>
        <pt x="385" y="425" on="0"/>
        <pt x="385" y="230" on="1"/>
        <pt x="385" y="110" on="0"/>
        <pt x="464" y="110" on="1"/>
        <pt x="543" y="110" on="0"/>
        <pt x="770" y="354" on="0"/>
        <pt x="932" y="354" on="1"/>
        <pt x="1173" y="354" on="0"/>
        <pt x="1297" y="97" on="1"/>
        <pt x="1107" y="-10" on="1"/>
        <pt x="1016" y="136" on="0"/>
        <pt x="930" y="210" on="0"/>
        <pt x="882" y="210" on="1"/>
        <pt x="813" y="210" on="0"/>
        <pt x="593" y="0" on="0"/>
        <pt x="418" y="0" on="1"/>
        <pt x="243" y="0" on="0"/>
        <pt x="97" y="115" on="0"/>
        <pt x="97" y="230" on="1"/>
        <pt x="97" y="495" on="0"/>
        <pt x="802" y="662" on="0"/>
        <pt x="969" y="802" on="0"/>
        <pt x="969" y="921" on="1"/>
        <pt x="969" y="1064" on="0"/>
        <pt x="833" y="1190" on="0"/>
        <pt x="677" y="1190" on="1"/>
        <pt x="341" y="1190" on="0"/>
        <pt x="341" y="981" on="1"/>
        <pt x="341" y="980" on="1"/>
        <pt x="360" y="1004" on="0"/>
        <pt x="406" y="1020" on="0"/>
        <pt x="447" y="1020" on="1"/>
        <pt x="487" y="1020" on="0"/>
        <pt x="554" y="969" on="0"/>
        <pt x="577" y="902" on="0"/>
        <pt x="577" y="860" on="1"/>
        <pt x="577" y="818" on="0"/>
        <pt x="535" y="742" on="0"/>
        <pt x="459" y="700" on="0"/>
      </contour>
      <contour>
        <pt x="400" y="928" on="0"/>
        <pt x="368" y="910" on="0"/>
        <pt x="350" y="878" on="0"/>
        <pt x="350" y="860" on="1"/>
        <pt x="350" y="842" on="0"/>
        <pt x="367" y="810" on="0"/>
        <pt x="399" y="793" on="0"/>
        <pt x="417" y="793" on="1"/>
        <pt x="435" y="793" on="0"/>
        <pt x="467" y="810" on="0"/>
        <pt x="485" y="842" on="0"/>
        <pt x="485" y="860" on="1"/>
        <pt x="485" y="878" on="0"/>
        <pt x="466" y="910" on="0"/>
        <pt x="434" y="928" on="0"/>
        <pt x="417" y="928" on="1"/>
      </contour>
    </TTGlyph>
    <TTGlyph name="uni0E82.am" xMin="97" yMin="-100" xMax="1297" yMax="1850">
      <contour>
        <pt x="417" y="700" on="1"/>
        <pt x="97" y="700" on="0"/>
        <pt x="97" y="961" on="1"/>
        <pt x="97" y="1300" on="0"/>
        <pt x="677" y="1300" on="1"/>
        <pt x="987" y="1300" on="0"/>
        <pt x="1257" y="1136" on="0"/>
        <pt x="1257" y="921" on="1"/>
        <pt x="1257" y="750" on="0"/>
        <pt x="912" y="572" on="0"/>
        <pt x="385" y="425" on="0"/>
        <pt x="385" y="230" on="1"/>
        <pt x="385" y="110" on="0"/>
        <pt x="464" y="110" on="1"/>
        <pt x="543" y="110" on="0"/>
        <pt x="770" y="264" on="0"/>
        <pt x="932" y="264" on="1"/>
        <pt x="1173" y="264" on="0"/>
        <pt x="1297" y="7" on="1"/>
        <pt x="1107" y="-100" on="1"/>
        <pt x="1016" y="46" on="0"/>
        <pt x="930" y="120" on="0"/>
        <pt x="882" y="120" on="1"/>
        <pt x="813" y="120" on="0"/>
        <pt x="593" y="0" on="0"/>
        <pt x="418" y="0" on="1"/>
        <pt x="243" y="0" on="0"/>
        <pt x="97" y="115" on="0"/>
        <pt x="97" y="230" on="1"/>
        <pt x="97" y="495" on="0"/>
        <pt x="802" y="662" on="0"/>
        <pt x="969" y="802" on="0"/>
        <pt x="969" y="921" on="1"/>
        <pt x="969" y="1064" on="0"/>
        <pt x="833" y="1190" on="0"/>
        <pt x="677" y="1190" on="1"/>
        <pt x="341" y="1190" on="0"/>
        <pt x="341" y="981" on="1"/>
        <pt x="341" y="980" on="1"/>
        <pt x="360" y="1004" on="0"/>
        <pt x="406" y="1020" on="0"/>
        <pt x="447" y="1020" on="1"/>
        <pt x="487" y="1020" on="0"/>
        <pt x="554" y="969" on="0"/>
        <pt x="577" y="902" on="0"/>
        <pt x="577" y="860" on="1"/>
        <pt x="577" y="818" on="0"/>
        <pt x="535" y="742" on="0"/>
        <pt x="459" y="700" on="0"/>
      </contour>
      <contour>
        <pt x="400" y="928" on="0"/>
        <pt x="368" y="910" on="0"/>
        <pt x="350" y="878" on="0"/>
        <pt x="350" y="860" on="1"/>
        <pt x="350" y="842" on="0"/>
        <pt x="367" y="810" on="0"/>
        <pt x="399" y="793" on="0"/>
        <pt x="417" y="793" on="1"/>
        <pt x="435" y="793" on="0"/>
        <pt x="467" y="810" on="0"/>
        <pt x="485" y="842" on="0"/>
        <pt x="485" y="860" on="1"/>
        <pt x="485" y="878" on="0"/>
        <pt x="466" y="910" on="0"/>
        <pt x="434" y="928" on="0"/>
        <pt x="417" y="928" on="1"/>
      </contour>
      <contour>
        <pt x="659" y="1730" on="0"/>
        <pt x="635" y="1709" on="0"/>
        <pt x="621" y="1671" on="0"/>
        <pt x="621" y="1650" on="1"/>
        <pt x="621" y="1629" on="0"/>
        <pt x="635" y="1591" on="0"/>
        <pt x="659" y="1570" on="0"/>
        <pt x="671" y="1570" on="1"/>
        <pt x="684" y="1570" on="0"/>
        <pt x="708" y="1591" on="0"/>
        <pt x="721" y="1629" on="0"/>
        <pt x="721" y="1650" on="1"/>
        <pt x="721" y="1671" on="0"/>
        <pt x="708" y="1709" on="0"/>
        <pt x="684" y="1730" on="0"/>
        <pt x="671" y="1730" on="1"/>
      </contour>
      <contour>
        <pt x="671" y="1850" on="1"/>
        <pt x="735" y="1850" on="0"/>
        <pt x="854" y="1798" on="0"/>
        <pt x="921" y="1702" on="0"/>
        <pt x="921" y="1650" on="1"/>
        <pt x="921" y="1598" on="0"/>
        <pt x="856" y="1503" on="0"/>
        <pt x="736" y="1450" on="0"/>
        <pt x="671" y="1450" on="1"/>
        <pt x="607" y="1450" on="0"/>
        <pt x="487" y="1503" on="0"/>
        <pt x="421" y="1598" on="0"/>
        <pt x="421" y="1650" on="1"/>
        <pt x="421" y="1702" on="0"/>
        <pt x="489" y="1798" on="0"/>
        <pt x="609" y="1850" on="0"/>
      </contour>
    </TTGlyph>
    <TTGlyph name="uni0E84" xMin="97" yMin="0" xMax="1247" yMax="1300">
      <contour>
        <pt x="510" y="131" on="1"/>
        <pt x="532" y="150" on="0"/>
        <pt x="532" y="191" on="1"/>
        <pt x="532" y="227" on="0"/>
        <pt x="515" y="246" on="1"/>
        <pt x="496" y="267" on="0"/>
        <pt x="457" y="267" on="1"/>
        <pt x="381" y="267" on="0"/>
        <pt x="381" y="191" on="1"/>
        <pt x="381" y="146" on="0"/>
        <pt x="408" y="128" on="1"/>
        <pt x="426" y="116" on="0"/>
        <pt x="457" y="116" on="1"/>
        <pt x="491" y="116" on="0"/>
      </contour>
      <contour>
        <pt x="959" y="920" on="1"/>
        <pt x="959" y="1047" on="0"/>
        <pt x="848" y="1190" on="0"/>
        <pt x="668" y="1190" on="1"/>
        <pt x="508" y="1190" on="0"/>
        <pt x="385" y="1071" on="0"/>
        <pt x="385" y="950" on="1"/>
        <pt x="385" y="780" on="0"/>
        <pt x="547" y="780" on="1"/>
        <pt x="627" y="780" on="1"/>
        <pt x="627" y="646" on="1"/>
        <pt x="547" y="646" on="1"/>
        <pt x="385" y="646" on="0"/>
        <pt x="385" y="430" on="1"/>
        <pt x="385" y="352" on="1"/>
        <pt x="431" y="382" on="0"/>
        <pt x="477" y="382" on="1"/>
        <pt x="552" y="382" on="0"/>
        <pt x="600" y="334" on="1"/>
        <pt x="647" y="286" on="0"/>
        <pt x="647" y="190" on="1"/>
        <pt x="647" y="95" on="0"/>
        <pt x="599" y="47" on="1"/>
        <pt x="552" y="0" on="0"/>
        <pt x="457" y="0" on="1"/>
        <pt x="277" y="0" on="0"/>
        <pt x="202" y="52" on="1"/>
        <pt x="97" y="123" on="0"/>
        <pt x="97" y="295" on="1"/>
        <pt x="97" y="430" on="1"/>
        <pt x="97" y="637" on="0"/>
        <pt x="310" y="710" on="1"/>
        <pt x="97" y="776" on="0"/>
        <pt x="97" y="950" on="1"/>
        <pt x="97" y="1137" on="0"/>
        <pt x="217" y="1217" on="1"/>
        <pt x="342" y="1300" on="0"/>
        <pt x="668" y="1300" on="1"/>
        <pt x="993" y="1300" on="0"/>
        <pt x="1117" y="1208" on="1"/>
        <pt x="1247" y="1113" on="0"/>
        <pt x="1247" y="920" on="1"/>
        <pt x="1247" y="200" on="1"/>
        <pt x="1247" y="105" on="0"/>
        <pt x="1197" y="0" on="1"/>
        <pt x="909" y="0" on="1"/>
        <pt x="959" y="75" on="0"/>
        <pt x="959" y="200" on="1"/>
      </contour>
    </TTGlyph>
    <TTGlyph name="uni0E84.am" xMin="97" yMin="0" xMax="1247" yMax="1850">
      <contour>
        <pt x="510" y="131" on="1"/>
        <pt x="532" y="150" on="0"/>
        <pt x="532" y="191" on="1"/>
        <pt x="532" y="227" on="0"/>
        <pt x="515" y="246" on="1"/>
        <pt x="496" y="267" on="0"/>
        <pt x="457" y="267" on="1"/>
        <pt x="381" y="267" on="0"/>
        <pt x="381" y="191" on="1"/>
        <pt x="381" y="146" on="0"/>
        <pt x="408" y="128" on="1"/>
        <pt x="426" y="116" on="0"/>
        <pt x="457" y="116" on="1"/>
        <pt x="491" y="116" on="0"/>
      </contour>
      <contour>
        <pt x="959" y="920" on="1"/>
        <pt x="959" y="1047" on="0"/>
        <pt x="848" y="1190" on="0"/>
        <pt x="668" y="1190" on="1"/>
        <pt x="508" y="1190" on="0"/>
        <pt x="385" y="1071" on="0"/>
        <pt x="385" y="950" on="1"/>
        <pt x="385" y="780" on="0"/>
        <pt x="547" y="780" on="1"/>
        <pt x="627" y="780" on="1"/>
        <pt x="627" y="646" on="1"/>
        <pt x="547" y="646" on="1"/>
        <pt x="385" y="646" on="0"/>
        <pt x="385" y="430" on="1"/>
        <pt x="385" y="352" on="1"/>
        <pt x="431" y="382" on="0"/>
        <pt x="477" y="382" on="1"/>
        <pt x="552" y="382" on="0"/>
        <pt x="600" y="334" on="1"/>
        <pt x="647" y="286" on="0"/>
        <pt x="647" y="190" on="1"/>
        <pt x="647" y="95" on="0"/>
        <pt x="599" y="47" on="1"/>
        <pt x="552" y="0" on="0"/>
        <pt x="457" y="0" on="1"/>
        <pt x="277" y="0" on="0"/>
        <pt x="202" y="52" on="1"/>
        <pt x="97" y="123" on="0"/>
        <pt x="97" y="295" on="1"/>
        <pt x="97" y="430" on="1"/>
        <pt x="97" y="637" on="0"/>
        <pt x="310" y="710" on="1"/>
        <pt x="97" y="776" on="0"/>
        <pt x="97" y="950" on="1"/>
        <pt x="97" y="1137" on="0"/>
        <pt x="217" y="1217" on="1"/>
        <pt x="342" y="1300" on="0"/>
        <pt x="668" y="1300" on="1"/>
        <pt x="993" y="1300" on="0"/>
        <pt x="1117" y="1208" on="1"/>
        <pt x="1247" y="1113" on="0"/>
        <pt x="1247" y="920" on="1"/>
        <pt x="1247" y="200" on="1"/>
        <pt x="1247" y="105" on="0"/>
        <pt x="1197" y="0" on="1"/>
        <pt x="909" y="0" on="1"/>
        <pt x="959" y="75" on="0"/>
        <pt x="959" y="200" on="1"/>
      </contour>
      <contour>
        <pt x="659" y="1730" on="0"/>
        <pt x="635" y="1709" on="0"/>
        <pt x="621" y="1671" on="0"/>
        <pt x="621" y="1650" on="1"/>
        <pt x="621" y="1629" on="0"/>
        <pt x="635" y="1591" on="0"/>
        <pt x="659" y="1570" on="0"/>
        <pt x="671" y="1570" on="1"/>
        <pt x="684" y="1570" on="0"/>
        <pt x="708" y="1591" on="0"/>
        <pt x="721" y="1629" on="0"/>
        <pt x="721" y="1650" on="1"/>
        <pt x="721" y="1671" on="0"/>
        <pt x="708" y="1709" on="0"/>
        <pt x="684" y="1730" on="0"/>
        <pt x="671" y="1730" on="1"/>
      </contour>
      <contour>
        <pt x="671" y="1850" on="1"/>
        <pt x="735" y="1850" on="0"/>
        <pt x="854" y="1798" on="0"/>
        <pt x="921" y="1702" on="0"/>
        <pt x="921" y="1650" on="1"/>
        <pt x="921" y="1598" on="0"/>
        <pt x="856" y="1503" on="0"/>
        <pt x="736" y="1450" on="0"/>
        <pt x="671" y="1450" on="1"/>
        <pt x="607" y="1450" on="0"/>
        <pt x="487" y="1503" on="0"/>
        <pt x="421" y="1598" on="0"/>
        <pt x="421" y="1650" on="1"/>
        <pt x="421" y="1702" on="0"/>
        <pt x="489" y="1798" on="0"/>
        <pt x="609" y="1850" on="0"/>
      </contour>
    </TTGlyph>
    <TTGlyph name="uni0E87" xMin="32" yMin="-400" xMax="792" yMax="1300">
      <contour>
        <pt x="198" y="1040" on="1"/>
        <pt x="198" y="966" on="0"/>
        <pt x="273" y="966" on="1"/>
        <pt x="349" y="966" on="0"/>
        <pt x="349" y="1041" on="1"/>
        <pt x="349" y="1117" on="0"/>
        <pt x="273" y="1117" on="1"/>
        <pt x="198" y="1117" on="0"/>
      </contour>
      <contour>
        <pt x="599" y="-400" on="0"/>
        <pt x="420" y="-400" on="1"/>
        <pt x="191" y="-400" on="0"/>
        <pt x="32" y="-196" on="1"/>
        <pt x="191" y="-296" on="0"/>
        <pt x="330" y="-296" on="1"/>
        <pt x="413" y="-296" on="0"/>
        <pt x="504" y="-112" on="0"/>
        <pt x="504" y="0" on="1"/>
        <pt x="504" y="920" on="1"/>
        <pt x="504" y="1137" on="0"/>
        <pt x="413" y="1163" on="1"/>
        <pt x="464" y="1117" on="0"/>
        <pt x="464" y="1040" on="1"/>
        <pt x="464" y="850" on="0"/>
        <pt x="272" y="850" on="1"/>
        <pt x="82" y="850" on="0"/>
        <pt x="82" y="1040" on="1"/>
        <pt x="82" y="1300" on="0"/>
        <pt x="437" y="1300" on="1"/>
        <pt x="792" y="1300" on="0"/>
        <pt x="792" y="920" on="1"/>
        <pt x="792" y="0" on="1"/>
        <pt x="792" y="-190" on="0"/>
      </contour>
    </TTGlyph>
    <TTGlyph name="uni0E87.am" xMin="32" yMin="-400" xMax="792" yMax="1850">
      <contour>
        <pt x="198" y="1040" on="1"/>
        <pt x="198" y="966" on="0"/>
        <pt x="273" y="966" on="1"/>
        <pt x="349" y="966" on="0"/>
        <pt x="349" y="1041" on="1"/>
        <pt x="349" y="1117" on="0"/>
        <pt x="273" y="1117" on="1"/>
        <pt x="198" y="1117" on="0"/>
      </contour>
      <contour>
        <pt x="599" y="-400" on="0"/>
        <pt x="420" y="-400" on="1"/>
        <pt x="191" y="-400" on="0"/>
        <pt x="32" y="-196" on="1"/>
        <pt x="191" y="-296" on="0"/>
        <pt x="330" y="-296" on="1"/>
        <pt x="413" y="-296" on="0"/>
        <pt x="504" y="-112" on="0"/>
        <pt x="504" y="0" on="1"/>
        <pt x="504" y="920" on="1"/>
        <pt x="504" y="1137" on="0"/>
        <pt x="413" y="1163" on="1"/>
        <pt x="464" y="1117" on="0"/>
        <pt x="464" y="1040" on="1"/>
        <pt x="464" y="850" on="0"/>
        <pt x="272" y="850" on="1"/>
        <pt x="82" y="850" on="0"/>
        <pt x="82" y="1040" on="1"/>
        <pt x="82" y="1300" on="0"/>
        <pt x="437" y="1300" on="1"/>
        <pt x="792" y="1300" on="0"/>
        <pt x="792" y="920" on="1"/>
        <pt x="792" y="0" on="1"/>
        <pt x="792" y="-190" on="0"/>
      </contour>
      <contour>
        <pt x="429" y="1730" on="0"/>
        <pt x="405" y="1709" on="0"/>
        <pt x="391" y="1671" on="0"/>
        <pt x="391" y="1650" on="1"/>
        <pt x="391" y="1629" on="0"/>
        <pt x="405" y="1591" on="0"/>
        <pt x="429" y="1570" on="0"/>
        <pt x="441" y="1570" on="1"/>
        <pt x="454" y="1570" on="0"/>
        <pt x="478" y="1591" on="0"/>
        <pt x="491" y="1629" on="0"/>
        <pt x="491" y="1650" on="1"/>
        <pt x="491" y="1671" on="0"/>
        <pt x="478" y="1709" on="0"/>
        <pt x="454" y="1730" on="0"/>
        <pt x="441" y="1730" on="1"/>
      </contour>
      <contour>
        <pt x="441" y="1850" on="1"/>
        <pt x="505" y="1850" on="0"/>
        <pt x="624" y="1798" on="0"/>
        <pt x="691" y="1702" on="0"/>
        <pt x="691" y="1650" on="1"/>
        <pt x="691" y="1598" on="0"/>
        <pt x="626" y="1503" on="0"/>
        <pt x="506" y="1450" on="0"/>
        <pt x="441" y="1450" on="1"/>
        <pt x="377" y="1450" on="0"/>
        <pt x="257" y="1503" on="0"/>
        <pt x="191" y="1598" on="0"/>
        <pt x="191" y="1650" on="1"/>
        <pt x="191" y="1702" on="0"/>
        <pt x="259" y="1798" on="0"/>
        <pt x="379" y="1850" on="0"/>
      </contour>
    </TTGlyph>
    <TTGlyph name="uni0E88" xMin="82" yMin="0" xMax="1132" yMax="1300">
      <contour>
        <pt x="564" y="591" on="1"/>
        <pt x="639" y="592" on="0"/>
        <pt x="639" y="661" on="1"/>
        <pt x="639" y="728" on="0"/>
        <pt x="567" y="728" on="1"/>
        <pt x="493" y="728" on="0"/>
        <pt x="490" y="660" on="1"/>
        <pt x="490" y="655" on="1"/>
        <pt x="490" y="591" on="0"/>
        <pt x="562" y="591" on="1"/>
      </contour>
      <contour>
        <pt x="1015" y="0" on="0"/>
        <pt x="779" y="0" on="1"/>
        <pt x="553" y="0" on="0"/>
        <pt x="511" y="105" on="1"/>
        <pt x="491" y="151" on="0"/>
        <pt x="491" y="228" on="1"/>
        <pt x="491" y="323" on="0"/>
        <pt x="619" y="481" on="0"/>
        <pt x="619" y="486" on="1"/>
        <pt x="598" y="467" on="0"/>
        <pt x="534" y="467" on="1"/>
        <pt x="528" y="467" on="1"/>
        <pt x="447" y="479" on="0"/>
        <pt x="405" y="526" on="1"/>
        <pt x="362" y="573" on="0"/>
        <pt x="359" y="657" on="1"/>
        <pt x="359" y="667" on="1"/>
        <pt x="359" y="743" on="0"/>
        <pt x="402" y="790" on="1"/>
        <pt x="448" y="838" on="0"/>
        <pt x="541" y="854" on="1"/>
        <pt x="546" y="854" on="1"/>
        <pt x="644" y="854" on="0"/>
        <pt x="700" y="815" on="1"/>
        <pt x="751" y="779" on="0"/>
        <pt x="764" y="710" on="1"/>
        <pt x="774" y="659" on="0"/>
        <pt x="774" y="612" on="1"/>
        <pt x="774" y="536" on="0"/>
        <pt x="747" y="473" on="1"/>
        <pt x="703" y="370" on="0"/>
        <pt x="703" y="241" on="1"/>
        <pt x="703" y="110" on="0"/>
        <pt x="779" y="110" on="1"/>
        <pt x="844" y="110" on="0"/>
        <pt x="844" y="205" on="1"/>
        <pt x="844" y="902" on="1"/>
        <pt x="844" y="1009" on="0"/>
        <pt x="741" y="1176" on="0"/>
        <pt x="577" y="1176" on="1"/>
        <pt x="428" y="1176" on="0"/>
        <pt x="200" y="1100" on="0"/>
        <pt x="82" y="863" on="1"/>
        <pt x="82" y="1126" on="0"/>
        <pt x="206" y="1213" on="1"/>
        <pt x="331" y="1300" on="0"/>
        <pt x="572" y="1300" on="1"/>
        <pt x="883" y="1300" on="0"/>
        <pt x="1132" y="1075" on="0"/>
        <pt x="1132" y="902" on="1"/>
        <pt x="1132" y="201" on="1"/>
        <pt x="1132" y="108" on="0"/>
        <pt x="1078" y="58" on="1"/>
      </contour>
    </TTGlyph>
    <TTGlyph name="uni0E88.am" xMin="82" yMin="0" xMax="1132" yMax="1850">
      <contour>
        <pt x="564" y="591" on="1"/>
        <pt x="639" y="592" on="0"/>
        <pt x="639" y="661" on="1"/>
        <pt x="639" y="728" on="0"/>
        <pt x="567" y="728" on="1"/>
        <pt x="493" y="728" on="0"/>
        <pt x="490" y="660" on="1"/>
        <pt x="490" y="655" on="1"/>
        <pt x="490" y="591" on="0"/>
        <pt x="562" y="591" on="1"/>
      </contour>
      <contour>
        <pt x="1015" y="0" on="0"/>
        <pt x="779" y="0" on="1"/>
        <pt x="553" y="0" on="0"/>
        <pt x="511" y="105" on="1"/>
        <pt x="491" y="151" on="0"/>
        <pt x="491" y="228" on="1"/>
        <pt x="491" y="323" on="0"/>
        <pt x="619" y="481" on="0"/>
        <pt x="619" y="486" on="1"/>
        <pt x="598" y="467" on="0"/>
        <pt x="534" y="467" on="1"/>
        <pt x="528" y="467" on="1"/>
        <pt x="447" y="479" on="0"/>
        <pt x="405" y="526" on="1"/>
        <pt x="362" y="573" on="0"/>
        <pt x="359" y="657" on="1"/>
        <pt x="359" y="667" on="1"/>
        <pt x="359" y="743" on="0"/>
        <pt x="402" y="790" on="1"/>
        <pt x="448" y="838" on="0"/>
        <pt x="541" y="854" on="1"/>
        <pt x="546" y="854" on="1"/>
        <pt x="644" y="854" on="0"/>
        <pt x="700" y="815" on="1"/>
        <pt x="751" y="779" on="0"/>
        <pt x="764" y="710" on="1"/>
        <pt x="774" y="659" on="0"/>
        <pt x="774" y="612" on="1"/>
        <pt x="774" y="536" on="0"/>
        <pt x="747" y="473" on="1"/>
        <pt x="703" y="370" on="0"/>
        <pt x="703" y="241" on="1"/>
        <pt x="703" y="110" on="0"/>
        <pt x="779" y="110" on="1"/>
        <pt x="844" y="110" on="0"/>
        <pt x="844" y="205" on="1"/>
        <pt x="844" y="902" on="1"/>
        <pt x="844" y="1009" on="0"/>
        <pt x="741" y="1176" on="0"/>
        <pt x="577" y="1176" on="1"/>
        <pt x="428" y="1176" on="0"/>
        <pt x="200" y="1100" on="0"/>
        <pt x="82" y="863" on="1"/>
        <pt x="82" y="1126" on="0"/>
        <pt x="206" y="1213" on="1"/>
        <pt x="331" y="1300" on="0"/>
        <pt x="572" y="1300" on="1"/>
        <pt x="883" y="1300" on="0"/>
        <pt x="1132" y="1075" on="0"/>
        <pt x="1132" y="902" on="1"/>
        <pt x="1132" y="201" on="1"/>
        <pt x="1132" y="108" on="0"/>
        <pt x="1078" y="58" on="1"/>
      </contour>
      <contour>
        <pt x="659" y="1730" on="0"/>
        <pt x="635" y="1709" on="0"/>
        <pt x="621" y="1671" on="0"/>
        <pt x="621" y="1650" on="1"/>
        <pt x="621" y="1629" on="0"/>
        <pt x="635" y="1591" on="0"/>
        <pt x="659" y="1570" on="0"/>
        <pt x="671" y="1570" on="1"/>
        <pt x="684" y="1570" on="0"/>
        <pt x="708" y="1591" on="0"/>
        <pt x="721" y="1629" on="0"/>
        <pt x="721" y="1650" on="1"/>
        <pt x="721" y="1671" on="0"/>
        <pt x="708" y="1709" on="0"/>
        <pt x="684" y="1730" on="0"/>
        <pt x="671" y="1730" on="1"/>
      </contour>
      <contour>
        <pt x="671" y="1850" on="1"/>
        <pt x="735" y="1850" on="0"/>
        <pt x="854" y="1798" on="0"/>
        <pt x="921" y="1702" on="0"/>
        <pt x="921" y="1650" on="1"/>
        <pt x="921" y="1598" on="0"/>
        <pt x="856" y="1503" on="0"/>
        <pt x="736" y="1450" on="0"/>
        <pt x="671" y="1450" on="1"/>
        <pt x="607" y="1450" on="0"/>
        <pt x="487" y="1503" on="0"/>
        <pt x="421" y="1598" on="0"/>
        <pt x="421" y="1650" on="1"/>
        <pt x="421" y="1702" on="0"/>
        <pt x="489" y="1798" on="0"/>
        <pt x="609" y="1850" on="0"/>
      </contour>
    </TTGlyph>
    <TTGlyph name="uni0E8A" xMin="97" yMin="-390" xMax="1350" yMax="1300">
      <contour>
        <pt x="368" y="910" on="0"/>
        <pt x="350" y="878" on="0"/>
        <pt x="350" y="860" on="1"/>
        <pt x="350" y="842" on="0"/>
        <pt x="367" y="810" on="0"/>
        <pt x="399" y="793" on="0"/>
        <pt x="417" y="793" on="1"/>
        <pt x="435" y="793" on="0"/>
        <pt x="467" y="810" on="0"/>
        <pt x="485" y="842" on="0"/>
        <pt x="485" y="860" on="1"/>
        <pt x="485" y="878" on="0"/>
        <pt x="466" y="910" on="0"/>
        <pt x="434" y="928" on="0"/>
        <pt x="417" y="928" on="1"/>
        <pt x="400" y="928" on="0"/>
      </contour>
      <contour>
        <pt x="385" y="230" on="1"/>
        <pt x="385" y="110" on="0"/>
        <pt x="459" y="110" on="1"/>
        <pt x="533" y="110" on="0"/>
        <pt x="838" y="305" on="0"/>
        <pt x="945" y="305" on="1"/>
        <pt x="1120" y="305" on="0"/>
        <pt x="1183" y="243" on="1"/>
        <pt x="1247" y="179" on="0"/>
        <pt x="1247" y="-60" on="1"/>
        <pt x="1247" y="-270" on="0"/>
        <pt x="1350" y="-390" on="1"/>
        <pt x="959" y="-300" on="0"/>
        <pt x="959" y="-60" on="1"/>
        <pt x="959" y="161" on="0"/>
        <pt x="895" y="161" on="1"/>
        <pt x="791" y="161" on="0"/>
        <pt x="583" y="0" on="0"/>
        <pt x="413" y="0" on="1"/>
        <pt x="243" y="0" on="0"/>
        <pt x="97" y="115" on="0"/>
        <pt x="97" y="230" on="1"/>
        <pt x="97" y="495" on="0"/>
        <pt x="802" y="662" on="0"/>
        <pt x="969" y="802" on="0"/>
        <pt x="969" y="921" on="1"/>
        <pt x="969" y="1064" on="0"/>
        <pt x="833" y="1190" on="0"/>
        <pt x="677" y="1190" on="1"/>
        <pt x="341" y="1190" on="0"/>
        <pt x="341" y="981" on="1"/>
        <pt x="341" y="980" on="1"/>
        <pt x="360" y="1004" on="0"/>
        <pt x="406" y="1020" on="0"/>
        <pt x="447" y="1020" on="1"/>
        <pt x="487" y="1020" on="0"/>
        <pt x="554" y="969" on="0"/>
        <pt x="577" y="902" on="0"/>
        <pt x="577" y="860" on="1"/>
        <pt x="577" y="818" on="0"/>
        <pt x="535" y="742" on="0"/>
        <pt x="459" y="700" on="0"/>
        <pt x="417" y="700" on="1"/>
        <pt x="97" y="700" on="0"/>
        <pt x="97" y="961" on="1"/>
        <pt x="97" y="1300" on="0"/>
        <pt x="677" y="1300" on="1"/>
        <pt x="987" y="1300" on="0"/>
        <pt x="1257" y="1136" on="0"/>
        <pt x="1257" y="921" on="1"/>
        <pt x="1257" y="750" on="0"/>
        <pt x="912" y="572" on="0"/>
        <pt x="385" y="425" on="0"/>
      </contour>
    </TTGlyph>
    <TTGlyph name="uni0E8A.am" xMin="97" yMin="-390" xMax="1350" yMax="1850">
      <contour>
        <pt x="368" y="910" on="0"/>
        <pt x="350" y="878" on="0"/>
        <pt x="350" y="860" on="1"/>
        <pt x="350" y="842" on="0"/>
        <pt x="367" y="810" on="0"/>
        <pt x="399" y="793" on="0"/>
        <pt x="417" y="793" on="1"/>
        <pt x="435" y="793" on="0"/>
        <pt x="467" y="810" on="0"/>
        <pt x="485" y="842" on="0"/>
        <pt x="485" y="860" on="1"/>
        <pt x="485" y="878" on="0"/>
        <pt x="466" y="910" on="0"/>
        <pt x="434" y="928" on="0"/>
        <pt x="417" y="928" on="1"/>
        <pt x="400" y="928" on="0"/>
      </contour>
      <contour>
        <pt x="385" y="230" on="1"/>
        <pt x="385" y="110" on="0"/>
        <pt x="459" y="110" on="1"/>
        <pt x="533" y="110" on="0"/>
        <pt x="838" y="305" on="0"/>
        <pt x="945" y="305" on="1"/>
        <pt x="1120" y="305" on="0"/>
        <pt x="1183" y="243" on="1"/>
        <pt x="1247" y="179" on="0"/>
        <pt x="1247" y="-60" on="1"/>
        <pt x="1247" y="-270" on="0"/>
        <pt x="1350" y="-390" on="1"/>
        <pt x="959" y="-300" on="0"/>
        <pt x="959" y="-60" on="1"/>
        <pt x="959" y="161" on="0"/>
        <pt x="895" y="161" on="1"/>
        <pt x="791" y="161" on="0"/>
        <pt x="583" y="0" on="0"/>
        <pt x="413" y="0" on="1"/>
        <pt x="243" y="0" on="0"/>
        <pt x="97" y="115" on="0"/>
        <pt x="97" y="230" on="1"/>
        <pt x="97" y="495" on="0"/>
        <pt x="802" y="662" on="0"/>
        <pt x="969" y="802" on="0"/>
        <pt x="969" y="921" on="1"/>
        <pt x="969" y="1064" on="0"/>
        <pt x="833" y="1190" on="0"/>
        <pt x="677" y="1190" on="1"/>
        <pt x="341" y="1190" on="0"/>
        <pt x="341" y="981" on="1"/>
        <pt x="341" y="980" on="1"/>
        <pt x="360" y="1004" on="0"/>
        <pt x="406" y="1020" on="0"/>
        <pt x="447" y="1020" on="1"/>
        <pt x="487" y="1020" on="0"/>
        <pt x="554" y="969" on="0"/>
        <pt x="577" y="902" on="0"/>
        <pt x="577" y="860" on="1"/>
        <pt x="577" y="818" on="0"/>
        <pt x="535" y="742" on="0"/>
        <pt x="459" y="700" on="0"/>
        <pt x="417" y="700" on="1"/>
        <pt x="97" y="700" on="0"/>
        <pt x="97" y="961" on="1"/>
        <pt x="97" y="1300" on="0"/>
        <pt x="677" y="1300" on="1"/>
        <pt x="987" y="1300" on="0"/>
        <pt x="1257" y="1136" on="0"/>
        <pt x="1257" y="921" on="1"/>
        <pt x="1257" y="750" on="0"/>
        <pt x="912" y="572" on="0"/>
        <pt x="385" y="425" on="0"/>
      </contour>
      <contour>
        <pt x="659" y="1730" on="0"/>
        <pt x="635" y="1709" on="0"/>
        <pt x="621" y="1671" on="0"/>
        <pt x="621" y="1650" on="1"/>
        <pt x="621" y="1629" on="0"/>
        <pt x="635" y="1591" on="0"/>
        <pt x="659" y="1570" on="0"/>
        <pt x="671" y="1570" on="1"/>
        <pt x="684" y="1570" on="0"/>
        <pt x="708" y="1591" on="0"/>
        <pt x="721" y="1629" on="0"/>
        <pt x="721" y="1650" on="1"/>
        <pt x="721" y="1671" on="0"/>
        <pt x="708" y="1709" on="0"/>
        <pt x="684" y="1730" on="0"/>
        <pt x="671" y="1730" on="1"/>
      </contour>
      <contour>
        <pt x="671" y="1850" on="1"/>
        <pt x="735" y="1850" on="0"/>
        <pt x="854" y="1798" on="0"/>
        <pt x="921" y="1702" on="0"/>
        <pt x="921" y="1650" on="1"/>
        <pt x="921" y="1598" on="0"/>
        <pt x="856" y="1503" on="0"/>
        <pt x="736" y="1450" on="0"/>
        <pt x="671" y="1450" on="1"/>
        <pt x="607" y="1450" on="0"/>
        <pt x="487" y="1503" on="0"/>
        <pt x="421" y="1598" on="0"/>
        <pt x="421" y="1650" on="1"/>
        <pt x="421" y="1702" on="0"/>
        <pt x="489" y="1798" on="0"/>
        <pt x="609" y="1850" on="0"/>
      </contour>
    </TTGlyph>
    <TTGlyph name="uni0E8D" xMin="97" yMin="0" xMax="1297" yMax="1300">
      <contour>
        <pt x="457" y="1184" on="1"/>
        <pt x="426" y="1184" on="0"/>
        <pt x="408" y="1172" on="1"/>
        <pt x="381" y="1154" on="0"/>
        <pt x="381" y="1109" on="1"/>
        <pt x="381" y="1033" on="0"/>
        <pt x="457" y="1033" on="1"/>
        <pt x="496" y="1033" on="0"/>
        <pt x="515" y="1054" on="1"/>
        <pt x="532" y="1073" on="0"/>
        <pt x="532" y="1109" on="1"/>
        <pt x="532" y="1150" on="0"/>
        <pt x="510" y="1169" on="1"/>
        <pt x="491" y="1184" on="0"/>
      </contour>
      <contour>
        <pt x="1247" y="380" on="1"/>
        <pt x="1247" y="187" on="0"/>
        <pt x="1117" y="92" on="1"/>
        <pt x="993" y="0" on="0"/>
        <pt x="668" y="0" on="1"/>
        <pt x="342" y="0" on="0"/>
        <pt x="217" y="83" on="1"/>
        <pt x="97" y="163" on="0"/>
        <pt x="97" y="350" on="1"/>
        <pt x="97" y="574" on="0"/>
        <pt x="310" y="640" on="1"/>
        <pt x="97" y="713" on="0"/>
        <pt x="97" y="870" on="1"/>
        <pt x="97" y="1005" on="1"/>
        <pt x="97" y="1177" on="0"/>
        <pt x="202" y="1248" on="1"/>
        <pt x="277" y="1300" on="0"/>
        <pt x="457" y="1300" on="1"/>
        <pt x="552" y="1300" on="0"/>
        <pt x="599" y="1253" on="1"/>
        <pt x="647" y="1205" on="0"/>
        <pt x="647" y="1110" on="1"/>
        <pt x="647" y="1014" on="0"/>
        <pt x="600" y="966" on="1"/>
        <pt x="552" y="918" on="0"/>
        <pt x="477" y="918" on="1"/>
        <pt x="431" y="918" on="0"/>
        <pt x="385" y="948" on="1"/>
        <pt x="385" y="870" on="1"/>
        <pt x="385" y="704" on="0"/>
        <pt x="547" y="704" on="1"/>
        <pt x="627" y="704" on="1"/>
        <pt x="627" y="570" on="1"/>
        <pt x="547" y="570" on="1"/>
        <pt x="385" y="570" on="0"/>
        <pt x="385" y="350" on="1"/>
        <pt x="385" y="229" on="0"/>
        <pt x="508" y="110" on="0"/>
        <pt x="668" y="110" on="1"/>
        <pt x="848" y="110" on="0"/>
        <pt x="959" y="253" on="0"/>
        <pt x="959" y="380" on="1"/>
        <pt x="959" y="1100" on="1"/>
        <pt x="959" y="1195" on="0"/>
        <pt x="1009" y="1300" on="1"/>
        <pt x="1297" y="1300" on="1"/>
        <pt x="1247" y="1225" on="0"/>
        <pt x="1247" y="1100" on="1"/>
      </contour>
    </TTGlyph>
    <TTGlyph name="uni0E8D.am" xMin="97" yMin="0" xMax="1297" yMax="1850">
      <contour>
        <pt x="457" y="1184" on="1"/>
        <pt x="426" y="1184" on="0"/>
        <pt x="408" y="1172" on="1"/>
        <pt x="381" y="1154" on="0"/>
        <pt x="381" y="1109" on="1"/>
        <pt x="381" y="1033" on="0"/>
        <pt x="457" y="1033" on="1"/>
        <pt x="496" y="1033" on="0"/>
        <pt x="515" y="1054" on="1"/>
        <pt x="532" y="1073" on="0"/>
        <pt x="532" y="1109" on="1"/>
        <pt x="532" y="1150" on="0"/>
        <pt x="510" y="1169" on="1"/>
        <pt x="491" y="1184" on="0"/>
      </contour>
      <contour>
        <pt x="1247" y="380" on="1"/>
        <pt x="1247" y="187" on="0"/>
        <pt x="1117" y="92" on="1"/>
        <pt x="993" y="0" on="0"/>
        <pt x="668" y="0" on="1"/>
        <pt x="342" y="0" on="0"/>
        <pt x="217" y="83" on="1"/>
        <pt x="97" y="163" on="0"/>
        <pt x="97" y="350" on="1"/>
        <pt x="97" y="574" on="0"/>
        <pt x="310" y="640" on="1"/>
        <pt x="97" y="713" on="0"/>
        <pt x="97" y="870" on="1"/>
        <pt x="97" y="1005" on="1"/>
        <pt x="97" y="1177" on="0"/>
        <pt x="202" y="1248" on="1"/>
        <pt x="277" y="1300" on="0"/>
        <pt x="457" y="1300" on="1"/>
        <pt x="552" y="1300" on="0"/>
        <pt x="599" y="1253" on="1"/>
        <pt x="647" y="1205" on="0"/>
        <pt x="647" y="1110" on="1"/>
        <pt x="647" y="1014" on="0"/>
        <pt x="600" y="966" on="1"/>
        <pt x="552" y="918" on="0"/>
        <pt x="477" y="918" on="1"/>
        <pt x="431" y="918" on="0"/>
        <pt x="385" y="948" on="1"/>
        <pt x="385" y="870" on="1"/>
        <pt x="385" y="704" on="0"/>
        <pt x="547" y="704" on="1"/>
        <pt x="627" y="704" on="1"/>
        <pt x="627" y="570" on="1"/>
        <pt x="547" y="570" on="1"/>
        <pt x="385" y="570" on="0"/>
        <pt x="385" y="350" on="1"/>
        <pt x="385" y="229" on="0"/>
        <pt x="508" y="110" on="0"/>
        <pt x="668" y="110" on="1"/>
        <pt x="848" y="110" on="0"/>
        <pt x="959" y="253" on="0"/>
        <pt x="959" y="380" on="1"/>
        <pt x="959" y="1100" on="1"/>
        <pt x="959" y="1195" on="0"/>
        <pt x="1009" y="1300" on="1"/>
        <pt x="1297" y="1300" on="1"/>
        <pt x="1247" y="1225" on="0"/>
        <pt x="1247" y="1100" on="1"/>
      </contour>
      <contour>
        <pt x="659" y="1730" on="0"/>
        <pt x="635" y="1709" on="0"/>
        <pt x="621" y="1671" on="0"/>
        <pt x="621" y="1650" on="1"/>
        <pt x="621" y="1629" on="0"/>
        <pt x="635" y="1591" on="0"/>
        <pt x="659" y="1570" on="0"/>
        <pt x="671" y="1570" on="1"/>
        <pt x="684" y="1570" on="0"/>
        <pt x="708" y="1591" on="0"/>
        <pt x="721" y="1629" on="0"/>
        <pt x="721" y="1650" on="1"/>
        <pt x="721" y="1671" on="0"/>
        <pt x="708" y="1709" on="0"/>
        <pt x="684" y="1730" on="0"/>
        <pt x="671" y="1730" on="1"/>
      </contour>
      <contour>
        <pt x="671" y="1850" on="1"/>
        <pt x="735" y="1850" on="0"/>
        <pt x="854" y="1798" on="0"/>
        <pt x="921" y="1702" on="0"/>
        <pt x="921" y="1650" on="1"/>
        <pt x="921" y="1598" on="0"/>
        <pt x="856" y="1503" on="0"/>
        <pt x="736" y="1450" on="0"/>
        <pt x="671" y="1450" on="1"/>
        <pt x="607" y="1450" on="0"/>
        <pt x="487" y="1503" on="0"/>
        <pt x="421" y="1598" on="0"/>
        <pt x="421" y="1650" on="1"/>
        <pt x="421" y="1702" on="0"/>
        <pt x="489" y="1798" on="0"/>
        <pt x="609" y="1850" on="0"/>
      </contour>
    </TTGlyph>
    <TTGlyph name="uni0E94" xMin="97" yMin="0" xMax="1247" yMax="1300">
      <contour>
        <pt x="510" y="131" on="1"/>
        <pt x="532" y="150" on="0"/>
        <pt x="532" y="191" on="1"/>
        <pt x="532" y="227" on="0"/>
        <pt x="515" y="246" on="1"/>
        <pt x="496" y="267" on="0"/>
        <pt x="457" y="267" on="1"/>
        <pt x="381" y="267" on="0"/>
        <pt x="381" y="191" on="1"/>
        <pt x="381" y="146" on="0"/>
        <pt x="408" y="128" on="1"/>
        <pt x="426" y="116" on="0"/>
        <pt x="457" y="116" on="1"/>
        <pt x="491" y="116" on="0"/>
      </contour>
      <contour>
        <pt x="959" y="920" on="1"/>
        <pt x="959" y="1047" on="0"/>
        <pt x="848" y="1190" on="0"/>
        <pt x="668" y="1190" on="1"/>
        <pt x="508" y="1190" on="0"/>
        <pt x="385" y="1047" on="0"/>
        <pt x="385" y="920" on="1"/>
        <pt x="385" y="352" on="1"/>
        <pt x="431" y="382" on="0"/>
        <pt x="477" y="382" on="1"/>
        <pt x="552" y="382" on="0"/>
        <pt x="600" y="334" on="1"/>
        <pt x="647" y="286" on="0"/>
        <pt x="647" y="190" on="1"/>
        <pt x="647" y="95" on="0"/>
        <pt x="599" y="47" on="1"/>
        <pt x="552" y="0" on="0"/>
        <pt x="457" y="0" on="1"/>
        <pt x="277" y="0" on="0"/>
        <pt x="202" y="52" on="1"/>
        <pt x="97" y="123" on="0"/>
        <pt x="97" y="295" on="1"/>
        <pt x="97" y="920" on="1"/>
        <pt x="97" y="1137" on="0"/>
        <pt x="217" y="1217" on="1"/>
        <pt x="342" y="1300" on="0"/>
        <pt x="668" y="1300" on="1"/>
        <pt x="993" y="1300" on="0"/>
        <pt x="1117" y="1208" on="1"/>
        <pt x="1247" y="1113" on="0"/>
        <pt x="1247" y="920" on="1"/>
        <pt x="1247" y="200" on="1"/>
        <pt x="1247" y="105" on="0"/>
        <pt x="1197" y="0" on="1"/>
        <pt x="909" y="0" on="1"/>
        <pt x="959" y="75" on="0"/>
        <pt x="959" y="200" on="1"/>
      </contour>
    </TTGlyph>
    <TTGlyph name="uni0E94.am" xMin="97" yMin="0" xMax="1247" yMax="1850">
      <contour>
        <pt x="510" y="131" on="1"/>
        <pt x="532" y="150" on="0"/>
        <pt x="532" y="191" on="1"/>
        <pt x="532" y="227" on="0"/>
        <pt x="515" y="246" on="1"/>
        <pt x="496" y="267" on="0"/>
        <pt x="457" y="267" on="1"/>
        <pt x="381" y="267" on="0"/>
        <pt x="381" y="191" on="1"/>
        <pt x="381" y="146" on="0"/>
        <pt x="408" y="128" on="1"/>
        <pt x="426" y="116" on="0"/>
        <pt x="457" y="116" on="1"/>
        <pt x="491" y="116" on="0"/>
      </contour>
      <contour>
        <pt x="959" y="920" on="1"/>
        <pt x="959" y="1047" on="0"/>
        <pt x="848" y="1190" on="0"/>
        <pt x="668" y="1190" on="1"/>
        <pt x="508" y="1190" on="0"/>
        <pt x="385" y="1047" on="0"/>
        <pt x="385" y="920" on="1"/>
        <pt x="385" y="352" on="1"/>
        <pt x="431" y="382" on="0"/>
        <pt x="477" y="382" on="1"/>
        <pt x="552" y="382" on="0"/>
        <pt x="600" y="334" on="1"/>
        <pt x="647" y="286" on="0"/>
        <pt x="647" y="190" on="1"/>
        <pt x="647" y="95" on="0"/>
        <pt x="599" y="47" on="1"/>
        <pt x="552" y="0" on="0"/>
        <pt x="457" y="0" on="1"/>
        <pt x="277" y="0" on="0"/>
        <pt x="202" y="52" on="1"/>
        <pt x="97" y="123" on="0"/>
        <pt x="97" y="295" on="1"/>
        <pt x="97" y="920" on="1"/>
        <pt x="97" y="1137" on="0"/>
        <pt x="217" y="1217" on="1"/>
        <pt x="342" y="1300" on="0"/>
        <pt x="668" y="1300" on="1"/>
        <pt x="993" y="1300" on="0"/>
        <pt x="1117" y="1208" on="1"/>
        <pt x="1247" y="1113" on="0"/>
        <pt x="1247" y="920" on="1"/>
        <pt x="1247" y="200" on="1"/>
        <pt x="1247" y="105" on="0"/>
        <pt x="1197" y="0" on="1"/>
        <pt x="909" y="0" on="1"/>
        <pt x="959" y="75" on="0"/>
        <pt x="959" y="200" on="1"/>
      </contour>
      <contour>
        <pt x="659" y="1730" on="0"/>
        <pt x="635" y="1709" on="0"/>
        <pt x="621" y="1671" on="0"/>
        <pt x="621" y="1650" on="1"/>
        <pt x="621" y="1629" on="0"/>
        <pt x="635" y="1591" on="0"/>
        <pt x="659" y="1570" on="0"/>
        <pt x="671" y="1570" on="1"/>
        <pt x="684" y="1570" on="0"/>
        <pt x="708" y="1591" on="0"/>
        <pt x="721" y="1629" on="0"/>
        <pt x="721" y="1650" on="1"/>
        <pt x="721" y="1671" on="0"/>
        <pt x="708" y="1709" on="0"/>
        <pt x="684" y="1730" on="0"/>
        <pt x="671" y="1730" on="1"/>
      </contour>
      <contour>
        <pt x="671" y="1850" on="1"/>
        <pt x="735" y="1850" on="0"/>
        <pt x="854" y="1798" on="0"/>
        <pt x="921" y="1702" on="0"/>
        <pt x="921" y="1650" on="1"/>
        <pt x="921" y="1598" on="0"/>
        <pt x="856" y="1503" on="0"/>
        <pt x="736" y="1450" on="0"/>
        <pt x="671" y="1450" on="1"/>
        <pt x="607" y="1450" on="0"/>
        <pt x="487" y="1503" on="0"/>
        <pt x="421" y="1598" on="0"/>
        <pt x="421" y="1650" on="1"/>
        <pt x="421" y="1702" on="0"/>
        <pt x="489" y="1798" on="0"/>
        <pt x="609" y="1850" on="0"/>
      </contour>
    </TTGlyph>
    <TTGlyph name="uni0E95" xMin="118" yMin="0" xMax="1268" yMax="1300">
      <contour>
        <pt x="531" y="131" on="1"/>
        <pt x="553" y="150" on="0"/>
        <pt x="553" y="191" on="1"/>
        <pt x="553" y="227" on="0"/>
        <pt x="536" y="246" on="1"/>
        <pt x="517" y="267" on="0"/>
        <pt x="478" y="267" on="1"/>
        <pt x="402" y="267" on="0"/>
        <pt x="402" y="191" on="1"/>
        <pt x="402" y="146" on="0"/>
        <pt x="429" y="128" on="1"/>
        <pt x="447" y="116" on="0"/>
        <pt x="478" y="116" on="1"/>
        <pt x="512" y="116" on="0"/>
      </contour>
      <contour>
        <pt x="406" y="352" on="1"/>
        <pt x="452" y="382" on="0"/>
        <pt x="498" y="382" on="1"/>
        <pt x="573" y="382" on="0"/>
        <pt x="621" y="334" on="1"/>
        <pt x="668" y="286" on="0"/>
        <pt x="668" y="190" on="1"/>
        <pt x="668" y="95" on="0"/>
        <pt x="620" y="47" on="1"/>
        <pt x="573" y="0" on="0"/>
        <pt x="478" y="0" on="1"/>
        <pt x="298" y="0" on="0"/>
        <pt x="223" y="52" on="1"/>
        <pt x="118" y="123" on="0"/>
        <pt x="118" y="295" on="1"/>
        <pt x="118" y="920" on="1"/>
        <pt x="118" y="1135" on="0"/>
        <pt x="213" y="1228" on="1"/>
        <pt x="285" y="1300" on="0"/>
        <pt x="434" y="1300" on="1"/>
        <pt x="597" y="1300" on="0"/>
        <pt x="693" y="1127" on="1"/>
        <pt x="789" y="1300" on="0"/>
        <pt x="952" y="1300" on="1"/>
        <pt x="1102" y="1300" on="0"/>
        <pt x="1176" y="1226" on="1"/>
        <pt x="1268" y="1132" on="0"/>
        <pt x="1268" y="920" on="1"/>
        <pt x="1268" y="200" on="1"/>
        <pt x="1268" y="105" on="0"/>
        <pt x="1218" y="0" on="1"/>
        <pt x="930" y="0" on="1"/>
        <pt x="980" y="75" on="0"/>
        <pt x="980" y="200" on="1"/>
        <pt x="980" y="920" on="1"/>
        <pt x="980" y="1066" on="0"/>
        <pt x="960" y="1166" on="0"/>
        <pt x="922" y="1166" on="1"/>
        <pt x="852" y="1166" on="0"/>
        <pt x="693" y="973" on="1"/>
        <pt x="534" y="1166" on="0"/>
        <pt x="464" y="1166" on="1"/>
        <pt x="426" y="1166" on="0"/>
        <pt x="406" y="1066" on="0"/>
        <pt x="406" y="920" on="1"/>
      </contour>
    </TTGlyph>
    <TTGlyph name="uni0E95.am" xMin="118" yMin="0" xMax="1268" yMax="1850">
      <contour>
        <pt x="531" y="131" on="1"/>
        <pt x="553" y="150" on="0"/>
        <pt x="553" y="191" on="1"/>
        <pt x="553" y="227" on="0"/>
        <pt x="536" y="246" on="1"/>
        <pt x="517" y="267" on="0"/>
        <pt x="478" y="267" on="1"/>
        <pt x="402" y="267" on="0"/>
        <pt x="402" y="191" on="1"/>
        <pt x="402" y="146" on="0"/>
        <pt x="429" y="128" on="1"/>
        <pt x="447" y="116" on="0"/>
        <pt x="478" y="116" on="1"/>
        <pt x="512" y="116" on="0"/>
      </contour>
      <contour>
        <pt x="406" y="352" on="1"/>
        <pt x="452" y="382" on="0"/>
        <pt x="498" y="382" on="1"/>
        <pt x="573" y="382" on="0"/>
        <pt x="621" y="334" on="1"/>
        <pt x="668" y="286" on="0"/>
        <pt x="668" y="190" on="1"/>
        <pt x="668" y="95" on="0"/>
        <pt x="620" y="47" on="1"/>
        <pt x="573" y="0" on="0"/>
        <pt x="478" y="0" on="1"/>
        <pt x="298" y="0" on="0"/>
        <pt x="223" y="52" on="1"/>
        <pt x="118" y="123" on="0"/>
        <pt x="118" y="295" on="1"/>
        <pt x="118" y="920" on="1"/>
        <pt x="118" y="1135" on="0"/>
        <pt x="213" y="1228" on="1"/>
        <pt x="285" y="1300" on="0"/>
        <pt x="434" y="1300" on="1"/>
        <pt x="597" y="1300" on="0"/>
        <pt x="693" y="1127" on="1"/>
        <pt x="789" y="1300" on="0"/>
        <pt x="952" y="1300" on="1"/>
        <pt x="1102" y="1300" on="0"/>
        <pt x="1176" y="1226" on="1"/>
        <pt x="1268" y="1132" on="0"/>
        <pt x="1268" y="920" on="1"/>
        <pt x="1268" y="200" on="1"/>
        <pt x="1268" y="105" on="0"/>
        <pt x="1218" y="0" on="1"/>
        <pt x="930" y="0" on="1"/>
        <pt x="980" y="75" on="0"/>
        <pt x="980" y="200" on="1"/>
        <pt x="980" y="920" on="1"/>
        <pt x="980" y="1066" on="0"/>
        <pt x="960" y="1166" on="0"/>
        <pt x="922" y="1166" on="1"/>
        <pt x="852" y="1166" on="0"/>
        <pt x="693" y="973" on="1"/>
        <pt x="534" y="1166" on="0"/>
        <pt x="464" y="1166" on="1"/>
        <pt x="426" y="1166" on="0"/>
        <pt x="406" y="1066" on="0"/>
        <pt x="406" y="920" on="1"/>
      </contour>
      <contour>
        <pt x="659" y="1730" on="0"/>
        <pt x="635" y="1709" on="0"/>
        <pt x="621" y="1671" on="0"/>
        <pt x="621" y="1650" on="1"/>
        <pt x="621" y="1629" on="0"/>
        <pt x="635" y="1591" on="0"/>
        <pt x="659" y="1570" on="0"/>
        <pt x="671" y="1570" on="1"/>
        <pt x="684" y="1570" on="0"/>
        <pt x="708" y="1591" on="0"/>
        <pt x="721" y="1629" on="0"/>
        <pt x="721" y="1650" on="1"/>
        <pt x="721" y="1671" on="0"/>
        <pt x="708" y="1709" on="0"/>
        <pt x="684" y="1730" on="0"/>
        <pt x="671" y="1730" on="1"/>
      </contour>
      <contour>
        <pt x="671" y="1850" on="1"/>
        <pt x="735" y="1850" on="0"/>
        <pt x="854" y="1798" on="0"/>
        <pt x="921" y="1702" on="0"/>
        <pt x="921" y="1650" on="1"/>
        <pt x="921" y="1598" on="0"/>
        <pt x="856" y="1503" on="0"/>
        <pt x="736" y="1450" on="0"/>
        <pt x="671" y="1450" on="1"/>
        <pt x="607" y="1450" on="0"/>
        <pt x="487" y="1503" on="0"/>
        <pt x="421" y="1598" on="0"/>
        <pt x="421" y="1650" on="1"/>
        <pt x="421" y="1702" on="0"/>
        <pt x="489" y="1798" on="0"/>
        <pt x="609" y="1850" on="0"/>
      </contour>
    </TTGlyph>
    <TTGlyph name="uni0E96" xMin="82" yMin="-400" xMax="1418" yMax="1300">
      <contour>
        <pt x="595" y="267" on="1"/>
        <pt x="519" y="267" on="0"/>
        <pt x="519" y="191" on="1"/>
        <pt x="519" y="116" on="0"/>
        <pt x="595" y="116" on="1"/>
        <pt x="670" y="116" on="0"/>
        <pt x="670" y="191" on="1"/>
        <pt x="670" y="267" on="0"/>
      </contour>
      <contour>
        <pt x="290" y="1045" on="1"/>
        <pt x="290" y="1068" on="1"/>
        <pt x="290" y="1186" on="0"/>
        <pt x="244" y="1186" on="1"/>
        <pt x="198" y="1186" on="0"/>
        <pt x="198" y="1115" on="1"/>
        <pt x="198" y="1044" on="0"/>
        <pt x="261" y="1044" on="1"/>
        <pt x="276" y="1044" on="0"/>
      </contour>
      <contour>
        <pt x="578" y="375" on="1"/>
        <pt x="608" y="382" on="0"/>
        <pt x="645" y="382" on="1"/>
        <pt x="696" y="382" on="0"/>
        <pt x="744" y="328" on="1"/>
        <pt x="786" y="281" on="0"/>
        <pt x="786" y="191" on="1"/>
        <pt x="786" y="102" on="0"/>
        <pt x="744" y="54" on="1"/>
        <pt x="697" y="0" on="0"/>
        <pt x="595" y="0" on="1"/>
        <pt x="424" y="0" on="0"/>
        <pt x="361" y="58" on="1"/>
        <pt x="290" y="123" on="0"/>
        <pt x="290" y="260" on="1"/>
        <pt x="290" y="930" on="1"/>
        <pt x="263" y="930" on="1"/>
        <pt x="189" y="930" on="0"/>
        <pt x="132" y="983" on="1"/>
        <pt x="82" y="1029" on="0"/>
        <pt x="82" y="1115" on="1"/>
        <pt x="82" y="1209" on="0"/>
        <pt x="131" y="1255" on="1"/>
        <pt x="179" y="1300" on="0"/>
        <pt x="273" y="1300" on="1"/>
        <pt x="525" y="1300" on="0"/>
        <pt x="567" y="1159" on="1"/>
        <pt x="678" y="1300" on="0"/>
        <pt x="896" y="1300" on="1"/>
        <pt x="1113" y="1300" on="0"/>
        <pt x="1328" y="1124" on="0"/>
        <pt x="1328" y="950" on="1"/>
        <pt x="1328" y="-50" on="1"/>
        <pt x="1328" y="-305" on="0"/>
        <pt x="1418" y="-400" on="1"/>
        <pt x="1250" y="-400" on="0"/>
        <pt x="1040" y="-225" on="0"/>
        <pt x="1040" y="-50" on="1"/>
        <pt x="1040" y="950" on="1"/>
        <pt x="1040" y="1039" on="0"/>
        <pt x="968" y="1190" on="0"/>
        <pt x="846" y="1190" on="1"/>
        <pt x="708" y="1190" on="0"/>
        <pt x="611" y="1033" on="1"/>
        <pt x="578" y="985" on="1"/>
      </contour>
    </TTGlyph>
    <TTGlyph name="uni0E96.am" xMin="82" yMin="-400" xMax="1418" yMax="1850">
      <contour>
        <pt x="595" y="267" on="1"/>
        <pt x="519" y="267" on="0"/>
        <pt x="519" y="191" on="1"/>
        <pt x="519" y="116" on="0"/>
        <pt x="595" y="116" on="1"/>
        <pt x="670" y="116" on="0"/>
        <pt x="670" y="191" on="1"/>
        <pt x="670" y="267" on="0"/>
      </contour>
      <contour>
        <pt x="290" y="1045" on="1"/>
        <pt x="290" y="1068" on="1"/>
        <pt x="290" y="1186" on="0"/>
        <pt x="244" y="1186" on="1"/>
        <pt x="198" y="1186" on="0"/>
        <pt x="198" y="1115" on="1"/>
        <pt x="198" y="1044" on="0"/>
        <pt x="261" y="1044" on="1"/>
        <pt x="276" y="1044" on="0"/>
      </contour>
      <contour>
        <pt x="578" y="375" on="1"/>
        <pt x="608" y="382" on="0"/>
        <pt x="645" y="382" on="1"/>
        <pt x="696" y="382" on="0"/>
        <pt x="744" y="328" on="1"/>
        <pt x="786" y="281" on="0"/>
        <pt x="786" y="191" on="1"/>
        <pt x="786" y="102" on="0"/>
        <pt x="744" y="54" on="1"/>
        <pt x="697" y="0" on="0"/>
        <pt x="595" y="0" on="1"/>
        <pt x="424" y="0" on="0"/>
        <pt x="361" y="58" on="1"/>
        <pt x="290" y="123" on="0"/>
        <pt x="290" y="260" on="1"/>
        <pt x="290" y="930" on="1"/>
        <pt x="263" y="930" on="1"/>
        <pt x="189" y="930" on="0"/>
        <pt x="132" y="983" on="1"/>
        <pt x="82" y="1029" on="0"/>
        <pt x="82" y="1115" on="1"/>
        <pt x="82" y="1209" on="0"/>
        <pt x="131" y="1255" on="1"/>
        <pt x="179" y="1300" on="0"/>
        <pt x="273" y="1300" on="1"/>
        <pt x="525" y="1300" on="0"/>
        <pt x="567" y="1159" on="1"/>
        <pt x="678" y="1300" on="0"/>
        <pt x="896" y="1300" on="1"/>
        <pt x="1113" y="1300" on="0"/>
        <pt x="1328" y="1124" on="0"/>
        <pt x="1328" y="950" on="1"/>
        <pt x="1328" y="-50" on="1"/>
        <pt x="1328" y="-305" on="0"/>
        <pt x="1418" y="-400" on="1"/>
        <pt x="1250" y="-400" on="0"/>
        <pt x="1040" y="-225" on="0"/>
        <pt x="1040" y="-50" on="1"/>
        <pt x="1040" y="950" on="1"/>
        <pt x="1040" y="1039" on="0"/>
        <pt x="968" y="1190" on="0"/>
        <pt x="846" y="1190" on="1"/>
        <pt x="708" y="1190" on="0"/>
        <pt x="611" y="1033" on="1"/>
        <pt x="578" y="985" on="1"/>
      </contour>
      <contour>
        <pt x="849" y="1730" on="0"/>
        <pt x="825" y="1709" on="0"/>
        <pt x="811" y="1671" on="0"/>
        <pt x="811" y="1650" on="1"/>
        <pt x="811" y="1629" on="0"/>
        <pt x="825" y="1591" on="0"/>
        <pt x="849" y="1570" on="0"/>
        <pt x="861" y="1570" on="1"/>
        <pt x="874" y="1570" on="0"/>
        <pt x="898" y="1591" on="0"/>
        <pt x="911" y="1629" on="0"/>
        <pt x="911" y="1650" on="1"/>
        <pt x="911" y="1671" on="0"/>
        <pt x="898" y="1709" on="0"/>
        <pt x="874" y="1730" on="0"/>
        <pt x="861" y="1730" on="1"/>
      </contour>
      <contour>
        <pt x="861" y="1850" on="1"/>
        <pt x="925" y="1850" on="0"/>
        <pt x="1044" y="1798" on="0"/>
        <pt x="1111" y="1702" on="0"/>
        <pt x="1111" y="1650" on="1"/>
        <pt x="1111" y="1598" on="0"/>
        <pt x="1046" y="1503" on="0"/>
        <pt x="926" y="1450" on="0"/>
        <pt x="861" y="1450" on="1"/>
        <pt x="797" y="1450" on="0"/>
        <pt x="677" y="1503" on="0"/>
        <pt x="611" y="1598" on="0"/>
        <pt x="611" y="1650" on="1"/>
        <pt x="611" y="1702" on="0"/>
        <pt x="679" y="1798" on="0"/>
        <pt x="799" y="1850" on="0"/>
      </contour>
    </TTGlyph>
    <TTGlyph name="uni0E97" xMin="97" yMin="0" xMax="1515" yMax="1300">
      <contour>
        <pt x="267" y="1055" on="1"/>
        <pt x="331" y="1055" on="0"/>
        <pt x="331" y="1118" on="1"/>
        <pt x="331" y="1182" on="0"/>
        <pt x="267" y="1182" on="1"/>
        <pt x="203" y="1182" on="0"/>
        <pt x="203" y="1118" on="1"/>
        <pt x="203" y="1055" on="0"/>
      </contour>
      <contour>
        <pt x="1227" y="905" on="1"/>
        <pt x="1227" y="1099" on="0"/>
        <pt x="1183" y="1190" on="0"/>
        <pt x="1096" y="1190" on="1"/>
        <pt x="1009" y="1190" on="0"/>
        <pt x="965" y="1100" on="0"/>
        <pt x="965" y="905" on="1"/>
        <pt x="965" y="374" on="1"/>
        <pt x="965" y="164" on="0"/>
        <pt x="866" y="79" on="1"/>
        <pt x="775" y="0" on="0"/>
        <pt x="531" y="0" on="1"/>
        <pt x="288" y="0" on="0"/>
        <pt x="197" y="78" on="1"/>
        <pt x="97" y="164" on="0"/>
        <pt x="97" y="374" on="1"/>
        <pt x="97" y="692" on="0"/>
        <pt x="213" y="847" on="1"/>
        <pt x="253" y="899" on="0"/>
        <pt x="280" y="946" on="1"/>
        <pt x="189" y="947" on="0"/>
        <pt x="97" y="1033" on="0"/>
        <pt x="97" y="1118" on="1"/>
        <pt x="97" y="1209" on="0"/>
        <pt x="190" y="1300" on="0"/>
        <pt x="282" y="1300" on="1"/>
        <pt x="436" y="1300" on="0"/>
        <pt x="539" y="1209" on="0"/>
        <pt x="539" y="1118" on="1"/>
        <pt x="539" y="992" on="0"/>
        <pt x="385" y="648" on="0"/>
        <pt x="385" y="374" on="1"/>
        <pt x="385" y="206" on="0"/>
        <pt x="430" y="110" on="0"/>
        <pt x="531" y="110" on="1"/>
        <pt x="634" y="110" on="0"/>
        <pt x="677" y="208" on="0"/>
        <pt x="677" y="374" on="1"/>
        <pt x="677" y="905" on="1"/>
        <pt x="677" y="1135" on="0"/>
        <pt x="782" y="1225" on="1"/>
        <pt x="868" y="1300" on="0"/>
        <pt x="1096" y="1300" on="1"/>
        <pt x="1324" y="1300" on="0"/>
        <pt x="1411" y="1225" on="1"/>
        <pt x="1515" y="1134" on="0"/>
        <pt x="1515" y="905" on="1"/>
        <pt x="1515" y="200" on="1"/>
        <pt x="1515" y="105" on="0"/>
        <pt x="1465" y="0" on="1"/>
        <pt x="1177" y="0" on="1"/>
        <pt x="1227" y="75" on="0"/>
        <pt x="1227" y="200" on="1"/>
      </contour>
    </TTGlyph>
    <TTGlyph name="uni0E97.am" xMin="97" yMin="0" xMax="1515" yMax="1850">
      <contour>
        <pt x="267" y="1055" on="1"/>
        <pt x="331" y="1055" on="0"/>
        <pt x="331" y="1118" on="1"/>
        <pt x="331" y="1182" on="0"/>
        <pt x="267" y="1182" on="1"/>
        <pt x="203" y="1182" on="0"/>
        <pt x="203" y="1118" on="1"/>
        <pt x="203" y="1055" on="0"/>
      </contour>
      <contour>
        <pt x="1227" y="905" on="1"/>
        <pt x="1227" y="1099" on="0"/>
        <pt x="1183" y="1190" on="0"/>
        <pt x="1096" y="1190" on="1"/>
        <pt x="1009" y="1190" on="0"/>
        <pt x="965" y="1100" on="0"/>
        <pt x="965" y="905" on="1"/>
        <pt x="965" y="374" on="1"/>
        <pt x="965" y="164" on="0"/>
        <pt x="866" y="79" on="1"/>
        <pt x="775" y="0" on="0"/>
        <pt x="531" y="0" on="1"/>
        <pt x="288" y="0" on="0"/>
        <pt x="197" y="78" on="1"/>
        <pt x="97" y="164" on="0"/>
        <pt x="97" y="374" on="1"/>
        <pt x="97" y="692" on="0"/>
        <pt x="213" y="847" on="1"/>
        <pt x="253" y="899" on="0"/>
        <pt x="280" y="946" on="1"/>
        <pt x="189" y="947" on="0"/>
        <pt x="97" y="1033" on="0"/>
        <pt x="97" y="1118" on="1"/>
        <pt x="97" y="1209" on="0"/>
        <pt x="190" y="1300" on="0"/>
        <pt x="282" y="1300" on="1"/>
        <pt x="436" y="1300" on="0"/>
        <pt x="539" y="1209" on="0"/>
        <pt x="539" y="1118" on="1"/>
        <pt x="539" y="992" on="0"/>
        <pt x="385" y="648" on="0"/>
        <pt x="385" y="374" on="1"/>
        <pt x="385" y="206" on="0"/>
        <pt x="430" y="110" on="0"/>
        <pt x="531" y="110" on="1"/>
        <pt x="634" y="110" on="0"/>
        <pt x="677" y="208" on="0"/>
        <pt x="677" y="374" on="1"/>
        <pt x="677" y="905" on="1"/>
        <pt x="677" y="1135" on="0"/>
        <pt x="782" y="1225" on="1"/>
        <pt x="868" y="1300" on="0"/>
        <pt x="1096" y="1300" on="1"/>
        <pt x="1324" y="1300" on="0"/>
        <pt x="1411" y="1225" on="1"/>
        <pt x="1515" y="1134" on="0"/>
        <pt x="1515" y="905" on="1"/>
        <pt x="1515" y="200" on="1"/>
        <pt x="1515" y="105" on="0"/>
        <pt x="1465" y="0" on="1"/>
        <pt x="1177" y="0" on="1"/>
        <pt x="1227" y="75" on="0"/>
        <pt x="1227" y="200" on="1"/>
      </contour>
      <contour>
        <pt x="1049" y="1730" on="0"/>
        <pt x="1025" y="1709" on="0"/>
        <pt x="1011" y="1671" on="0"/>
        <pt x="1011" y="1650" on="1"/>
        <pt x="1011" y="1629" on="0"/>
        <pt x="1025" y="1591" on="0"/>
        <pt x="1049" y="1570" on="0"/>
        <pt x="1061" y="1570" on="1"/>
        <pt x="1074" y="1570" on="0"/>
        <pt x="1098" y="1591" on="0"/>
        <pt x="1111" y="1629" on="0"/>
        <pt x="1111" y="1650" on="1"/>
        <pt x="1111" y="1671" on="0"/>
        <pt x="1098" y="1709" on="0"/>
        <pt x="1074" y="1730" on="0"/>
        <pt x="1061" y="1730" on="1"/>
      </contour>
      <contour>
        <pt x="1061" y="1850" on="1"/>
        <pt x="1125" y="1850" on="0"/>
        <pt x="1244" y="1798" on="0"/>
        <pt x="1311" y="1702" on="0"/>
        <pt x="1311" y="1650" on="1"/>
        <pt x="1311" y="1598" on="0"/>
        <pt x="1246" y="1503" on="0"/>
        <pt x="1126" y="1450" on="0"/>
        <pt x="1061" y="1450" on="1"/>
        <pt x="997" y="1450" on="0"/>
        <pt x="877" y="1503" on="0"/>
        <pt x="811" y="1598" on="0"/>
        <pt x="811" y="1650" on="1"/>
        <pt x="811" y="1702" on="0"/>
        <pt x="879" y="1798" on="0"/>
        <pt x="999" y="1850" on="0"/>
      </contour>
    </TTGlyph>
    <TTGlyph name="uni0E99" xMin="82" yMin="0" xMax="1328" yMax="1300">
      <contour>
        <pt x="273" y="1033" on="1"/>
        <pt x="349" y="1033" on="0"/>
        <pt x="349" y="1109" on="1"/>
        <pt x="349" y="1184" on="0"/>
        <pt x="273" y="1184" on="1"/>
        <pt x="198" y="1184" on="0"/>
        <pt x="198" y="1109" on="1"/>
        <pt x="198" y="1033" on="0"/>
      </contour>
      <contour>
        <pt x="290" y="925" on="1"/>
        <pt x="260" y="918" on="0"/>
        <pt x="223" y="918" on="1"/>
        <pt x="172" y="918" on="0"/>
        <pt x="124" y="972" on="1"/>
        <pt x="82" y="1019" on="0"/>
        <pt x="82" y="1109" on="1"/>
        <pt x="82" y="1198" on="0"/>
        <pt x="124" y="1246" on="1"/>
        <pt x="171" y="1300" on="0"/>
        <pt x="273" y="1300" on="1"/>
        <pt x="444" y="1300" on="0"/>
        <pt x="507" y="1242" on="1"/>
        <pt x="578" y="1177" on="0"/>
        <pt x="578" y="1040" on="1"/>
        <pt x="578" y="390" on="1"/>
        <pt x="578" y="307" on="0"/>
        <pt x="569" y="252" on="1"/>
        <pt x="627" y="247" on="0"/>
        <pt x="684" y="190" on="1"/>
        <pt x="741" y="110" on="0"/>
        <pt x="849" y="110" on="1"/>
        <pt x="968" y="110" on="0"/>
        <pt x="1040" y="256" on="0"/>
        <pt x="1040" y="360" on="1"/>
        <pt x="1040" y="1100" on="1"/>
        <pt x="1040" y="1225" on="0"/>
        <pt x="990" y="1300" on="1"/>
        <pt x="1278" y="1300" on="1"/>
        <pt x="1328" y="1195" on="0"/>
        <pt x="1328" y="1100" on="1"/>
        <pt x="1328" y="360" on="1"/>
        <pt x="1328" y="183" on="0"/>
        <pt x="1121" y="0" on="0"/>
        <pt x="869" y="0" on="1"/>
        <pt x="698" y="0" on="0"/>
        <pt x="600" y="106" on="1"/>
        <pt x="567" y="141" on="0"/>
        <pt x="529" y="144" on="1"/>
        <pt x="441" y="0" on="0"/>
        <pt x="147" y="0" on="1"/>
        <pt x="97" y="144" on="1"/>
        <pt x="194" y="144" on="0"/>
        <pt x="290" y="247" on="0"/>
        <pt x="290" y="390" on="1"/>
      </contour>
    </TTGlyph>
    <TTGlyph name="uni0E99.am" xMin="82" yMin="0" xMax="1328" yMax="1850">
      <contour>
        <pt x="273" y="1033" on="1"/>
        <pt x="349" y="1033" on="0"/>
        <pt x="349" y="1109" on="1"/>
        <pt x="349" y="1184" on="0"/>
        <pt x="273" y="1184" on="1"/>
        <pt x="198" y="1184" on="0"/>
        <pt x="198" y="1109" on="1"/>
        <pt x="198" y="1033" on="0"/>
      </contour>
      <contour>
        <pt x="290" y="925" on="1"/>
        <pt x="260" y="918" on="0"/>
        <pt x="223" y="918" on="1"/>
        <pt x="172" y="918" on="0"/>
        <pt x="124" y="972" on="1"/>
        <pt x="82" y="1019" on="0"/>
        <pt x="82" y="1109" on="1"/>
        <pt x="82" y="1198" on="0"/>
        <pt x="124" y="1246" on="1"/>
        <pt x="171" y="1300" on="0"/>
        <pt x="273" y="1300" on="1"/>
        <pt x="444" y="1300" on="0"/>
        <pt x="507" y="1242" on="1"/>
        <pt x="578" y="1177" on="0"/>
        <pt x="578" y="1040" on="1"/>
        <pt x="578" y="390" on="1"/>
        <pt x="578" y="307" on="0"/>
        <pt x="569" y="252" on="1"/>
        <pt x="627" y="247" on="0"/>
        <pt x="684" y="190" on="1"/>
        <pt x="741" y="110" on="0"/>
        <pt x="849" y="110" on="1"/>
        <pt x="968" y="110" on="0"/>
        <pt x="1040" y="256" on="0"/>
        <pt x="1040" y="360" on="1"/>
        <pt x="1040" y="1100" on="1"/>
        <pt x="1040" y="1225" on="0"/>
        <pt x="990" y="1300" on="1"/>
        <pt x="1278" y="1300" on="1"/>
        <pt x="1328" y="1195" on="0"/>
        <pt x="1328" y="1100" on="1"/>
        <pt x="1328" y="360" on="1"/>
        <pt x="1328" y="183" on="0"/>
        <pt x="1121" y="0" on="0"/>
        <pt x="869" y="0" on="1"/>
        <pt x="698" y="0" on="0"/>
        <pt x="600" y="106" on="1"/>
        <pt x="567" y="141" on="0"/>
        <pt x="529" y="144" on="1"/>
        <pt x="441" y="0" on="0"/>
        <pt x="147" y="0" on="1"/>
        <pt x="97" y="144" on="1"/>
        <pt x="194" y="144" on="0"/>
        <pt x="290" y="247" on="0"/>
        <pt x="290" y="390" on="1"/>
      </contour>
      <contour>
        <pt x="659" y="1730" on="0"/>
        <pt x="635" y="1709" on="0"/>
        <pt x="621" y="1671" on="0"/>
        <pt x="621" y="1650" on="1"/>
        <pt x="621" y="1629" on="0"/>
        <pt x="635" y="1591" on="0"/>
        <pt x="659" y="1570" on="0"/>
        <pt x="671" y="1570" on="1"/>
        <pt x="684" y="1570" on="0"/>
        <pt x="708" y="1591" on="0"/>
        <pt x="721" y="1629" on="0"/>
        <pt x="721" y="1650" on="1"/>
        <pt x="721" y="1671" on="0"/>
        <pt x="708" y="1709" on="0"/>
        <pt x="684" y="1730" on="0"/>
        <pt x="671" y="1730" on="1"/>
      </contour>
      <contour>
        <pt x="671" y="1850" on="1"/>
        <pt x="735" y="1850" on="0"/>
        <pt x="854" y="1798" on="0"/>
        <pt x="921" y="1702" on="0"/>
        <pt x="921" y="1650" on="1"/>
        <pt x="921" y="1598" on="0"/>
        <pt x="856" y="1503" on="0"/>
        <pt x="736" y="1450" on="0"/>
        <pt x="671" y="1450" on="1"/>
        <pt x="607" y="1450" on="0"/>
        <pt x="487" y="1503" on="0"/>
        <pt x="421" y="1598" on="0"/>
        <pt x="421" y="1650" on="1"/>
        <pt x="421" y="1702" on="0"/>
        <pt x="489" y="1798" on="0"/>
        <pt x="609" y="1850" on="0"/>
      </contour>
    </TTGlyph>
    <TTGlyph name="uni0E9A" xMin="97" yMin="0" xMax="1247" yMax="1300">
      <contour>
        <pt x="267" y="1055" on="1"/>
        <pt x="331" y="1055" on="0"/>
        <pt x="331" y="1118" on="1"/>
        <pt x="331" y="1182" on="0"/>
        <pt x="267" y="1182" on="1"/>
        <pt x="203" y="1182" on="0"/>
        <pt x="203" y="1118" on="1"/>
        <pt x="203" y="1055" on="0"/>
      </contour>
      <contour>
        <pt x="385" y="430" on="1"/>
        <pt x="385" y="223" on="0"/>
        <pt x="491" y="110" on="0"/>
        <pt x="672" y="110" on="1"/>
        <pt x="852" y="110" on="0"/>
        <pt x="959" y="232" on="0"/>
        <pt x="959" y="430" on="1"/>
        <pt x="959" y="1100" on="1"/>
        <pt x="959" y="1225" on="0"/>
        <pt x="909" y="1300" on="1"/>
        <pt x="1197" y="1300" on="1"/>
        <pt x="1247" y="1195" on="0"/>
        <pt x="1247" y="1100" on="1"/>
        <pt x="1247" y="430" on="1"/>
        <pt x="1247" y="190" on="0"/>
        <pt x="1122" y="95" on="1"/>
        <pt x="997" y="0" on="0"/>
        <pt x="671" y="0" on="1"/>
        <pt x="345" y="0" on="0"/>
        <pt x="220" y="92" on="1"/>
        <pt x="97" y="183" on="0"/>
        <pt x="97" y="430" on="1"/>
        <pt x="97" y="692" on="0"/>
        <pt x="213" y="847" on="1"/>
        <pt x="253" y="899" on="0"/>
        <pt x="280" y="946" on="1"/>
        <pt x="189" y="947" on="0"/>
        <pt x="97" y="1033" on="0"/>
        <pt x="97" y="1118" on="1"/>
        <pt x="97" y="1209" on="0"/>
        <pt x="190" y="1300" on="0"/>
        <pt x="282" y="1300" on="1"/>
        <pt x="436" y="1300" on="0"/>
        <pt x="539" y="1209" on="0"/>
        <pt x="539" y="1118" on="1"/>
        <pt x="539" y="992" on="0"/>
        <pt x="385" y="648" on="0"/>
      </contour>
    </TTGlyph>
    <TTGlyph name="uni0E9A.am" xMin="97" yMin="0" xMax="1247" yMax="1850">
      <contour>
        <pt x="267" y="1055" on="1"/>
        <pt x="331" y="1055" on="0"/>
        <pt x="331" y="1118" on="1"/>
        <pt x="331" y="1182" on="0"/>
        <pt x="267" y="1182" on="1"/>
        <pt x="203" y="1182" on="0"/>
        <pt x="203" y="1118" on="1"/>
        <pt x="203" y="1055" on="0"/>
      </contour>
      <contour>
        <pt x="385" y="430" on="1"/>
        <pt x="385" y="223" on="0"/>
        <pt x="491" y="110" on="0"/>
        <pt x="672" y="110" on="1"/>
        <pt x="852" y="110" on="0"/>
        <pt x="959" y="232" on="0"/>
        <pt x="959" y="430" on="1"/>
        <pt x="959" y="1100" on="1"/>
        <pt x="959" y="1225" on="0"/>
        <pt x="909" y="1300" on="1"/>
        <pt x="1197" y="1300" on="1"/>
        <pt x="1247" y="1195" on="0"/>
        <pt x="1247" y="1100" on="1"/>
        <pt x="1247" y="430" on="1"/>
        <pt x="1247" y="190" on="0"/>
        <pt x="1122" y="95" on="1"/>
        <pt x="997" y="0" on="0"/>
        <pt x="671" y="0" on="1"/>
        <pt x="345" y="0" on="0"/>
        <pt x="220" y="92" on="1"/>
        <pt x="97" y="183" on="0"/>
        <pt x="97" y="430" on="1"/>
        <pt x="97" y="692" on="0"/>
        <pt x="213" y="847" on="1"/>
        <pt x="253" y="899" on="0"/>
        <pt x="280" y="946" on="1"/>
        <pt x="189" y="947" on="0"/>
        <pt x="97" y="1033" on="0"/>
        <pt x="97" y="1118" on="1"/>
        <pt x="97" y="1209" on="0"/>
        <pt x="190" y="1300" on="0"/>
        <pt x="282" y="1300" on="1"/>
        <pt x="436" y="1300" on="0"/>
        <pt x="539" y="1209" on="0"/>
        <pt x="539" y="1118" on="1"/>
        <pt x="539" y="992" on="0"/>
        <pt x="385" y="648" on="0"/>
      </contour>
      <contour>
        <pt x="659" y="1730" on="0"/>
        <pt x="635" y="1709" on="0"/>
        <pt x="621" y="1671" on="0"/>
        <pt x="621" y="1650" on="1"/>
        <pt x="621" y="1629" on="0"/>
        <pt x="635" y="1591" on="0"/>
        <pt x="659" y="1570" on="0"/>
        <pt x="671" y="1570" on="1"/>
        <pt x="684" y="1570" on="0"/>
        <pt x="708" y="1591" on="0"/>
        <pt x="721" y="1629" on="0"/>
        <pt x="721" y="1650" on="1"/>
        <pt x="721" y="1671" on="0"/>
        <pt x="708" y="1709" on="0"/>
        <pt x="684" y="1730" on="0"/>
        <pt x="671" y="1730" on="1"/>
      </contour>
      <contour>
        <pt x="671" y="1850" on="1"/>
        <pt x="735" y="1850" on="0"/>
        <pt x="854" y="1798" on="0"/>
        <pt x="921" y="1702" on="0"/>
        <pt x="921" y="1650" on="1"/>
        <pt x="921" y="1598" on="0"/>
        <pt x="856" y="1503" on="0"/>
        <pt x="736" y="1450" on="0"/>
        <pt x="671" y="1450" on="1"/>
        <pt x="607" y="1450" on="0"/>
        <pt x="487" y="1503" on="0"/>
        <pt x="421" y="1598" on="0"/>
        <pt x="421" y="1650" on="1"/>
        <pt x="421" y="1702" on="0"/>
        <pt x="489" y="1798" on="0"/>
        <pt x="609" y="1850" on="0"/>
      </contour>
    </TTGlyph>
    <TTGlyph name="uni0E9B" xMin="97" yMin="0" xMax="1330" yMax="1635">
      <contour>
        <pt x="267" y="1055" on="1"/>
        <pt x="331" y="1055" on="0"/>
        <pt x="331" y="1118" on="1"/>
        <pt x="331" y="1182" on="0"/>
        <pt x="267" y="1182" on="1"/>
        <pt x="203" y="1182" on="0"/>
        <pt x="203" y="1118" on="1"/>
        <pt x="203" y="1055" on="0"/>
      </contour>
      <contour>
        <pt x="959" y="1270" on="1"/>
        <pt x="959" y="1355" on="0"/>
        <pt x="1066" y="1575" on="0"/>
        <pt x="1330" y="1635" on="1"/>
        <pt x="1247" y="1485" on="0"/>
        <pt x="1247" y="1270" on="1"/>
        <pt x="1247" y="430" on="1"/>
        <pt x="1247" y="190" on="0"/>
        <pt x="1122" y="95" on="1"/>
        <pt x="997" y="0" on="0"/>
        <pt x="671" y="0" on="1"/>
        <pt x="345" y="0" on="0"/>
        <pt x="220" y="92" on="1"/>
        <pt x="97" y="183" on="0"/>
        <pt x="97" y="430" on="1"/>
        <pt x="97" y="692" on="0"/>
        <pt x="213" y="847" on="1"/>
        <pt x="253" y="899" on="0"/>
        <pt x="280" y="946" on="1"/>
        <pt x="189" y="947" on="0"/>
        <pt x="97" y="1033" on="0"/>
        <pt x="97" y="1118" on="1"/>
        <pt x="97" y="1209" on="0"/>
        <pt x="190" y="1300" on="0"/>
        <pt x="282" y="1300" on="1"/>
        <pt x="436" y="1300" on="0"/>
        <pt x="539" y="1209" on="0"/>
        <pt x="539" y="1118" on="1"/>
        <pt x="539" y="992" on="0"/>
        <pt x="385" y="648" on="0"/>
        <pt x="385" y="430" on="1"/>
        <pt x="385" y="223" on="0"/>
        <pt x="491" y="110" on="0"/>
        <pt x="672" y="110" on="1"/>
        <pt x="852" y="110" on="0"/>
        <pt x="959" y="232" on="0"/>
        <pt x="959" y="430" on="1"/>
      </contour>
    </TTGlyph>
    <TTGlyph name="uni0E9B.am" xMin="97" yMin="0" xMax="1330" yMax="1850">
      <contour>
        <pt x="267" y="1055" on="1"/>
        <pt x="331" y="1055" on="0"/>
        <pt x="331" y="1118" on="1"/>
        <pt x="331" y="1182" on="0"/>
        <pt x="267" y="1182" on="1"/>
        <pt x="203" y="1182" on="0"/>
        <pt x="203" y="1118" on="1"/>
        <pt x="203" y="1055" on="0"/>
      </contour>
      <contour>
        <pt x="959" y="1270" on="1"/>
        <pt x="959" y="1355" on="0"/>
        <pt x="1066" y="1575" on="0"/>
        <pt x="1330" y="1635" on="1"/>
        <pt x="1247" y="1485" on="0"/>
        <pt x="1247" y="1270" on="1"/>
        <pt x="1247" y="430" on="1"/>
        <pt x="1247" y="190" on="0"/>
        <pt x="1122" y="95" on="1"/>
        <pt x="997" y="0" on="0"/>
        <pt x="671" y="0" on="1"/>
        <pt x="345" y="0" on="0"/>
        <pt x="220" y="92" on="1"/>
        <pt x="97" y="183" on="0"/>
        <pt x="97" y="430" on="1"/>
        <pt x="97" y="692" on="0"/>
        <pt x="213" y="847" on="1"/>
        <pt x="253" y="899" on="0"/>
        <pt x="280" y="946" on="1"/>
        <pt x="189" y="947" on="0"/>
        <pt x="97" y="1033" on="0"/>
        <pt x="97" y="1118" on="1"/>
        <pt x="97" y="1209" on="0"/>
        <pt x="190" y="1300" on="0"/>
        <pt x="282" y="1300" on="1"/>
        <pt x="436" y="1300" on="0"/>
        <pt x="539" y="1209" on="0"/>
        <pt x="539" y="1118" on="1"/>
        <pt x="539" y="992" on="0"/>
        <pt x="385" y="648" on="0"/>
        <pt x="385" y="430" on="1"/>
        <pt x="385" y="223" on="0"/>
        <pt x="491" y="110" on="0"/>
        <pt x="672" y="110" on="1"/>
        <pt x="852" y="110" on="0"/>
        <pt x="959" y="232" on="0"/>
        <pt x="959" y="430" on="1"/>
      </contour>
      <contour>
        <pt x="659" y="1730" on="0"/>
        <pt x="635" y="1709" on="0"/>
        <pt x="621" y="1671" on="0"/>
        <pt x="621" y="1650" on="1"/>
        <pt x="621" y="1629" on="0"/>
        <pt x="635" y="1591" on="0"/>
        <pt x="659" y="1570" on="0"/>
        <pt x="671" y="1570" on="1"/>
        <pt x="684" y="1570" on="0"/>
        <pt x="708" y="1591" on="0"/>
        <pt x="721" y="1629" on="0"/>
        <pt x="721" y="1650" on="1"/>
        <pt x="721" y="1671" on="0"/>
        <pt x="708" y="1709" on="0"/>
        <pt x="684" y="1730" on="0"/>
        <pt x="671" y="1730" on="1"/>
      </contour>
      <contour>
        <pt x="671" y="1850" on="1"/>
        <pt x="735" y="1850" on="0"/>
        <pt x="854" y="1798" on="0"/>
        <pt x="921" y="1702" on="0"/>
        <pt x="921" y="1650" on="1"/>
        <pt x="921" y="1598" on="0"/>
        <pt x="856" y="1503" on="0"/>
        <pt x="736" y="1450" on="0"/>
        <pt x="671" y="1450" on="1"/>
        <pt x="607" y="1450" on="0"/>
        <pt x="487" y="1503" on="0"/>
        <pt x="421" y="1598" on="0"/>
        <pt x="421" y="1650" on="1"/>
        <pt x="421" y="1702" on="0"/>
        <pt x="489" y="1798" on="0"/>
        <pt x="609" y="1850" on="0"/>
      </contour>
    </TTGlyph>
    <TTGlyph name="uni0E9C" xMin="118" yMin="0" xMax="1328" yMax="1400">
      <contour>
        <pt x="494" y="1130" on="1"/>
        <pt x="494" y="1194" on="0"/>
        <pt x="430" y="1194" on="1"/>
        <pt x="365" y="1194" on="0"/>
        <pt x="365" y="1130" on="1"/>
        <pt x="365" y="1067" on="0"/>
        <pt x="430" y="1067" on="1"/>
        <pt x="494" y="1067" on="0"/>
      </contour>
      <contour>
        <pt x="946" y="1067" on="1"/>
        <pt x="979" y="1067" on="0"/>
        <pt x="1020" y="1107" on="1"/>
        <pt x="1011" y="1194" on="0"/>
        <pt x="946" y="1194" on="1"/>
        <pt x="882" y="1194" on="0"/>
        <pt x="882" y="1130" on="1"/>
        <pt x="882" y="1067" on="0"/>
      </contour>
      <contour>
        <pt x="700" y="400" on="1"/>
        <pt x="787" y="120" on="0"/>
        <pt x="862" y="120" on="1"/>
        <pt x="918" y="120" on="0"/>
        <pt x="970" y="232" on="0"/>
        <pt x="970" y="380" on="1"/>
        <pt x="970" y="971" on="1"/>
        <pt x="949" y="963" on="0"/>
        <pt x="925" y="963" on="1"/>
        <pt x="914" y="963" on="0"/>
        <pt x="903" y="965" on="1"/>
        <pt x="866" y="970" on="0"/>
        <pt x="786" y="1045" on="0"/>
        <pt x="786" y="1131" on="1"/>
        <pt x="786" y="1205" on="0"/>
        <pt x="876" y="1300" on="0"/>
        <pt x="956" y="1300" on="1"/>
        <pt x="1106" y="1300" on="0"/>
        <pt x="1169" y="1254" on="1"/>
        <pt x="1184" y="1243" on="0"/>
        <pt x="1196" y="1230" on="1"/>
        <pt x="1219" y="1266" on="0"/>
        <pt x="1219" y="1305" on="1"/>
        <pt x="1219" y="1373" on="0"/>
        <pt x="1190" y="1400" on="1"/>
        <pt x="1328" y="1400" on="0"/>
        <pt x="1328" y="1300" on="1"/>
        <pt x="1328" y="1203" on="0"/>
        <pt x="1250" y="1119" on="1"/>
        <pt x="1258" y="1082" on="0"/>
        <pt x="1258" y="1037" on="1"/>
        <pt x="1258" y="380" on="1"/>
        <pt x="1258" y="165" on="0"/>
        <pt x="1166" y="71" on="1"/>
        <pt x="1096" y="0" on="0"/>
        <pt x="912" y="0" on="1"/>
        <pt x="759" y="0" on="0"/>
        <pt x="688" y="117" on="1"/>
        <pt x="617" y="0" on="0"/>
        <pt x="464" y="0" on="1"/>
        <pt x="281" y="0" on="0"/>
        <pt x="211" y="70" on="1"/>
        <pt x="118" y="163" on="0"/>
        <pt x="118" y="380" on="1"/>
        <pt x="118" y="1037" on="1"/>
        <pt x="118" y="1190" on="0"/>
        <pt x="207" y="1254" on="1"/>
        <pt x="270" y="1300" on="0"/>
        <pt x="420" y="1300" on="1"/>
        <pt x="500" y="1300" on="0"/>
        <pt x="590" y="1205" on="0"/>
        <pt x="590" y="1131" on="1"/>
        <pt x="590" y="1045" on="0"/>
        <pt x="510" y="970" on="0"/>
        <pt x="474" y="965" on="1"/>
        <pt x="462" y="963" on="0"/>
        <pt x="451" y="963" on="1"/>
        <pt x="427" y="963" on="0"/>
        <pt x="406" y="971" on="1"/>
        <pt x="406" y="380" on="1"/>
        <pt x="406" y="227" on="0"/>
        <pt x="460" y="120" on="0"/>
        <pt x="514" y="120" on="1"/>
        <pt x="589" y="120" on="0"/>
        <pt x="676" y="400" on="1"/>
      </contour>
    </TTGlyph>
    <TTGlyph name="uni0E9C.am" xMin="118" yMin="0" xMax="1328" yMax="1850">
      <contour>
        <pt x="494" y="1130" on="1"/>
        <pt x="494" y="1194" on="0"/>
        <pt x="430" y="1194" on="1"/>
        <pt x="365" y="1194" on="0"/>
        <pt x="365" y="1130" on="1"/>
        <pt x="365" y="1067" on="0"/>
        <pt x="430" y="1067" on="1"/>
        <pt x="494" y="1067" on="0"/>
      </contour>
      <contour>
        <pt x="946" y="1067" on="1"/>
        <pt x="979" y="1067" on="0"/>
        <pt x="1020" y="1107" on="1"/>
        <pt x="1011" y="1194" on="0"/>
        <pt x="946" y="1194" on="1"/>
        <pt x="882" y="1194" on="0"/>
        <pt x="882" y="1130" on="1"/>
        <pt x="882" y="1067" on="0"/>
      </contour>
      <contour>
        <pt x="700" y="400" on="1"/>
        <pt x="787" y="120" on="0"/>
        <pt x="862" y="120" on="1"/>
        <pt x="918" y="120" on="0"/>
        <pt x="970" y="232" on="0"/>
        <pt x="970" y="380" on="1"/>
        <pt x="970" y="971" on="1"/>
        <pt x="949" y="963" on="0"/>
        <pt x="925" y="963" on="1"/>
        <pt x="914" y="963" on="0"/>
        <pt x="903" y="965" on="1"/>
        <pt x="866" y="970" on="0"/>
        <pt x="786" y="1045" on="0"/>
        <pt x="786" y="1131" on="1"/>
        <pt x="786" y="1205" on="0"/>
        <pt x="876" y="1300" on="0"/>
        <pt x="956" y="1300" on="1"/>
        <pt x="1106" y="1300" on="0"/>
        <pt x="1169" y="1254" on="1"/>
        <pt x="1184" y="1243" on="0"/>
        <pt x="1196" y="1230" on="1"/>
        <pt x="1219" y="1266" on="0"/>
        <pt x="1219" y="1305" on="1"/>
        <pt x="1219" y="1373" on="0"/>
        <pt x="1190" y="1400" on="1"/>
        <pt x="1328" y="1400" on="0"/>
        <pt x="1328" y="1300" on="1"/>
        <pt x="1328" y="1203" on="0"/>
        <pt x="1250" y="1119" on="1"/>
        <pt x="1258" y="1082" on="0"/>
        <pt x="1258" y="1037" on="1"/>
        <pt x="1258" y="380" on="1"/>
        <pt x="1258" y="165" on="0"/>
        <pt x="1166" y="71" on="1"/>
        <pt x="1096" y="0" on="0"/>
        <pt x="912" y="0" on="1"/>
        <pt x="759" y="0" on="0"/>
        <pt x="688" y="117" on="1"/>
        <pt x="617" y="0" on="0"/>
        <pt x="464" y="0" on="1"/>
        <pt x="281" y="0" on="0"/>
        <pt x="211" y="70" on="1"/>
        <pt x="118" y="163" on="0"/>
        <pt x="118" y="380" on="1"/>
        <pt x="118" y="1037" on="1"/>
        <pt x="118" y="1190" on="0"/>
        <pt x="207" y="1254" on="1"/>
        <pt x="270" y="1300" on="0"/>
        <pt x="420" y="1300" on="1"/>
        <pt x="500" y="1300" on="0"/>
        <pt x="590" y="1205" on="0"/>
        <pt x="590" y="1131" on="1"/>
        <pt x="590" y="1045" on="0"/>
        <pt x="510" y="970" on="0"/>
        <pt x="474" y="965" on="1"/>
        <pt x="462" y="963" on="0"/>
        <pt x="451" y="963" on="1"/>
        <pt x="427" y="963" on="0"/>
        <pt x="406" y="971" on="1"/>
        <pt x="406" y="380" on="1"/>
        <pt x="406" y="227" on="0"/>
        <pt x="460" y="120" on="0"/>
        <pt x="514" y="120" on="1"/>
        <pt x="589" y="120" on="0"/>
        <pt x="676" y="400" on="1"/>
      </contour>
      <contour>
        <pt x="659" y="1730" on="0"/>
        <pt x="635" y="1709" on="0"/>
        <pt x="621" y="1671" on="0"/>
        <pt x="621" y="1650" on="1"/>
        <pt x="621" y="1629" on="0"/>
        <pt x="635" y="1591" on="0"/>
        <pt x="659" y="1570" on="0"/>
        <pt x="671" y="1570" on="1"/>
        <pt x="684" y="1570" on="0"/>
        <pt x="708" y="1591" on="0"/>
        <pt x="721" y="1629" on="0"/>
        <pt x="721" y="1650" on="1"/>
        <pt x="721" y="1671" on="0"/>
        <pt x="708" y="1709" on="0"/>
        <pt x="684" y="1730" on="0"/>
        <pt x="671" y="1730" on="1"/>
      </contour>
      <contour>
        <pt x="671" y="1850" on="1"/>
        <pt x="735" y="1850" on="0"/>
        <pt x="854" y="1798" on="0"/>
        <pt x="921" y="1702" on="0"/>
        <pt x="921" y="1650" on="1"/>
        <pt x="921" y="1598" on="0"/>
        <pt x="856" y="1503" on="0"/>
        <pt x="736" y="1450" on="0"/>
        <pt x="671" y="1450" on="1"/>
        <pt x="607" y="1450" on="0"/>
        <pt x="487" y="1503" on="0"/>
        <pt x="421" y="1598" on="0"/>
        <pt x="421" y="1650" on="1"/>
        <pt x="421" y="1702" on="0"/>
        <pt x="489" y="1798" on="0"/>
        <pt x="609" y="1850" on="0"/>
      </contour>
    </TTGlyph>
</ttFont>
